<?xml version="1.0" standalone="no"?>
 <!DOCTYPE svg PUBLIC "-//W3C//DTD SVG 1.1//EN" 
 "http://www.w3.org/Graphics/SVG/1.1/DTD/svg11.dtd"> 
<svg
  xmlns:svg="http://www.w3.org/2000/svg"
  xmlns="http://www.w3.org/2000/svg"
  xmlns:xlink="http://www.w3.org/1999/xlink"
  version="1.1"
  width="19.067780cm" height="9.281160cm" viewBox="0 0 190677800 92811600">
<title>SVG Picture created as micro10-brd.svg date 2022/04/01 08:32:17 </title>
  <desc>Picture generated by PCBNEW </desc>
<g style="fill:#000000; fill-opacity:1.000000;stroke:#000000; stroke-opacity:1.000000;
stroke-linecap:round; stroke-linejoin:round;"
 transform="translate(0 0) scale(1 1)">
</g>
<g style="fill:#000000; fill-opacity:0.0; 
stroke:#000000; stroke-width:0.000000; stroke-opacity:1; 
stroke-linecap:round; stroke-linejoin:round;">
</g>
<g style="fill:#840084; fill-opacity:0.0; 
stroke:#840084; stroke-width:0.000000; stroke-opacity:1; 
stroke-linecap:round; stroke-linejoin:round;">
</g>
<g style="fill:#840084; fill-opacity:0.0; 
stroke:#840084; stroke-width:300000.000000; stroke-opacity:1; 
stroke-linecap:round; stroke-linejoin:round;">
<text x="37215750.000000" y="84479500.000000"
transform="scale(-1 1) translate(-74431500.000000 0)"
textLength="11597143.000000" font-size="2000000.000000" lengthAdjust="spacingAndGlyphs"
text-anchor="middle" opacity="0">by dcpedit</text>
<g class="stroked-text"><desc>by dcpedit</desc>
<path d="M42787178 84408071
L42787178 82908071
" />
<path d="M42787178 83479500
L42644321 83408071
L42358607 83408071
L42215750 83479500
L42144321 83550928
L42072892 83693785
L42072892 84122357
L42144321 84265214
L42215750 84336642
L42358607 84408071
L42644321 84408071
L42787178 84336642
" />
<path d="M41572892 83408071
L41215750 84408071
" />
<path d="M40858607 83408071
L41215750 84408071
L41358607 84765214
L41430035 84836642
L41572892 84908071
" />
<path d="M38501464 84408071
L38501464 82908071
" />
<path d="M38501464 84336642
L38644321 84408071
L38930035 84408071
L39072892 84336642
L39144321 84265214
L39215750 84122357
L39215750 83693785
L39144321 83550928
L39072892 83479500
L38930035 83408071
L38644321 83408071
L38501464 83479500
" />
<path d="M37144321 84336642
L37287178 84408071
L37572892 84408071
L37715750 84336642
L37787178 84265214
L37858607 84122357
L37858607 83693785
L37787178 83550928
L37715750 83479500
L37572892 83408071
L37287178 83408071
L37144321 83479500
" />
<path d="M36501464 83408071
L36501464 84908071
" />
<path d="M36501464 83479500
L36358607 83408071
L36072892 83408071
L35930035 83479500
L35858607 83550928
L35787178 83693785
L35787178 84122357
L35858607 84265214
L35930035 84336642
L36072892 84408071
L36358607 84408071
L36501464 84336642
" />
<path d="M34572892 84336642
L34715750 84408071
L35001464 84408071
L35144321 84336642
L35215750 84193785
L35215750 83622357
L35144321 83479500
L35001464 83408071
L34715750 83408071
L34572892 83479500
L34501464 83622357
L34501464 83765214
L35215750 83908071
" />
<path d="M33215750 84408071
L33215750 82908071
" />
<path d="M33215750 84336642
L33358607 84408071
L33644321 84408071
L33787178 84336642
L33858607 84265214
L33930035 84122357
L33930035 83693785
L33858607 83550928
L33787178 83479500
L33644321 83408071
L33358607 83408071
L33215750 83479500
" />
<path d="M32501464 84408071
L32501464 83408071
" />
<path d="M32501464 82908071
L32572892 82979500
L32501464 83050928
L32430035 82979500
L32501464 82908071
L32501464 83050928
" />
<path d="M32001464 83408071
L31430035 83408071
" />
<path d="M31787178 82908071
L31787178 84193785
L31715750 84336642
L31572892 84408071
L31430035 84408071
" />
</g></g>
<g style="fill:#840084; fill-opacity:0.0; 
stroke:#840084; stroke-width:203200.000000; stroke-opacity:1; 
stroke-linecap:round; stroke-linejoin:round;">
<g transform="rotate(-90.000000 82650000.000000 19404000.000000)">
<text x="82650000.000000" y="20004000.000000"
transform="scale(-1 1) translate(-165300000.000000 0)"
textLength="2010000.000000" font-size="1600000.000000" lengthAdjust="spacingAndGlyphs"
text-anchor="middle" opacity="0">U1</text>
</g>
<g class="stroked-text"><desc>U1</desc>
<path d="M81992857 18489714
L82964285 18489714
L83078571 18546857
L83135714 18604000
L83192857 18718285
L83192857 18946857
L83135714 19061142
L83078571 19118285
L82964285 19175428
L81992857 19175428
" />
<path d="M83192857 20375428
L83192857 19689714
" />
<path d="M83192857 20032571
L81992857 20032571
L82164285 19918285
L82278571 19804000
L82335714 19689714
" />
</g><g transform="rotate(-90.000000 89000000.000000 19404000.000000)">
<text x="89000000.000000" y="20004000.000000"
transform="scale(-1 1) translate(-178000000.000000 0)"
textLength="6421554.000000" font-size="1600000.000000" lengthAdjust="spacingAndGlyphs"
text-anchor="middle" opacity="0">Elite-C</text>
</g>
<g class="stroked-text"><desc>Elite-C</desc>
<path d="M88914285 16346857
L88914285 16746857
" />
<path d="M89542857 16918285
L89542857 16346857
L88342857 16346857
L88342857 16918285
" />
<path d="M89542857 17604000
L89485714 17489714
L89371428 17432571
L88342857 17432571
" />
<path d="M89542857 18061142
L88742857 18061142
" />
<path d="M88342857 18061142
L88400000 18004000
L88457142 18061142
L88400000 18118285
L88342857 18061142
L88457142 18061142
" />
<path d="M88742857 18461142
L88742857 18918285
" />
<path d="M88342857 18632571
L89371428 18632571
L89485714 18689714
L89542857 18804000
L89542857 18918285
" />
<path d="M89485714 19775428
L89542857 19661142
L89542857 19432571
L89485714 19318285
L89371428 19261142
L88914285 19261142
L88800000 19318285
L88742857 19432571
L88742857 19661142
L88800000 19775428
L88914285 19832571
L89028571 19832571
L89142857 19261142
" />
<path d="M89085714 20346857
L89085714 21261142
" />
<path d="M89428571 22518285
L89485714 22461142
L89542857 22289714
L89542857 22175428
L89485714 22004000
L89371428 21889714
L89257142 21832571
L89028571 21775428
L88857142 21775428
L88628571 21832571
L88514285 21889714
L88400000 22004000
L88342857 22175428
L88342857 22289714
L88400000 22461142
L88457142 22518285
" />
</g></g>
<g style="fill:#840084; fill-opacity:0.0; 
stroke:#840084; stroke-width:150000.000000; stroke-opacity:1; 
stroke-linecap:round; stroke-linejoin:round;">
<g transform="rotate(-135.000000 79425000.000000 32104000.000000)">
<text x="79425000.000000" y="32454000.000000"
transform="scale(-1 1) translate(-158850000.000000 0)"
textLength="1102507.000000" font-size="933333.000000" lengthAdjust="spacingAndGlyphs"
text-anchor="middle" opacity="0">B5</text>
</g>
<g class="stroked-text"><desc>B5</desc>
<path d="M79189297 31939008
L79283578 31986148
L79330719 31986148
L79401429 31962578
L79472140 31891867
L79495710 31821157
L79495710 31774016
L79472140 31703306
L79283578 31514744
L78788603 32009719
L78953595 32174710
L79024306 32198280
L79071446 32198280
L79142157 32174710
L79189297 32127570
L79212867 32056859
L79212867 32009719
L79189297 31939008
L79024306 31774016
" />
<path d="M79519280 32740396
L79283578 32504693
L79495710 32245421
L79495710 32292561
L79519280 32363272
L79637132 32481123
L79707842 32504693
L79754983 32504693
L79825693 32481123
L79943544 32363272
L79967115 32292561
L79967115 32245421
L79943544 32174710
L79825693 32056859
L79754983 32033289
L79707842 32033289
" />
</g><text x="91286000.000000" y="13454000.000000"
transform="scale(-1 1) translate(-182572000.000000 0)"
textLength="2090714.000000" font-size="1066666.000000" lengthAdjust="spacingAndGlyphs"
text-anchor="middle" opacity="0">VCC</text>
<g class="stroked-text"><desc>VCC</desc>
<path d="M92352666 12615904
L92086000 13415904
L91819333 12615904
" />
<path d="M91095523 13339714
L91133619 13377809
L91247904 13415904
L91324095 13415904
L91438380 13377809
L91514571 13301619
L91552666 13225428
L91590761 13073047
L91590761 12958761
L91552666 12806380
L91514571 12730190
L91438380 12654000
L91324095 12615904
L91247904 12615904
L91133619 12654000
L91095523 12692095
" />
<path d="M90295523 13339714
L90333619 13377809
L90447904 13415904
L90524095 13415904
L90638380 13377809
L90714571 13301619
L90752666 13225428
L90790761 13073047
L90790761 12958761
L90752666 12806380
L90714571 12730190
L90638380 12654000
L90524095 12615904
L90447904 12615904
L90333619 12654000
L90295523 12692095
" />
</g><text x="80364000.000000" y="12120500.000000"
transform="scale(-1 1) translate(-160728000.000000 0)"
textLength="2243095.000000" font-size="1066666.000000" lengthAdjust="spacingAndGlyphs"
text-anchor="middle" opacity="0">GND</text>
<g class="stroked-text"><desc>GND</desc>
<path d="M80973523 11320500
L81049714 11282404
L81164000 11282404
L81278285 11320500
L81354476 11396690
L81392571 11472880
L81430666 11625261
L81430666 11739547
L81392571 11891928
L81354476 11968119
L81278285 12044309
L81164000 12082404
L81087809 12082404
L80973523 12044309
L80935428 12006214
L80935428 11739547
L81087809 11739547
" />
<path d="M80592571 12082404
L80592571 11282404
L80135428 12082404
L80135428 11282404
" />
<path d="M79754476 12082404
L79754476 11282404
L79564000 11282404
L79449714 11320500
L79373523 11396690
L79335428 11472880
L79297333 11625261
L79297333 11739547
L79335428 11891928
L79373523 11968119
L79449714 12044309
L79564000 12082404
L79754476 12082404
" />
</g><text x="91286000.000000" y="28694000.000000"
transform="scale(-1 1) translate(-182572000.000000 0)"
textLength="1366905.000000" font-size="1066666.000000" lengthAdjust="spacingAndGlyphs"
text-anchor="middle" opacity="0">B3</text>
<g class="stroked-text"><desc>B3</desc>
<path d="M91609809 28236857
L91495523 28274952
L91457428 28313047
L91419333 28389238
L91419333 28503523
L91457428 28579714
L91495523 28617809
L91571714 28655904
L91876476 28655904
L91876476 27855904
L91609809 27855904
L91533619 27894000
L91495523 27932095
L91457428 28008285
L91457428 28084476
L91495523 28160666
L91533619 28198761
L91609809 28236857
L91876476 28236857
" />
<path d="M91152666 27855904
L90657428 27855904
L90924095 28160666
L90809809 28160666
L90733619 28198761
L90695523 28236857
L90657428 28313047
L90657428 28503523
L90695523 28579714
L90733619 28617809
L90809809 28655904
L91038380 28655904
L91114571 28617809
L91152666 28579714
" />
</g><text x="80364000.000000" y="26154000.000000"
transform="scale(-1 1) translate(-160728000.000000 0)"
textLength="1366905.000000" font-size="1066666.000000" lengthAdjust="spacingAndGlyphs"
text-anchor="middle" opacity="0">D7</text>
<g class="stroked-text"><desc>D7</desc>
<path d="M80954476 26115904
L80954476 25315904
L80764000 25315904
L80649714 25354000
L80573523 25430190
L80535428 25506380
L80497333 25658761
L80497333 25773047
L80535428 25925428
L80573523 26001619
L80649714 26077809
L80764000 26115904
L80954476 26115904
" />
<path d="M80230666 25315904
L79697333 25315904
L80040190 26115904
" />
</g><g transform="rotate(-45.000000 92225000.000000 32104000.000000)">
<text x="92225000.000000" y="32454000.000000"
transform="scale(-1 1) translate(-184450000.000000 0)"
textLength="1171667.000000" font-size="933333.000000" lengthAdjust="spacingAndGlyphs"
text-anchor="middle" opacity="0">B6</text>
</g>
<g class="stroked-text"><desc>B6</desc>
<path d="M92389991 31868297
L92342851 31962578
L92342851 32009719
L92366421 32080429
L92437132 32151140
L92507842 32174710
L92554983 32174710
L92625693 32151140
L92814255 31962578
L92319280 31467603
L92154289 31632595
L92130719 31703306
L92130719 31750446
L92154289 31821157
L92201429 31868297
L92272140 31891867
L92319280 31891867
L92389991 31868297
L92554983 31703306
" />
<path d="M91612174 32174710
L91706455 32080429
L91777165 32056859
L91824306 32056859
L91942157 32080429
L92060008 32151140
L92248570 32339702
L92272140 32410412
L92272140 32457553
L92248570 32528264
L92154289 32622544
L92083578 32646115
L92036438 32646115
L91965727 32622544
L91847876 32504693
L91824306 32433983
L91824306 32386842
L91847876 32316132
L91942157 32221851
L92012867 32198280
L92060008 32198280
L92130719 32221851
" />
</g><text x="90325000.000000" y="32354000.000000"
transform="scale(-1 1) translate(-180650000.000000 0)"
textLength="1071667.000000" font-size="933333.000000" lengthAdjust="spacingAndGlyphs"
text-anchor="middle" opacity="0">F0</text>
<g class="stroked-text"><desc>F0</desc>
<path d="M90558333 31954000
L90791666 31954000
" />
<path d="M90791666 32320666
L90791666 31620666
L90458333 31620666
" />
<path d="M90058333 31620666
L89991666 31620666
L89925000 31654000
L89891666 31687333
L89858333 31754000
L89825000 31887333
L89825000 32054000
L89858333 32187333
L89891666 32254000
L89925000 32287333
L89991666 32320666
L90058333 32320666
L90125000 32287333
L90158333 32254000
L90191666 32187333
L90225000 32054000
L90225000 31887333
L90191666 31754000
L90158333 31687333
L90125000 31654000
L90058333 31620666
" />
</g><text x="85825000.000000" y="32204000.000000"
transform="scale(-1 1) translate(-171650000.000000 0)"
textLength="1366905.000000" font-size="1066666.000000" lengthAdjust="spacingAndGlyphs"
text-anchor="middle" opacity="0">C7</text>
<g class="stroked-text"><desc>C7</desc>
<path d="M85958333 32089714
L85996428 32127809
L86110714 32165904
L86186904 32165904
L86301190 32127809
L86377380 32051619
L86415476 31975428
L86453571 31823047
L86453571 31708761
L86415476 31556380
L86377380 31480190
L86301190 31404000
L86186904 31365904
L86110714 31365904
L85996428 31404000
L85958333 31442095
" />
<path d="M85691666 31365904
L85158333 31365904
L85501190 32165904
" />
</g><text x="80364000.000000" y="10914000.000000"
transform="scale(-1 1) translate(-160728000.000000 0)"
textLength="2243095.000000" font-size="1066666.000000" lengthAdjust="spacingAndGlyphs"
text-anchor="middle" opacity="0">GND</text>
<g class="stroked-text"><desc>GND</desc>
<path d="M80973523 10114000
L81049714 10075904
L81164000 10075904
L81278285 10114000
L81354476 10190190
L81392571 10266380
L81430666 10418761
L81430666 10533047
L81392571 10685428
L81354476 10761619
L81278285 10837809
L81164000 10875904
L81087809 10875904
L80973523 10837809
L80935428 10799714
L80935428 10533047
L81087809 10533047
" />
<path d="M80592571 10875904
L80592571 10075904
L80135428 10875904
L80135428 10075904
" />
<path d="M79754476 10875904
L79754476 10075904
L79564000 10075904
L79449714 10114000
L79373523 10190190
L79335428 10266380
L79297333 10418761
L79297333 10533047
L79335428 10685428
L79373523 10761619
L79449714 10837809
L79564000 10875904
L79754476 10875904
" />
</g><text x="88365000.000000" y="32204000.000000"
transform="scale(-1 1) translate(-176730000.000000 0)"
textLength="1252619.000000" font-size="1066666.000000" lengthAdjust="spacingAndGlyphs"
text-anchor="middle" opacity="0">F1</text>
<g class="stroked-text"><desc>F1</desc>
<path d="M88631666 31746857
L88898333 31746857
" />
<path d="M88898333 32165904
L88898333 31365904
L88517380 31365904
" />
<path d="M87793571 32165904
L88250714 32165904
" />
<path d="M88022142 32165904
L88022142 31365904
L88098333 31480190
L88174523 31556380
L88250714 31594476
" />
</g><text x="80364000.000000" y="8374000.000000"
transform="scale(-1 1) translate(-160728000.000000 0)"
textLength="1366905.000000" font-size="1066666.000000" lengthAdjust="spacingAndGlyphs"
text-anchor="middle" opacity="0">D2</text>
<g class="stroked-text"><desc>D2</desc>
<path d="M80954476 8335904
L80954476 7535904
L80764000 7535904
L80649714 7574000
L80573523 7650190
L80535428 7726380
L80497333 7878761
L80497333 7993047
L80535428 8145428
L80573523 8221619
L80649714 8297809
L80764000 8335904
L80954476 8335904
" />
<path d="M80192571 7612095
L80154476 7574000
L80078285 7535904
L79887809 7535904
L79811619 7574000
L79773523 7612095
L79735428 7688285
L79735428 7764476
L79773523 7878761
L80230666 8335904
L79735428 8335904
" />
</g><text x="91286000.000000" y="31234000.000000"
transform="scale(-1 1) translate(-182572000.000000 0)"
textLength="1366905.000000" font-size="1066666.000000" lengthAdjust="spacingAndGlyphs"
text-anchor="middle" opacity="0">B2</text>
<g class="stroked-text"><desc>B2</desc>
<path d="M91609809 30776857
L91495523 30814952
L91457428 30853047
L91419333 30929238
L91419333 31043523
L91457428 31119714
L91495523 31157809
L91571714 31195904
L91876476 31195904
L91876476 30395904
L91609809 30395904
L91533619 30434000
L91495523 30472095
L91457428 30548285
L91457428 30624476
L91495523 30700666
L91533619 30738761
L91609809 30776857
L91876476 30776857
" />
<path d="M91114571 30472095
L91076476 30434000
L91000285 30395904
L90809809 30395904
L90733619 30434000
L90695523 30472095
L90657428 30548285
L90657428 30624476
L90695523 30738761
L91152666 31195904
L90657428 31195904
" />
</g><text x="91286000.000000" y="21074000.000000"
transform="scale(-1 1) translate(-182572000.000000 0)"
textLength="1252619.000000" font-size="1066666.000000" lengthAdjust="spacingAndGlyphs"
text-anchor="middle" opacity="0">F6</text>
<g class="stroked-text"><desc>F6</desc>
<path d="M91552666 20616857
L91819333 20616857
" />
<path d="M91819333 21035904
L91819333 20235904
L91438380 20235904
" />
<path d="M90790761 20235904
L90943142 20235904
L91019333 20274000
L91057428 20312095
L91133619 20426380
L91171714 20578761
L91171714 20883523
L91133619 20959714
L91095523 20997809
L91019333 21035904
L90866952 21035904
L90790761 20997809
L90752666 20959714
L90714571 20883523
L90714571 20693047
L90752666 20616857
L90790761 20578761
L90866952 20540666
L91019333 20540666
L91095523 20578761
L91133619 20616857
L91171714 20693047
" />
</g><text x="83285000.000000" y="32204000.000000"
transform="scale(-1 1) translate(-166570000.000000 0)"
textLength="1366905.000000" font-size="1066666.000000" lengthAdjust="spacingAndGlyphs"
text-anchor="middle" opacity="0">D5</text>
<g class="stroked-text"><desc>D5</desc>
<path d="M83875476 32165904
L83875476 31365904
L83685000 31365904
L83570714 31404000
L83494523 31480190
L83456428 31556380
L83418333 31708761
L83418333 31823047
L83456428 31975428
L83494523 32051619
L83570714 32127809
L83685000 32165904
L83875476 32165904
" />
<path d="M82694523 31365904
L83075476 31365904
L83113571 31746857
L83075476 31708761
L82999285 31670666
L82808809 31670666
L82732619 31708761
L82694523 31746857
L82656428 31823047
L82656428 32013523
L82694523 32089714
L82732619 32127809
L82808809 32165904
L82999285 32165904
L83075476 32127809
L83113571 32089714
" />
</g><text x="80364000.000000" y="28694000.000000"
transform="scale(-1 1) translate(-160728000.000000 0)"
textLength="1290714.000000" font-size="1066666.000000" lengthAdjust="spacingAndGlyphs"
text-anchor="middle" opacity="0">E6</text>
<g class="stroked-text"><desc>E6</desc>
<path d="M80916380 28236857
L80649714 28236857
" />
<path d="M80535428 28655904
L80916380 28655904
L80916380 27855904
L80535428 27855904
" />
<path d="M79849714 27855904
L80002095 27855904
L80078285 27894000
L80116380 27932095
L80192571 28046380
L80230666 28198761
L80230666 28503523
L80192571 28579714
L80154476 28617809
L80078285 28655904
L79925904 28655904
L79849714 28617809
L79811619 28579714
L79773523 28503523
L79773523 28313047
L79811619 28236857
L79849714 28198761
L79925904 28160666
L80078285 28160666
L80154476 28198761
L80192571 28236857
L80230666 28313047
" />
</g><text x="91286000.000000" y="18534000.000000"
transform="scale(-1 1) translate(-182572000.000000 0)"
textLength="1252619.000000" font-size="1066666.000000" lengthAdjust="spacingAndGlyphs"
text-anchor="middle" opacity="0">F5</text>
<g class="stroked-text"><desc>F5</desc>
<path d="M91552666 18076857
L91819333 18076857
" />
<path d="M91819333 18495904
L91819333 17695904
L91438380 17695904
" />
<path d="M90752666 17695904
L91133619 17695904
L91171714 18076857
L91133619 18038761
L91057428 18000666
L90866952 18000666
L90790761 18038761
L90752666 18076857
L90714571 18153047
L90714571 18343523
L90752666 18419714
L90790761 18457809
L90866952 18495904
L91057428 18495904
L91133619 18457809
L91171714 18419714
" />
</g><text x="90865000.000000" y="10894000.000000"
transform="scale(-1 1) translate(-181730000.000000 0)"
textLength="1176429.000000" font-size="1066666.000000" lengthAdjust="spacingAndGlyphs"
text-anchor="middle" opacity="0">ST</text>
<g class="stroked-text"><desc>ST</desc>
<path d="M91398333 10817809
L91284047 10855904
L91093571 10855904
L91017380 10817809
L90979285 10779714
L90941190 10703523
L90941190 10627333
L90979285 10551142
L91017380 10513047
L91093571 10474952
L91245952 10436857
L91322142 10398761
L91360238 10360666
L91398333 10284476
L91398333 10208285
L91360238 10132095
L91322142 10094000
L91245952 10055904
L91055476 10055904
L90941190 10094000
" />
<path d="M90712619 10055904
L90255476 10055904
" />
<path d="M90484047 10855904
L90484047 10055904
" />
</g><text x="91286000.000000" y="8374000.000000"
transform="scale(-1 1) translate(-182572000.000000 0)"
textLength="2243095.000000" font-size="1066666.000000" lengthAdjust="spacingAndGlyphs"
text-anchor="middle" opacity="0">GND</text>
<g class="stroked-text"><desc>GND</desc>
<path d="M91895523 7574000
L91971714 7535904
L92086000 7535904
L92200285 7574000
L92276476 7650190
L92314571 7726380
L92352666 7878761
L92352666 7993047
L92314571 8145428
L92276476 8221619
L92200285 8297809
L92086000 8335904
L92009809 8335904
L91895523 8297809
L91857428 8259714
L91857428 7993047
L92009809 7993047
" />
<path d="M91514571 8335904
L91514571 7535904
L91057428 8335904
L91057428 7535904
" />
<path d="M90676476 8335904
L90676476 7535904
L90486000 7535904
L90371714 7574000
L90295523 7650190
L90257428 7726380
L90219333 7878761
L90219333 7993047
L90257428 8145428
L90295523 8221619
L90371714 8297809
L90486000 8335904
L90676476 8335904
" />
</g><text x="80364000.000000" y="19486500.000000"
transform="scale(-1 1) translate(-160728000.000000 0)"
textLength="1366905.000000" font-size="1066666.000000" lengthAdjust="spacingAndGlyphs"
text-anchor="middle" opacity="0">D0</text>
<g class="stroked-text"><desc>D0</desc>
<path d="M80954476 19448404
L80954476 18648404
L80764000 18648404
L80649714 18686500
L80573523 18762690
L80535428 18838880
L80497333 18991261
L80497333 19105547
L80535428 19257928
L80573523 19334119
L80649714 19410309
L80764000 19448404
L80954476 19448404
" />
<path d="M80002095 18648404
L79925904 18648404
L79849714 18686500
L79811619 18724595
L79773523 18800785
L79735428 18953166
L79735428 19143642
L79773523 19296023
L79811619 19372214
L79849714 19410309
L79925904 19448404
L80002095 19448404
L80078285 19410309
L80116380 19372214
L80154476 19296023
L80192571 19143642
L80192571 18953166
L80154476 18800785
L80116380 18724595
L80078285 18686500
L80002095 18648404
" />
</g><text x="81325000.000000" y="32354000.000000"
transform="scale(-1 1) translate(-162650000.000000 0)"
textLength="1171667.000000" font-size="933333.000000" lengthAdjust="spacingAndGlyphs"
text-anchor="middle" opacity="0">B7</text>
<g class="stroked-text"><desc>B7</desc>
<path d="M81608333 31954000
L81508333 31987333
L81475000 32020666
L81441666 32087333
L81441666 32187333
L81475000 32254000
L81508333 32287333
L81575000 32320666
L81841666 32320666
L81841666 31620666
L81608333 31620666
L81541666 31654000
L81508333 31687333
L81475000 31754000
L81475000 31820666
L81508333 31887333
L81541666 31920666
L81608333 31954000
L81841666 31954000
" />
<path d="M81208333 31620666
L80741666 31620666
L81041666 32320666
" />
</g><text x="91286000.000000" y="23614000.000000"
transform="scale(-1 1) translate(-182572000.000000 0)"
textLength="1252619.000000" font-size="1066666.000000" lengthAdjust="spacingAndGlyphs"
text-anchor="middle" opacity="0">F7</text>
<g class="stroked-text"><desc>F7</desc>
<path d="M91552666 23156857
L91819333 23156857
" />
<path d="M91819333 23575904
L91819333 22775904
L91438380 22775904
" />
<path d="M91209809 22775904
L90676476 22775904
L91019333 23575904
" />
</g><text x="82253128.000000" y="5834000.000000"
transform="scale(-1 1) translate(-164506256.000000 0)"
textLength="4338333.000000" font-size="1066666.000000" lengthAdjust="spacingAndGlyphs"
text-anchor="middle" opacity="0">TX0/D3</text>
<g class="stroked-text"><desc>TX0/D3</desc>
<path d="M84443604 4995904
L83986461 4995904
" />
<path d="M84215032 5795904
L84215032 4995904
" />
<path d="M83795985 4995904
L83262651 5795904
" />
<path d="M83262651 4995904
L83795985 5795904
" />
<path d="M82805508 4995904
L82729318 4995904
L82653128 5034000
L82615032 5072095
L82576937 5148285
L82538842 5300666
L82538842 5491142
L82576937 5643523
L82615032 5719714
L82653128 5757809
L82729318 5795904
L82805508 5795904
L82881699 5757809
L82919794 5719714
L82957889 5643523
L82995985 5491142
L82995985 5300666
L82957889 5148285
L82919794 5072095
L82881699 5034000
L82805508 4995904
" />
<path d="M81624556 4957809
L82310270 5986380
" />
<path d="M81357889 5795904
L81357889 4995904
L81167413 4995904
L81053128 5034000
L80976937 5110190
L80938842 5186380
L80900747 5338761
L80900747 5453047
L80938842 5605428
L80976937 5681619
L81053128 5757809
L81167413 5795904
L81357889 5795904
" />
<path d="M80634080 4995904
L80138842 4995904
L80405508 5300666
L80291223 5300666
L80215032 5338761
L80176937 5376857
L80138842 5453047
L80138842 5643523
L80176937 5719714
L80215032 5757809
L80291223 5795904
L80519794 5795904
L80595985 5757809
L80634080 5719714
" />
</g><text x="80364000.000000" y="31234000.000000"
transform="scale(-1 1) translate(-160728000.000000 0)"
textLength="1366905.000000" font-size="1066666.000000" lengthAdjust="spacingAndGlyphs"
text-anchor="middle" opacity="0">B4</text>
<g class="stroked-text"><desc>B4</desc>
<path d="M80687809 30776857
L80573523 30814952
L80535428 30853047
L80497333 30929238
L80497333 31043523
L80535428 31119714
L80573523 31157809
L80649714 31195904
L80954476 31195904
L80954476 30395904
L80687809 30395904
L80611619 30434000
L80573523 30472095
L80535428 30548285
L80535428 30624476
L80573523 30700666
L80611619 30738761
L80687809 30776857
L80954476 30776857
" />
<path d="M79811619 30662571
L79811619 31195904
" />
<path d="M80002095 30357809
L80192571 30929238
L79697333 30929238
" />
</g><text x="91286000.000000" y="5834000.000000"
transform="scale(-1 1) translate(-182572000.000000 0)"
textLength="1366905.000000" font-size="1066666.000000" lengthAdjust="spacingAndGlyphs"
text-anchor="middle" opacity="0">B0</text>
<g class="stroked-text"><desc>B0</desc>
<path d="M91609809 5376857
L91495523 5414952
L91457428 5453047
L91419333 5529238
L91419333 5643523
L91457428 5719714
L91495523 5757809
L91571714 5795904
L91876476 5795904
L91876476 4995904
L91609809 4995904
L91533619 5034000
L91495523 5072095
L91457428 5148285
L91457428 5224476
L91495523 5300666
L91533619 5338761
L91609809 5376857
L91876476 5376857
" />
<path d="M90924095 4995904
L90847904 4995904
L90771714 5034000
L90733619 5072095
L90695523 5148285
L90657428 5300666
L90657428 5491142
L90695523 5643523
L90733619 5719714
L90771714 5757809
L90847904 5795904
L90924095 5795904
L91000285 5757809
L91038380 5719714
L91076476 5643523
L91114571 5491142
L91114571 5300666
L91076476 5148285
L91038380 5072095
L91000285 5034000
L90924095 4995904
" />
</g><text x="91286000.000000" y="26154000.000000"
transform="scale(-1 1) translate(-182572000.000000 0)"
textLength="1366905.000000" font-size="1066666.000000" lengthAdjust="spacingAndGlyphs"
text-anchor="middle" opacity="0">B1</text>
<g class="stroked-text"><desc>B1</desc>
<path d="M91609809 25696857
L91495523 25734952
L91457428 25773047
L91419333 25849238
L91419333 25963523
L91457428 26039714
L91495523 26077809
L91571714 26115904
L91876476 26115904
L91876476 25315904
L91609809 25315904
L91533619 25354000
L91495523 25392095
L91457428 25468285
L91457428 25544476
L91495523 25620666
L91533619 25658761
L91609809 25696857
L91876476 25696857
" />
<path d="M90657428 26115904
L91114571 26115904
" />
<path d="M90886000 26115904
L90886000 25315904
L90962190 25430190
L91038380 25506380
L91114571 25544476
" />
</g><text x="80364000.000000" y="23614000.000000"
transform="scale(-1 1) translate(-160728000.000000 0)"
textLength="1366905.000000" font-size="1066666.000000" lengthAdjust="spacingAndGlyphs"
text-anchor="middle" opacity="0">C6</text>
<g class="stroked-text"><desc>C6</desc>
<path d="M80497333 23499714
L80535428 23537809
L80649714 23575904
L80725904 23575904
L80840190 23537809
L80916380 23461619
L80954476 23385428
L80992571 23233047
L80992571 23118761
L80954476 22966380
L80916380 22890190
L80840190 22814000
L80725904 22775904
L80649714 22775904
L80535428 22814000
L80497333 22852095
" />
<path d="M79811619 22775904
L79964000 22775904
L80040190 22814000
L80078285 22852095
L80154476 22966380
L80192571 23118761
L80192571 23423523
L80154476 23499714
L80116380 23537809
L80040190 23575904
L79887809 23575904
L79811619 23537809
L79773523 23499714
L79735428 23423523
L79735428 23233047
L79773523 23156857
L79811619 23118761
L79887809 23080666
L80040190 23080666
L80116380 23118761
L80154476 23156857
L80192571 23233047
" />
</g><text x="80364000.000000" y="21074000.000000"
transform="scale(-1 1) translate(-160728000.000000 0)"
textLength="1366905.000000" font-size="1066666.000000" lengthAdjust="spacingAndGlyphs"
text-anchor="middle" opacity="0">D4</text>
<g class="stroked-text"><desc>D4</desc>
<path d="M80954476 21035904
L80954476 20235904
L80764000 20235904
L80649714 20274000
L80573523 20350190
L80535428 20426380
L80497333 20578761
L80497333 20693047
L80535428 20845428
L80573523 20921619
L80649714 20997809
L80764000 21035904
L80954476 21035904
" />
<path d="M79811619 20502571
L79811619 21035904
" />
<path d="M80002095 20197809
L80192571 20769238
L79697333 20769238
" />
</g><text x="82681750.000000" y="15803500.000000"
transform="scale(-1 1) translate(-165363500.000000 0)"
textLength="1366905.000000" font-size="1066666.000000" lengthAdjust="spacingAndGlyphs"
text-anchor="middle" opacity="0">D1</text>
<g class="stroked-text"><desc>D1</desc>
<path d="M83272226 15765404
L83272226 14965404
L83081750 14965404
L82967464 15003500
L82891273 15079690
L82853178 15155880
L82815083 15308261
L82815083 15422547
L82853178 15574928
L82891273 15651119
L82967464 15727309
L83081750 15765404
L83272226 15765404
" />
<path d="M82053178 15765404
L82510321 15765404
" />
<path d="M82281750 15765404
L82281750 14965404
L82357940 15079690
L82434130 15155880
L82510321 15193976
" />
</g><text x="91286000.000000" y="15994000.000000"
transform="scale(-1 1) translate(-182572000.000000 0)"
textLength="1252619.000000" font-size="1066666.000000" lengthAdjust="spacingAndGlyphs"
text-anchor="middle" opacity="0">F4</text>
<g class="stroked-text"><desc>F4</desc>
<path d="M91552666 15536857
L91819333 15536857
" />
<path d="M91819333 15955904
L91819333 15155904
L91438380 15155904
" />
<path d="M90790761 15422571
L90790761 15955904
" />
<path d="M90981238 15117809
L91171714 15689238
L90676476 15689238
" />
</g><text x="99993750.000000" y="8755250.000000"
transform="scale(-1 1) translate(-199987500.000000 0)"
textLength="2852619.000000" font-size="1333333.000000" lengthAdjust="spacingAndGlyphs"
text-anchor="middle" opacity="0">SW1</text>
<g class="stroked-text"><desc>SW1</desc>
<path d="M101327083 8660011
L101184226 8707630
L100946130 8707630
L100850892 8660011
L100803273 8612392
L100755654 8517154
L100755654 8421916
L100803273 8326678
L100850892 8279059
L100946130 8231440
L101136607 8183821
L101231845 8136202
L101279464 8088583
L101327083 7993345
L101327083 7898107
L101279464 7802869
L101231845 7755250
L101136607 7707630
L100898511 7707630
L100755654 7755250
" />
<path d="M100422321 7707630
L100184226 8707630
L99993750 7993345
L99803273 8707630
L99565178 7707630
" />
<path d="M98660416 8707630
L99231845 8707630
" />
<path d="M98946130 8707630
L98946130 7707630
L99041369 7850488
L99136607 7945726
L99231845 7993345
" />
</g><g transform="rotate(-90.000000 16650000.000000 25912750.000000)">
<text x="16650000.000000" y="26412750.000000"
transform="scale(-1 1) translate(-33300000.000000 0)"
textLength="3662143.000000" font-size="1333333.000000" lengthAdjust="spacingAndGlyphs"
text-anchor="middle" opacity="0">D102</text>
</g>
<g class="stroked-text"><desc>D102</desc>
<path d="M17102380 24222273
L16102380 24222273
L16102380 24460369
L16150000 24603226
L16245238 24698464
L16340476 24746083
L16530952 24793702
L16673809 24793702
L16864285 24746083
L16959523 24698464
L17054761 24603226
L17102380 24460369
L17102380 24222273
" />
<path d="M17102380 25746083
L17102380 25174654
" />
<path d="M17102380 25460369
L16102380 25460369
L16245238 25365130
L16340476 25269892
L16388095 25174654
" />
<path d="M16102380 26365130
L16102380 26460369
L16150000 26555607
L16197619 26603226
L16292857 26650845
L16483333 26698464
L16721428 26698464
L16911904 26650845
L17007142 26603226
L17054761 26555607
L17102380 26460369
L17102380 26365130
L17054761 26269892
L17007142 26222273
L16911904 26174654
L16721428 26127035
L16483333 26127035
L16292857 26174654
L16197619 26222273
L16150000 26269892
L16102380 26365130
" />
<path d="M16197619 27079416
L16150000 27127035
L16102380 27222273
L16102380 27460369
L16150000 27555607
L16197619 27603226
L16292857 27650845
L16388095 27650845
L16530952 27603226
L17102380 27031797
L17102380 27650845
" />
</g><g transform="rotate(-90.000000 130950000.000000 25912750.000000)">
<text x="130950000.000000" y="26412750.000000"
transform="scale(-1 1) translate(-261900000.000000 0)"
textLength="3662143.000000" font-size="1333333.000000" lengthAdjust="spacingAndGlyphs"
text-anchor="middle" opacity="0">D108</text>
</g>
<g class="stroked-text"><desc>D108</desc>
<path d="M131402380 24222273
L130402380 24222273
L130402380 24460369
L130450000 24603226
L130545238 24698464
L130640476 24746083
L130830952 24793702
L130973809 24793702
L131164285 24746083
L131259523 24698464
L131354761 24603226
L131402380 24460369
L131402380 24222273
" />
<path d="M131402380 25746083
L131402380 25174654
" />
<path d="M131402380 25460369
L130402380 25460369
L130545238 25365130
L130640476 25269892
L130688095 25174654
" />
<path d="M130402380 26365130
L130402380 26460369
L130450000 26555607
L130497619 26603226
L130592857 26650845
L130783333 26698464
L131021428 26698464
L131211904 26650845
L131307142 26603226
L131354761 26555607
L131402380 26460369
L131402380 26365130
L131354761 26269892
L131307142 26222273
L131211904 26174654
L131021428 26127035
L130783333 26127035
L130592857 26174654
L130497619 26222273
L130450000 26269892
L130402380 26365130
" />
<path d="M130830952 27269892
L130783333 27174654
L130735714 27127035
L130640476 27079416
L130592857 27079416
L130497619 27127035
L130450000 27174654
L130402380 27269892
L130402380 27460369
L130450000 27555607
L130497619 27603226
L130592857 27650845
L130640476 27650845
L130735714 27603226
L130783333 27555607
L130830952 27460369
L130830952 27269892
L130878571 27174654
L130926190 27127035
L131021428 27079416
L131211904 27079416
L131307142 27127035
L131354761 27174654
L131402380 27269892
L131402380 27460369
L131354761 27555607
L131307142 27603226
L131211904 27650845
L131021428 27650845
L130926190 27603226
L130878571 27555607
L130830952 27460369
" />
</g><g transform="rotate(-90.000000 182387500.000000 63925250.000000)">
<text x="182387500.000000" y="64425250.000000"
transform="scale(-1 1) translate(-364775000.000000 0)"
textLength="3662143.000000" font-size="1333333.000000" lengthAdjust="spacingAndGlyphs"
text-anchor="middle" opacity="0">D310</text>
</g>
<g class="stroked-text"><desc>D310</desc>
<path d="M182839880 62234773
L181839880 62234773
L181839880 62472869
L181887500 62615726
L181982738 62710964
L182077976 62758583
L182268452 62806202
L182411309 62806202
L182601785 62758583
L182697023 62710964
L182792261 62615726
L182839880 62472869
L182839880 62234773
" />
<path d="M181839880 63139535
L181839880 63758583
L182220833 63425250
L182220833 63568107
L182268452 63663345
L182316071 63710964
L182411309 63758583
L182649404 63758583
L182744642 63710964
L182792261 63663345
L182839880 63568107
L182839880 63282392
L182792261 63187154
L182744642 63139535
" />
<path d="M182839880 64710964
L182839880 64139535
" />
<path d="M182839880 64425250
L181839880 64425250
L181982738 64330011
L182077976 64234773
L182125595 64139535
" />
<path d="M181839880 65330011
L181839880 65425250
L181887500 65520488
L181935119 65568107
L182030357 65615726
L182220833 65663345
L182458928 65663345
L182649404 65615726
L182744642 65568107
L182792261 65520488
L182839880 65425250
L182839880 65330011
L182792261 65234773
L182744642 65187154
L182649404 65139535
L182458928 65091916
L182220833 65091916
L182030357 65139535
L181935119 65187154
L181887500 65234773
L181839880 65330011
" />
</g><g transform="rotate(-90.000000 94437500.000000 25912750.000000)">
<text x="94437500.000000" y="26412750.000000"
transform="scale(-1 1) translate(-188875000.000000 0)"
textLength="3662143.000000" font-size="1333333.000000" lengthAdjust="spacingAndGlyphs"
text-anchor="middle" opacity="0">D106</text>
</g>
<g class="stroked-text"><desc>D106</desc>
<path d="M94889880 24222273
L93889880 24222273
L93889880 24460369
L93937500 24603226
L94032738 24698464
L94127976 24746083
L94318452 24793702
L94461309 24793702
L94651785 24746083
L94747023 24698464
L94842261 24603226
L94889880 24460369
L94889880 24222273
" />
<path d="M94889880 25746083
L94889880 25174654
" />
<path d="M94889880 25460369
L93889880 25460369
L94032738 25365130
L94127976 25269892
L94175595 25174654
" />
<path d="M93889880 26365130
L93889880 26460369
L93937500 26555607
L93985119 26603226
L94080357 26650845
L94270833 26698464
L94508928 26698464
L94699404 26650845
L94794642 26603226
L94842261 26555607
L94889880 26460369
L94889880 26365130
L94842261 26269892
L94794642 26222273
L94699404 26174654
L94508928 26127035
L94270833 26127035
L94080357 26174654
L93985119 26222273
L93937500 26269892
L93889880 26365130
" />
<path d="M93889880 27555607
L93889880 27365130
L93937500 27269892
L93985119 27222273
L94127976 27127035
L94318452 27079416
L94699404 27079416
L94794642 27127035
L94842261 27174654
L94889880 27269892
L94889880 27460369
L94842261 27555607
L94794642 27603226
L94699404 27650845
L94461309 27650845
L94366071 27603226
L94318452 27555607
L94270833 27460369
L94270833 27269892
L94318452 27174654
L94366071 27127035
L94461309 27079416
" />
</g><g transform="rotate(-90.000000 69037500.000000 64012750.000000)">
<text x="69037500.000000" y="64512750.000000"
transform="scale(-1 1) translate(-138075000.000000 0)"
textLength="3662143.000000" font-size="1333333.000000" lengthAdjust="spacingAndGlyphs"
text-anchor="middle" opacity="0">D304</text>
</g>
<g class="stroked-text"><desc>D304</desc>
<path d="M69489880 62322273
L68489880 62322273
L68489880 62560369
L68537500 62703226
L68632738 62798464
L68727976 62846083
L68918452 62893702
L69061309 62893702
L69251785 62846083
L69347023 62798464
L69442261 62703226
L69489880 62560369
L69489880 62322273
" />
<path d="M68489880 63227035
L68489880 63846083
L68870833 63512750
L68870833 63655607
L68918452 63750845
L68966071 63798464
L69061309 63846083
L69299404 63846083
L69394642 63798464
L69442261 63750845
L69489880 63655607
L69489880 63369892
L69442261 63274654
L69394642 63227035
" />
<path d="M68489880 64465130
L68489880 64560369
L68537500 64655607
L68585119 64703226
L68680357 64750845
L68870833 64798464
L69108928 64798464
L69299404 64750845
L69394642 64703226
L69442261 64655607
L69489880 64560369
L69489880 64465130
L69442261 64369892
L69394642 64322273
L69299404 64274654
L69108928 64227035
L68870833 64227035
L68680357 64274654
L68585119 64322273
L68537500 64369892
L68489880 64465130
" />
<path d="M68823214 65655607
L69489880 65655607
" />
<path d="M68442261 65417511
L69156547 65179416
L69156547 65798464
" />
</g><g transform="rotate(-90.000000 135712500.000000 44962750.000000)">
<text x="135712500.000000" y="45462750.000000"
transform="scale(-1 1) translate(-271425000.000000 0)"
textLength="3662143.000000" font-size="1333333.000000" lengthAdjust="spacingAndGlyphs"
text-anchor="middle" opacity="0">D208</text>
</g>
<g class="stroked-text"><desc>D208</desc>
<path d="M136164880 43272273
L135164880 43272273
L135164880 43510369
L135212500 43653226
L135307738 43748464
L135402976 43796083
L135593452 43843702
L135736309 43843702
L135926785 43796083
L136022023 43748464
L136117261 43653226
L136164880 43510369
L136164880 43272273
" />
<path d="M135260119 44224654
L135212500 44272273
L135164880 44367511
L135164880 44605607
L135212500 44700845
L135260119 44748464
L135355357 44796083
L135450595 44796083
L135593452 44748464
L136164880 44177035
L136164880 44796083
" />
<path d="M135164880 45415130
L135164880 45510369
L135212500 45605607
L135260119 45653226
L135355357 45700845
L135545833 45748464
L135783928 45748464
L135974404 45700845
L136069642 45653226
L136117261 45605607
L136164880 45510369
L136164880 45415130
L136117261 45319892
L136069642 45272273
L135974404 45224654
L135783928 45177035
L135545833 45177035
L135355357 45224654
L135260119 45272273
L135212500 45319892
L135164880 45415130
" />
<path d="M135593452 46319892
L135545833 46224654
L135498214 46177035
L135402976 46129416
L135355357 46129416
L135260119 46177035
L135212500 46224654
L135164880 46319892
L135164880 46510369
L135212500 46605607
L135260119 46653226
L135355357 46700845
L135402976 46700845
L135498214 46653226
L135545833 46605607
L135593452 46510369
L135593452 46319892
L135641071 46224654
L135688690 46177035
L135783928 46129416
L135974404 46129416
L136069642 46177035
L136117261 46224654
L136164880 46319892
L136164880 46510369
L136117261 46605607
L136069642 46653226
L135974404 46700845
L135783928 46700845
L135688690 46653226
L135641071 46605607
L135593452 46510369
" />
</g><g transform="rotate(-90.000000 107137500.000000 64012750.000000)">
<text x="107137500.000000" y="64512750.000000"
transform="scale(-1 1) translate(-214275000.000000 0)"
textLength="3662143.000000" font-size="1333333.000000" lengthAdjust="spacingAndGlyphs"
text-anchor="middle" opacity="0">D306</text>
</g>
<g class="stroked-text"><desc>D306</desc>
<path d="M107589880 62322273
L106589880 62322273
L106589880 62560369
L106637500 62703226
L106732738 62798464
L106827976 62846083
L107018452 62893702
L107161309 62893702
L107351785 62846083
L107447023 62798464
L107542261 62703226
L107589880 62560369
L107589880 62322273
" />
<path d="M106589880 63227035
L106589880 63846083
L106970833 63512750
L106970833 63655607
L107018452 63750845
L107066071 63798464
L107161309 63846083
L107399404 63846083
L107494642 63798464
L107542261 63750845
L107589880 63655607
L107589880 63369892
L107542261 63274654
L107494642 63227035
" />
<path d="M106589880 64465130
L106589880 64560369
L106637500 64655607
L106685119 64703226
L106780357 64750845
L106970833 64798464
L107208928 64798464
L107399404 64750845
L107494642 64703226
L107542261 64655607
L107589880 64560369
L107589880 64465130
L107542261 64369892
L107494642 64322273
L107399404 64274654
L107208928 64227035
L106970833 64227035
L106780357 64274654
L106685119 64322273
L106637500 64369892
L106589880 64465130
" />
<path d="M106589880 65655607
L106589880 65465130
L106637500 65369892
L106685119 65322273
L106827976 65227035
L107018452 65179416
L107399404 65179416
L107494642 65227035
L107542261 65274654
L107589880 65369892
L107589880 65560369
L107542261 65655607
L107494642 65703226
L107399404 65750845
L107161309 65750845
L107066071 65703226
L107018452 65655607
L106970833 65560369
L106970833 65369892
L107018452 65274654
L107066071 65227035
L107161309 65179416
" />
</g><g transform="rotate(-90.000000 30937500.000000 64012750.000000)">
<text x="30937500.000000" y="64512750.000000"
transform="scale(-1 1) translate(-61875000.000000 0)"
textLength="3662143.000000" font-size="1333333.000000" lengthAdjust="spacingAndGlyphs"
text-anchor="middle" opacity="0">D302</text>
</g>
<g class="stroked-text"><desc>D302</desc>
<path d="M31389880 62322273
L30389880 62322273
L30389880 62560369
L30437500 62703226
L30532738 62798464
L30627976 62846083
L30818452 62893702
L30961309 62893702
L31151785 62846083
L31247023 62798464
L31342261 62703226
L31389880 62560369
L31389880 62322273
" />
<path d="M30389880 63227035
L30389880 63846083
L30770833 63512750
L30770833 63655607
L30818452 63750845
L30866071 63798464
L30961309 63846083
L31199404 63846083
L31294642 63798464
L31342261 63750845
L31389880 63655607
L31389880 63369892
L31342261 63274654
L31294642 63227035
" />
<path d="M30389880 64465130
L30389880 64560369
L30437500 64655607
L30485119 64703226
L30580357 64750845
L30770833 64798464
L31008928 64798464
L31199404 64750845
L31294642 64703226
L31342261 64655607
L31389880 64560369
L31389880 64465130
L31342261 64369892
L31294642 64322273
L31199404 64274654
L31008928 64227035
L30770833 64227035
L30580357 64274654
L30485119 64322273
L30437500 64369892
L30389880 64465130
" />
<path d="M30485119 65179416
L30437500 65227035
L30389880 65322273
L30389880 65560369
L30437500 65655607
L30485119 65703226
L30580357 65750845
L30675595 65750845
L30818452 65703226
L31389880 65131797
L31389880 65750845
" />
</g><g transform="rotate(-90.000000 59512500.000000 44962750.000000)">
<text x="59512500.000000" y="45462750.000000"
transform="scale(-1 1) translate(-119025000.000000 0)"
textLength="3662143.000000" font-size="1333333.000000" lengthAdjust="spacingAndGlyphs"
text-anchor="middle" opacity="0">D204</text>
</g>
<g class="stroked-text"><desc>D204</desc>
<path d="M59964880 43272273
L58964880 43272273
L58964880 43510369
L59012500 43653226
L59107738 43748464
L59202976 43796083
L59393452 43843702
L59536309 43843702
L59726785 43796083
L59822023 43748464
L59917261 43653226
L59964880 43510369
L59964880 43272273
" />
<path d="M59060119 44224654
L59012500 44272273
L58964880 44367511
L58964880 44605607
L59012500 44700845
L59060119 44748464
L59155357 44796083
L59250595 44796083
L59393452 44748464
L59964880 44177035
L59964880 44796083
" />
<path d="M58964880 45415130
L58964880 45510369
L59012500 45605607
L59060119 45653226
L59155357 45700845
L59345833 45748464
L59583928 45748464
L59774404 45700845
L59869642 45653226
L59917261 45605607
L59964880 45510369
L59964880 45415130
L59917261 45319892
L59869642 45272273
L59774404 45224654
L59583928 45177035
L59345833 45177035
L59155357 45224654
L59060119 45272273
L59012500 45319892
L58964880 45415130
" />
<path d="M59298214 46605607
L59964880 46605607
" />
<path d="M58917261 46367511
L59631547 46129416
L59631547 46748464
" />
</g><g transform="rotate(-90.000000 169050000.000000 25912750.000000)">
<text x="169050000.000000" y="26412750.000000"
transform="scale(-1 1) translate(-338100000.000000 0)"
textLength="3662143.000000" font-size="1333333.000000" lengthAdjust="spacingAndGlyphs"
text-anchor="middle" opacity="0">D110</text>
</g>
<g class="stroked-text"><desc>D110</desc>
<path d="M169502380 24222273
L168502380 24222273
L168502380 24460369
L168550000 24603226
L168645238 24698464
L168740476 24746083
L168930952 24793702
L169073809 24793702
L169264285 24746083
L169359523 24698464
L169454761 24603226
L169502380 24460369
L169502380 24222273
" />
<path d="M169502380 25746083
L169502380 25174654
" />
<path d="M169502380 25460369
L168502380 25460369
L168645238 25365130
L168740476 25269892
L168788095 25174654
" />
<path d="M169502380 26698464
L169502380 26127035
" />
<path d="M169502380 26412750
L168502380 26412750
L168645238 26317511
L168740476 26222273
L168788095 26127035
" />
<path d="M168502380 27317511
L168502380 27412750
L168550000 27507988
L168597619 27555607
L168692857 27603226
L168883333 27650845
L169121428 27650845
L169311904 27603226
L169407142 27555607
L169454761 27507988
L169502380 27412750
L169502380 27317511
L169454761 27222273
L169407142 27174654
L169311904 27127035
L169121428 27079416
L168883333 27079416
L168692857 27127035
L168597619 27174654
L168550000 27222273
L168502380 27317511
" />
</g><g transform="rotate(-90.000000 77768750.000000 79975250.000000)">
<text x="77768750.000000" y="80475250.000000"
transform="scale(-1 1) translate(-155537500.000000 0)"
textLength="3662143.000000" font-size="1333333.000000" lengthAdjust="spacingAndGlyphs"
text-anchor="middle" opacity="0">D404</text>
</g>
<g class="stroked-text"><desc>D404</desc>
<path d="M78221130 78284773
L77221130 78284773
L77221130 78522869
L77268750 78665726
L77363988 78760964
L77459226 78808583
L77649702 78856202
L77792559 78856202
L77983035 78808583
L78078273 78760964
L78173511 78665726
L78221130 78522869
L78221130 78284773
" />
<path d="M77554464 79713345
L78221130 79713345
" />
<path d="M77173511 79475250
L77887797 79237154
L77887797 79856202
" />
<path d="M77221130 80427630
L77221130 80522869
L77268750 80618107
L77316369 80665726
L77411607 80713345
L77602083 80760964
L77840178 80760964
L78030654 80713345
L78125892 80665726
L78173511 80618107
L78221130 80522869
L78221130 80427630
L78173511 80332392
L78125892 80284773
L78030654 80237154
L77840178 80189535
L77602083 80189535
L77411607 80237154
L77316369 80284773
L77268750 80332392
L77221130 80427630
" />
<path d="M77554464 81618107
L78221130 81618107
" />
<path d="M77173511 81380011
L77887797 81141916
L77887797 81760964
" />
</g><g transform="rotate(-90.000000 54750000.000000 25912750.000000)">
<text x="54750000.000000" y="26412750.000000"
transform="scale(-1 1) translate(-109500000.000000 0)"
textLength="3662143.000000" font-size="1333333.000000" lengthAdjust="spacingAndGlyphs"
text-anchor="middle" opacity="0">D104</text>
</g>
<g class="stroked-text"><desc>D104</desc>
<path d="M55202380 24222273
L54202380 24222273
L54202380 24460369
L54250000 24603226
L54345238 24698464
L54440476 24746083
L54630952 24793702
L54773809 24793702
L54964285 24746083
L55059523 24698464
L55154761 24603226
L55202380 24460369
L55202380 24222273
" />
<path d="M55202380 25746083
L55202380 25174654
" />
<path d="M55202380 25460369
L54202380 25460369
L54345238 25365130
L54440476 25269892
L54488095 25174654
" />
<path d="M54202380 26365130
L54202380 26460369
L54250000 26555607
L54297619 26603226
L54392857 26650845
L54583333 26698464
L54821428 26698464
L55011904 26650845
L55107142 26603226
L55154761 26555607
L55202380 26460369
L55202380 26365130
L55154761 26269892
L55107142 26222273
L55011904 26174654
L54821428 26127035
L54583333 26127035
L54392857 26174654
L54297619 26222273
L54250000 26269892
L54202380 26365130
" />
<path d="M54535714 27555607
L55202380 27555607
" />
<path d="M54154761 27317511
L54869047 27079416
L54869047 27698464
" />
</g><g transform="rotate(-90.000000 99200000.000000 44962750.000000)">
<text x="99200000.000000" y="45462750.000000"
transform="scale(-1 1) translate(-198400000.000000 0)"
textLength="3662143.000000" font-size="1333333.000000" lengthAdjust="spacingAndGlyphs"
text-anchor="middle" opacity="0">D206</text>
</g>
<g class="stroked-text"><desc>D206</desc>
<path d="M99652380 43272273
L98652380 43272273
L98652380 43510369
L98700000 43653226
L98795238 43748464
L98890476 43796083
L99080952 43843702
L99223809 43843702
L99414285 43796083
L99509523 43748464
L99604761 43653226
L99652380 43510369
L99652380 43272273
" />
<path d="M98747619 44224654
L98700000 44272273
L98652380 44367511
L98652380 44605607
L98700000 44700845
L98747619 44748464
L98842857 44796083
L98938095 44796083
L99080952 44748464
L99652380 44177035
L99652380 44796083
" />
<path d="M98652380 45415130
L98652380 45510369
L98700000 45605607
L98747619 45653226
L98842857 45700845
L99033333 45748464
L99271428 45748464
L99461904 45700845
L99557142 45653226
L99604761 45605607
L99652380 45510369
L99652380 45415130
L99604761 45319892
L99557142 45272273
L99461904 45224654
L99271428 45177035
L99033333 45177035
L98842857 45224654
L98747619 45272273
L98700000 45319892
L98652380 45415130
" />
<path d="M98652380 46605607
L98652380 46415130
L98700000 46319892
L98747619 46272273
L98890476 46177035
L99080952 46129416
L99461904 46129416
L99557142 46177035
L99604761 46224654
L99652380 46319892
L99652380 46510369
L99604761 46605607
L99557142 46653226
L99461904 46700845
L99223809 46700845
L99128571 46653226
L99080952 46605607
L99033333 46510369
L99033333 46319892
L99080952 46224654
L99128571 46177035
L99223809 46129416
" />
</g><g transform="rotate(-90.000000 21412500.000000 79975250.000000)">
<text x="21412500.000000" y="80475250.000000"
transform="scale(-1 1) translate(-42825000.000000 0)"
textLength="3662143.000000" font-size="1333333.000000" lengthAdjust="spacingAndGlyphs"
text-anchor="middle" opacity="0">D402</text>
</g>
<g class="stroked-text"><desc>D402</desc>
<path d="M21864880 78284773
L20864880 78284773
L20864880 78522869
L20912500 78665726
L21007738 78760964
L21102976 78808583
L21293452 78856202
L21436309 78856202
L21626785 78808583
L21722023 78760964
L21817261 78665726
L21864880 78522869
L21864880 78284773
" />
<path d="M21198214 79713345
L21864880 79713345
" />
<path d="M20817261 79475250
L21531547 79237154
L21531547 79856202
" />
<path d="M20864880 80427630
L20864880 80522869
L20912500 80618107
L20960119 80665726
L21055357 80713345
L21245833 80760964
L21483928 80760964
L21674404 80713345
L21769642 80665726
L21817261 80618107
L21864880 80522869
L21864880 80427630
L21817261 80332392
L21769642 80284773
L21674404 80237154
L21483928 80189535
L21245833 80189535
L21055357 80237154
L20960119 80284773
L20912500 80332392
L20864880 80427630
" />
<path d="M20960119 81141916
L20912500 81189535
L20864880 81284773
L20864880 81522869
L20912500 81618107
L20960119 81665726
L21055357 81713345
L21150595 81713345
L21293452 81665726
L21864880 81094297
L21864880 81713345
" />
</g><g transform="rotate(-90.000000 21412500.000000 44962750.000000)">
<text x="21412500.000000" y="45462750.000000"
transform="scale(-1 1) translate(-42825000.000000 0)"
textLength="3662143.000000" font-size="1333333.000000" lengthAdjust="spacingAndGlyphs"
text-anchor="middle" opacity="0">D202</text>
</g>
<g class="stroked-text"><desc>D202</desc>
<path d="M21864880 43272273
L20864880 43272273
L20864880 43510369
L20912500 43653226
L21007738 43748464
L21102976 43796083
L21293452 43843702
L21436309 43843702
L21626785 43796083
L21722023 43748464
L21817261 43653226
L21864880 43510369
L21864880 43272273
" />
<path d="M20960119 44224654
L20912500 44272273
L20864880 44367511
L20864880 44605607
L20912500 44700845
L20960119 44748464
L21055357 44796083
L21150595 44796083
L21293452 44748464
L21864880 44177035
L21864880 44796083
" />
<path d="M20864880 45415130
L20864880 45510369
L20912500 45605607
L20960119 45653226
L21055357 45700845
L21245833 45748464
L21483928 45748464
L21674404 45700845
L21769642 45653226
L21817261 45605607
L21864880 45510369
L21864880 45415130
L21817261 45319892
L21769642 45272273
L21674404 45224654
L21483928 45177035
L21245833 45177035
L21055357 45224654
L20960119 45272273
L20912500 45319892
L20864880 45415130
" />
<path d="M20960119 46129416
L20912500 46177035
L20864880 46272273
L20864880 46510369
L20912500 46605607
L20960119 46653226
L21055357 46700845
L21150595 46700845
L21293452 46653226
L21864880 46081797
L21864880 46700845
" />
</g><g transform="rotate(-90.000000 125393750.000000 79975250.000000)">
<text x="125393750.000000" y="80475250.000000"
transform="scale(-1 1) translate(-250787500.000000 0)"
textLength="3662143.000000" font-size="1333333.000000" lengthAdjust="spacingAndGlyphs"
text-anchor="middle" opacity="0">D410</text>
</g>
<g class="stroked-text"><desc>D410</desc>
<path d="M125846130 78284773
L124846130 78284773
L124846130 78522869
L124893750 78665726
L124988988 78760964
L125084226 78808583
L125274702 78856202
L125417559 78856202
L125608035 78808583
L125703273 78760964
L125798511 78665726
L125846130 78522869
L125846130 78284773
" />
<path d="M125179464 79713345
L125846130 79713345
" />
<path d="M124798511 79475250
L125512797 79237154
L125512797 79856202
" />
<path d="M125846130 80760964
L125846130 80189535
" />
<path d="M125846130 80475250
L124846130 80475250
L124988988 80380011
L125084226 80284773
L125131845 80189535
" />
<path d="M124846130 81380011
L124846130 81475250
L124893750 81570488
L124941369 81618107
L125036607 81665726
L125227083 81713345
L125465178 81713345
L125655654 81665726
L125750892 81618107
L125798511 81570488
L125846130 81475250
L125846130 81380011
L125798511 81284773
L125750892 81237154
L125655654 81189535
L125465178 81141916
L125227083 81141916
L125036607 81189535
L124941369 81237154
L124893750 81284773
L124846130 81380011
" />
</g><g transform="rotate(-90.000000 145237500.000000 64012750.000000)">
<text x="145237500.000000" y="64512750.000000"
transform="scale(-1 1) translate(-290475000.000000 0)"
textLength="3662143.000000" font-size="1333333.000000" lengthAdjust="spacingAndGlyphs"
text-anchor="middle" opacity="0">D308</text>
</g>
<g class="stroked-text"><desc>D308</desc>
<path d="M145689880 62322273
L144689880 62322273
L144689880 62560369
L144737500 62703226
L144832738 62798464
L144927976 62846083
L145118452 62893702
L145261309 62893702
L145451785 62846083
L145547023 62798464
L145642261 62703226
L145689880 62560369
L145689880 62322273
" />
<path d="M144689880 63227035
L144689880 63846083
L145070833 63512750
L145070833 63655607
L145118452 63750845
L145166071 63798464
L145261309 63846083
L145499404 63846083
L145594642 63798464
L145642261 63750845
L145689880 63655607
L145689880 63369892
L145642261 63274654
L145594642 63227035
" />
<path d="M144689880 64465130
L144689880 64560369
L144737500 64655607
L144785119 64703226
L144880357 64750845
L145070833 64798464
L145308928 64798464
L145499404 64750845
L145594642 64703226
L145642261 64655607
L145689880 64560369
L145689880 64465130
L145642261 64369892
L145594642 64322273
L145499404 64274654
L145308928 64227035
L145070833 64227035
L144880357 64274654
L144785119 64322273
L144737500 64369892
L144689880 64465130
" />
<path d="M145118452 65369892
L145070833 65274654
L145023214 65227035
L144927976 65179416
L144880357 65179416
L144785119 65227035
L144737500 65274654
L144689880 65369892
L144689880 65560369
L144737500 65655607
L144785119 65703226
L144880357 65750845
L144927976 65750845
L145023214 65703226
L145070833 65655607
L145118452 65560369
L145118452 65369892
L145166071 65274654
L145213690 65227035
L145308928 65179416
L145499404 65179416
L145594642 65227035
L145642261 65274654
L145689880 65369892
L145689880 65560369
L145642261 65655607
L145594642 65703226
L145499404 65750845
L145308928 65750845
L145213690 65703226
L145166071 65655607
L145118452 65560369
" />
</g></g>
<g style="fill:#840084; fill-opacity:0.0; 
stroke:#840084; stroke-width:381000.000000; stroke-opacity:1; 
stroke-linecap:round; stroke-linejoin:round;">
<path d="M76935000 1624000
L76935000 34644000
" />
<path d="M79475000 6704000
L76935000 6704000
" />
<path d="M94715000 1624000
L76935000 1624000
" />
<path d="M79475000 4164000
L79475000 6704000
" />
<path d="M94715000 34644000
L94715000 1624000
" />
<path d="M79475000 4164000
L76935000 4164000
" />
<path d="M76935000 34644000
L94715000 34644000
" />
</g>
<g style="fill:#840084; fill-opacity:0.0; 
stroke:#840084; stroke-width:150000.000000; stroke-opacity:1; 
stroke-linecap:round; stroke-linejoin:round;">
<path d="M91669635 10653030
L91669635 10853030
" />
<path d="M91669635 10853030
L91769635 10853030
" />
<path d="M91769635 10853030
L91769635 10653030
" />
<path d="M91769635 10653030
L91669635 10653030
" />
</g>
<g style="fill:#840084; fill-opacity:1.0; 
stroke:#840084; stroke-width:150000.000000; stroke-opacity:1; 
stroke-linecap:round; stroke-linejoin:round;">
<path style="fill:#840084; fill-opacity:1.0; 
stroke:#840084; stroke-width:150000.000000; stroke-opacity:1; 
stroke-linecap:round; stroke-linejoin:round;fill-rule:evenodd;"
d="M 91769635.000000,10853030.000000
91669635.000000,10853030.000000
91669635.000000,10653030.000000
91769635.000000,10653030.000000
Z" /> 
</g>
<g style="fill:#840084; fill-opacity:0.0; 
stroke:#840084; stroke-width:150000.000000; stroke-opacity:1; 
stroke-linecap:round; stroke-linejoin:round;">
<path d="M92069635 10053030
L92069635 10853030
" />
<path d="M92069635 10853030
L92169635 10853030
" />
<path d="M92169635 10853030
L92169635 10053030
" />
<path d="M92169635 10053030
L92069635 10053030
" />
</g>
<g style="fill:#840084; fill-opacity:1.0; 
stroke:#840084; stroke-width:150000.000000; stroke-opacity:1; 
stroke-linecap:round; stroke-linejoin:round;">
<path style="fill:#840084; fill-opacity:1.0; 
stroke:#840084; stroke-width:150000.000000; stroke-opacity:1; 
stroke-linecap:round; stroke-linejoin:round;fill-rule:evenodd;"
d="M 92169635.000000,10853030.000000
92069635.000000,10853030.000000
92069635.000000,10053030.000000
92169635.000000,10053030.000000
Z" /> 
</g>
<g style="fill:#840084; fill-opacity:0.0; 
stroke:#840084; stroke-width:150000.000000; stroke-opacity:1; 
stroke-linecap:round; stroke-linejoin:round;">
<path d="M91869635 10453030
L91869635 10553030
" />
<path d="M91869635 10553030
L91969635 10553030
" />
<path d="M91969635 10553030
L91969635 10453030
" />
<path d="M91969635 10453030
L91869635 10453030
" />
</g>
<g style="fill:#840084; fill-opacity:1.0; 
stroke:#840084; stroke-width:150000.000000; stroke-opacity:1; 
stroke-linecap:round; stroke-linejoin:round;">
<path style="fill:#840084; fill-opacity:1.0; 
stroke:#840084; stroke-width:150000.000000; stroke-opacity:1; 
stroke-linecap:round; stroke-linejoin:round;fill-rule:evenodd;"
d="M 91969635.000000,10553030.000000
91869635.000000,10553030.000000
91869635.000000,10453030.000000
91969635.000000,10453030.000000
Z" /> 
</g>
<g style="fill:#840084; fill-opacity:0.0; 
stroke:#840084; stroke-width:150000.000000; stroke-opacity:1; 
stroke-linecap:round; stroke-linejoin:round;">
<path d="M91669635 10053030
L91669635 10353030
" />
<path d="M91669635 10353030
L91769635 10353030
" />
<path d="M91769635 10353030
L91769635 10053030
" />
<path d="M91769635 10053030
L91669635 10053030
" />
</g>
<g style="fill:#840084; fill-opacity:1.0; 
stroke:#840084; stroke-width:150000.000000; stroke-opacity:1; 
stroke-linecap:round; stroke-linejoin:round;">
<path style="fill:#840084; fill-opacity:1.0; 
stroke:#840084; stroke-width:150000.000000; stroke-opacity:1; 
stroke-linecap:round; stroke-linejoin:round;fill-rule:evenodd;"
d="M 91769635.000000,10353030.000000
91669635.000000,10353030.000000
91669635.000000,10053030.000000
91769635.000000,10053030.000000
Z" /> 
</g>
<g style="fill:#840084; fill-opacity:0.0; 
stroke:#840084; stroke-width:150000.000000; stroke-opacity:1; 
stroke-linecap:round; stroke-linejoin:round;">
<path d="M91669635 10053030
L91669635 10153030
" />
<path d="M91669635 10153030
L92169635 10153030
" />
<path d="M92169635 10153030
L92169635 10053030
" />
<path d="M92169635 10053030
L91669635 10053030
" />
</g>
<g style="fill:#840084; fill-opacity:1.0; 
stroke:#840084; stroke-width:150000.000000; stroke-opacity:1; 
stroke-linecap:round; stroke-linejoin:round;">
<path style="fill:#840084; fill-opacity:1.0; 
stroke:#840084; stroke-width:150000.000000; stroke-opacity:1; 
stroke-linecap:round; stroke-linejoin:round;fill-rule:evenodd;"
d="M 92169635.000000,10153030.000000
91669635.000000,10153030.000000
91669635.000000,10053030.000000
92169635.000000,10053030.000000
Z" /> 
</g>
<g style="fill:#840084; fill-opacity:1.0; 
stroke:#840084; stroke-width:120000.000000; stroke-opacity:1; 
stroke-linecap:round; stroke-linejoin:round;">
</g>
<g style="fill:#840084; fill-opacity:0.0; 
stroke:#840084; stroke-width:120000.000000; stroke-opacity:1; 
stroke-linecap:round; stroke-linejoin:round;">
<path d="M103853750 3875250
L96133750 3875250
" />
<path d="M96133750 3875250
L96133750 7775250
" />
<path d="M103333750 7545250
L103333750 7775250
" />
<path d="M97193750 7545250
L96653750 7545250
" />
<path d="M103333750 7545250
L102793750 7545250
" />
<path d="M103853750 3875250
L103853750 7775250
" />
<path d="M96653750 7545250
L96653750 7775250
" />
<path d="M101693750 7545250
L98293750 7545250
" />
<path d="M17570000 26672750
L18500000 26672750
" />
<path d="M17570000 26672750
L17570000 23512750
" />
<path d="M20730000 26672750
L20730000 25212750
" />
<path d="M20730000 26672750
L19800000 26672750
" />
<path d="M131870000 26672750
L132800000 26672750
" />
<path d="M135030000 26672750
L135030000 25212750
" />
<path d="M131870000 26672750
L131870000 23512750
" />
<path d="M135030000 26672750
L134100000 26672750
" />
<path d="M183307500 64685250
L183307500 61525250
" />
<path d="M186467500 64685250
L186467500 63225250
" />
<path d="M186467500 64685250
L185537500 64685250
" />
<path d="M183307500 64685250
L184237500 64685250
" />
<path d="M95357500 26672750
L95357500 23512750
" />
<path d="M95357500 26672750
L96287500 26672750
" />
<path d="M98517500 26672750
L97587500 26672750
" />
<path d="M98517500 26672750
L98517500 25212750
" />
<path d="M73117500 64772750
L72187500 64772750
" />
<path d="M69957500 64772750
L70887500 64772750
" />
<path d="M69957500 64772750
L69957500 61612750
" />
<path d="M73117500 64772750
L73117500 63312750
" />
<path d="M139792500 45722750
L139792500 44262750
" />
<path d="M136632500 45722750
L136632500 42562750
" />
<path d="M139792500 45722750
L138862500 45722750
" />
<path d="M136632500 45722750
L137562500 45722750
" />
<path d="M111217500 64772750
L111217500 63312750
" />
<path d="M108057500 64772750
L108987500 64772750
" />
<path d="M111217500 64772750
L110287500 64772750
" />
<path d="M108057500 64772750
L108057500 61612750
" />
<path d="M31857500 64772750
L31857500 61612750
" />
<path d="M35017500 64772750
L35017500 63312750
" />
<path d="M35017500 64772750
L34087500 64772750
" />
<path d="M31857500 64772750
L32787500 64772750
" />
<path d="M60432500 45722750
L61362500 45722750
" />
<path d="M63592500 45722750
L63592500 44262750
" />
<path d="M63592500 45722750
L62662500 45722750
" />
<path d="M60432500 45722750
L60432500 42562750
" />
<path d="M169970000 26672750
L169970000 23512750
" />
<path d="M169970000 26672750
L170900000 26672750
" />
<path d="M173130000 26672750
L172200000 26672750
" />
<path d="M173130000 26672750
L173130000 25212750
" />
<path d="M78688750 80735250
L79618750 80735250
" />
<path d="M81848750 80735250
L81848750 79275250
" />
<path d="M81848750 80735250
L80918750 80735250
" />
<path d="M78688750 80735250
L78688750 77575250
" />
<path d="M58830000 26672750
L57900000 26672750
" />
<path d="M55670000 26672750
L55670000 23512750
" />
<path d="M58830000 26672750
L58830000 25212750
" />
<path d="M55670000 26672750
L56600000 26672750
" />
<path d="M103280000 45722750
L103280000 44262750
" />
<path d="M103280000 45722750
L102350000 45722750
" />
<path d="M100120000 45722750
L100120000 42562750
" />
<path d="M100120000 45722750
L101050000 45722750
" />
<path d="M22332500 80735250
L23262500 80735250
" />
<path d="M22332500 80735250
L22332500 77575250
" />
<path d="M25492500 80735250
L24562500 80735250
" />
<path d="M25492500 80735250
L25492500 79275250
" />
<path d="M25492500 45722750
L24562500 45722750
" />
<path d="M25492500 45722750
L25492500 44262750
" />
<path d="M22332500 45722750
L23262500 45722750
" />
<path d="M22332500 45722750
L22332500 42562750
" />
<path d="M126313750 80735250
L126313750 77575250
" />
<path d="M126313750 80735250
L127243750 80735250
" />
<path d="M129473750 80735250
L128543750 80735250
" />
<path d="M129473750 80735250
L129473750 79275250
" />
</g>
<g style="fill:#840084; fill-opacity:1.0; 
stroke:#840084; stroke-width:1.000000; stroke-opacity:1; 
stroke-linecap:round; stroke-linejoin:round;">
<path style="fill:#840084; fill-opacity:1.0; 
stroke:#840084; stroke-width:1.000000; stroke-opacity:1; 
stroke-linecap:round; stroke-linejoin:round;fill-rule:evenodd;"
d="M 30541690.000000,79336166.000000
29675492.000000,79336166.000000
29675492.000000,76765625.000000
30541690.000000,76765625.000000
Z" /> 
<path style="fill:#840084; fill-opacity:1.0; 
stroke:#840084; stroke-width:1.000000; stroke-opacity:1; 
stroke-linecap:round; stroke-linejoin:round;fill-rule:evenodd;"
d="M 27968571.000000,81906707.000000
27968571.000000,81041376.000000
28809293.000000,81041376.000000
31382412.000000,81041376.000000
31382412.000000,80176045.000000
30541690.000000,80176045.000000
30541690.000000,79336166.000000
31382412.000000,79336166.000000
31382412.000000,75060414.000000
28809293.000000,75060414.000000
28809293.000000,75900294.000000
29675492.000000,75900294.000000
29675492.000000,76765625.000000
28809293.000000,76765625.000000
28809293.000000,81041376.000000
27968571.000000,81041376.000000
27102372.000000,81041376.000000
27102372.000000,75060414.000000
27968571.000000,75060414.000000
27968571.000000,74195084.000000
32248611.000000,74195084.000000
32248611.000000,75060414.000000
33114810.000000,75060414.000000
33114810.000000,81041376.000000
32248611.000000,81041376.000000
32248611.000000,81906707.000000
Z" /> 
<path style="fill:#840084; fill-opacity:1.0; 
stroke:#840084; stroke-width:1.000000; stroke-opacity:1; 
stroke-linecap:round; stroke-linejoin:round;fill-rule:evenodd;"
d="M 36528651.000000,75060414.000000
37394850.000000,75060414.000000
37394850.000000,75900294.000000
39101770.000000,75900294.000000
39101770.000000,76765625.000000
37394850.000000,76765625.000000
37394850.000000,81041376.000000
39101770.000000,81041376.000000
39101770.000000,81906707.000000
33955532.000000,81906707.000000
33955532.000000,81041376.000000
35687929.000000,81041376.000000
35687929.000000,74195084.000000
36528651.000000,74195084.000000
Z" /> 
<path style="fill:#840084; fill-opacity:1.0; 
stroke:#840084; stroke-width:1.000000; stroke-opacity:1; 
stroke-linecap:round; stroke-linejoin:round;fill-rule:evenodd;"
d="M 42541088.000000,81041376.000000
41674890.000000,81041376.000000
41674890.000000,81906707.000000
39967969.000000,81906707.000000
39967969.000000,81041376.000000
40808691.000000,81041376.000000
40808691.000000,76765625.000000
42541088.000000,76765625.000000
Z" /> 
<path style="fill:#840084; fill-opacity:1.0; 
stroke:#840084; stroke-width:1.000000; stroke-opacity:1; 
stroke-linecap:round; stroke-linejoin:round;fill-rule:evenodd;"
d="M 45954930.000000,82746587.000000
46821128.000000,82746587.000000
46821128.000000,83611917.000000
45114208.000000,83611917.000000
45114208.000000,82746587.000000
44248009.000000,82746587.000000
44248009.000000,81906707.000000
42541088.000000,81906707.000000
42541088.000000,81041376.000000
44248009.000000,81041376.000000
44248009.000000,76765625.000000
45954930.000000,76765625.000000
Z" /> 
</g>
<g style="fill:#840084; fill-opacity:1.0; 
stroke:#840084; stroke-width:120000.000000; stroke-opacity:1; 
stroke-linecap:round; stroke-linejoin:round;">
</g>
<g style="fill:#840084; fill-opacity:0.0; 
stroke:#840084; stroke-width:120000.000000; stroke-opacity:1; 
stroke-linecap:round; stroke-linejoin:round;">
<path d="M149317500 64772750
L148387500 64772750
" />
<path d="M149317500 64772750
L149317500 63312750
" />
<path d="M146157500 64772750
L146157500 61612750
" />
<path d="M146157500 64772750
L147087500 64772750
" />
<g >
</g>
<g style="fill:#000000; fill-opacity:0.0; 
stroke:#000000; stroke-width:120000.000000; stroke-opacity:1; 
stroke-linecap:round; stroke-linejoin:round;">
</g>
<g style="fill:#000000; fill-opacity:0.0; 
stroke:#000000; stroke-width:1.000000; stroke-opacity:1; 
stroke-linecap:round; stroke-linejoin:round;">
</g>
<g style="fill:#000000; fill-opacity:1.0; 
stroke:#000000; stroke-width:1.000000; stroke-opacity:1; 
stroke-linecap:round; stroke-linejoin:round;">
<path style="fill:#000000; fill-opacity:1.0; 
stroke:#000000; stroke-width:1.000000; stroke-opacity:1; 
stroke-linecap:round; stroke-linejoin:round;fill-rule:evenodd;"
d="M 77328701.000000,4557701.000000
79081299.000000,4557701.000000
79081299.000000,6310299.000000
77328701.000000,6310299.000000
Z" /> 
<circle cx="78205000.000000" cy="7974000.000000" r="876300.000000" /> 
</g>
<g style="fill:#000000; fill-opacity:1.0; 
stroke:#000000; stroke-width:21200.000000; stroke-opacity:1; 
stroke-linecap:round; stroke-linejoin:round;">
</g>
<g style="fill:#000000; fill-opacity:1.0; 
stroke:#000000; stroke-width:1.000000; stroke-opacity:1; 
stroke-linecap:round; stroke-linejoin:round;">
<circle cx="78205000.000000" cy="10514000.000000" r="876300.000000" /> 
</g>
<g style="fill:#000000; fill-opacity:1.0; 
stroke:#000000; stroke-width:21200.000000; stroke-opacity:1; 
stroke-linecap:round; stroke-linejoin:round;">
</g>
<g style="fill:#000000; fill-opacity:1.0; 
stroke:#000000; stroke-width:1.000000; stroke-opacity:1; 
stroke-linecap:round; stroke-linejoin:round;">
<circle cx="78205000.000000" cy="13054000.000000" r="876300.000000" /> 
</g>
<g style="fill:#000000; fill-opacity:1.0; 
stroke:#000000; stroke-width:21200.000000; stroke-opacity:1; 
stroke-linecap:round; stroke-linejoin:round;">
</g>
<g style="fill:#000000; fill-opacity:1.0; 
stroke:#000000; stroke-width:1.000000; stroke-opacity:1; 
stroke-linecap:round; stroke-linejoin:round;">
<circle cx="78205000.000000" cy="15594000.000000" r="876300.000000" /> 
</g>
<g style="fill:#000000; fill-opacity:1.0; 
stroke:#000000; stroke-width:21200.000000; stroke-opacity:1; 
stroke-linecap:round; stroke-linejoin:round;">
</g>
<g style="fill:#000000; fill-opacity:1.0; 
stroke:#000000; stroke-width:1.000000; stroke-opacity:1; 
stroke-linecap:round; stroke-linejoin:round;">
<circle cx="78205000.000000" cy="18134000.000000" r="876300.000000" /> 
</g>
<g style="fill:#000000; fill-opacity:1.0; 
stroke:#000000; stroke-width:21200.000000; stroke-opacity:1; 
stroke-linecap:round; stroke-linejoin:round;">
</g>
<g style="fill:#000000; fill-opacity:1.0; 
stroke:#000000; stroke-width:1.000000; stroke-opacity:1; 
stroke-linecap:round; stroke-linejoin:round;">
<circle cx="78205000.000000" cy="20674000.000000" r="876300.000000" /> 
</g>
<g style="fill:#000000; fill-opacity:1.0; 
stroke:#000000; stroke-width:21200.000000; stroke-opacity:1; 
stroke-linecap:round; stroke-linejoin:round;">
</g>
<g style="fill:#000000; fill-opacity:1.0; 
stroke:#000000; stroke-width:1.000000; stroke-opacity:1; 
stroke-linecap:round; stroke-linejoin:round;">
<circle cx="78205000.000000" cy="23214000.000000" r="876300.000000" /> 
</g>
<g style="fill:#000000; fill-opacity:1.0; 
stroke:#000000; stroke-width:21200.000000; stroke-opacity:1; 
stroke-linecap:round; stroke-linejoin:round;">
</g>
<g style="fill:#000000; fill-opacity:1.0; 
stroke:#000000; stroke-width:1.000000; stroke-opacity:1; 
stroke-linecap:round; stroke-linejoin:round;">
<circle cx="78205000.000000" cy="25754000.000000" r="876300.000000" /> 
</g>
<g style="fill:#000000; fill-opacity:1.0; 
stroke:#000000; stroke-width:21200.000000; stroke-opacity:1; 
stroke-linecap:round; stroke-linejoin:round;">
</g>
<g style="fill:#000000; fill-opacity:1.0; 
stroke:#000000; stroke-width:1.000000; stroke-opacity:1; 
stroke-linecap:round; stroke-linejoin:round;">
<circle cx="78205000.000000" cy="28294000.000000" r="876300.000000" /> 
</g>
<g style="fill:#000000; fill-opacity:1.0; 
stroke:#000000; stroke-width:21200.000000; stroke-opacity:1; 
stroke-linecap:round; stroke-linejoin:round;">
</g>
<g style="fill:#000000; fill-opacity:1.0; 
stroke:#000000; stroke-width:1.000000; stroke-opacity:1; 
stroke-linecap:round; stroke-linejoin:round;">
<circle cx="78205000.000000" cy="30834000.000000" r="876300.000000" /> 
</g>
<g style="fill:#000000; fill-opacity:1.0; 
stroke:#000000; stroke-width:21200.000000; stroke-opacity:1; 
stroke-linecap:round; stroke-linejoin:round;">
</g>
<g style="fill:#000000; fill-opacity:1.0; 
stroke:#000000; stroke-width:1.000000; stroke-opacity:1; 
stroke-linecap:round; stroke-linejoin:round;">
<circle cx="78205000.000000" cy="33374000.000000" r="876300.000000" /> 
</g>
<g style="fill:#000000; fill-opacity:1.0; 
stroke:#000000; stroke-width:21200.000000; stroke-opacity:1; 
stroke-linecap:round; stroke-linejoin:round;">
</g>
<g style="fill:#000000; fill-opacity:1.0; 
stroke:#000000; stroke-width:1.000000; stroke-opacity:1; 
stroke-linecap:round; stroke-linejoin:round;">
<circle cx="93445000.000000" cy="33374000.000000" r="876300.000000" /> 
</g>
<g style="fill:#000000; fill-opacity:1.0; 
stroke:#000000; stroke-width:21200.000000; stroke-opacity:1; 
stroke-linecap:round; stroke-linejoin:round;">
</g>
<g style="fill:#000000; fill-opacity:1.0; 
stroke:#000000; stroke-width:1.000000; stroke-opacity:1; 
stroke-linecap:round; stroke-linejoin:round;">
<circle cx="93445000.000000" cy="30834000.000000" r="876300.000000" /> 
</g>
<g style="fill:#000000; fill-opacity:1.0; 
stroke:#000000; stroke-width:21200.000000; stroke-opacity:1; 
stroke-linecap:round; stroke-linejoin:round;">
</g>
<g style="fill:#000000; fill-opacity:1.0; 
stroke:#000000; stroke-width:1.000000; stroke-opacity:1; 
stroke-linecap:round; stroke-linejoin:round;">
<circle cx="93445000.000000" cy="28294000.000000" r="876300.000000" /> 
</g>
<g style="fill:#000000; fill-opacity:1.0; 
stroke:#000000; stroke-width:21200.000000; stroke-opacity:1; 
stroke-linecap:round; stroke-linejoin:round;">
</g>
<g style="fill:#000000; fill-opacity:1.0; 
stroke:#000000; stroke-width:1.000000; stroke-opacity:1; 
stroke-linecap:round; stroke-linejoin:round;">
<circle cx="93445000.000000" cy="25754000.000000" r="876300.000000" /> 
</g>
<g style="fill:#000000; fill-opacity:1.0; 
stroke:#000000; stroke-width:21200.000000; stroke-opacity:1; 
stroke-linecap:round; stroke-linejoin:round;">
</g>
<g style="fill:#000000; fill-opacity:1.0; 
stroke:#000000; stroke-width:1.000000; stroke-opacity:1; 
stroke-linecap:round; stroke-linejoin:round;">
<circle cx="93445000.000000" cy="23214000.000000" r="876300.000000" /> 
</g>
<g style="fill:#000000; fill-opacity:1.0; 
stroke:#000000; stroke-width:21200.000000; stroke-opacity:1; 
stroke-linecap:round; stroke-linejoin:round;">
</g>
<g style="fill:#000000; fill-opacity:1.0; 
stroke:#000000; stroke-width:1.000000; stroke-opacity:1; 
stroke-linecap:round; stroke-linejoin:round;">
<circle cx="93445000.000000" cy="20674000.000000" r="876300.000000" /> 
</g>
<g style="fill:#000000; fill-opacity:1.0; 
stroke:#000000; stroke-width:21200.000000; stroke-opacity:1; 
stroke-linecap:round; stroke-linejoin:round;">
</g>
<g style="fill:#000000; fill-opacity:1.0; 
stroke:#000000; stroke-width:1.000000; stroke-opacity:1; 
stroke-linecap:round; stroke-linejoin:round;">
<circle cx="93445000.000000" cy="18134000.000000" r="876300.000000" /> 
</g>
<g style="fill:#000000; fill-opacity:1.0; 
stroke:#000000; stroke-width:21200.000000; stroke-opacity:1; 
stroke-linecap:round; stroke-linejoin:round;">
</g>
<g style="fill:#000000; fill-opacity:1.0; 
stroke:#000000; stroke-width:1.000000; stroke-opacity:1; 
stroke-linecap:round; stroke-linejoin:round;">
<circle cx="93445000.000000" cy="15594000.000000" r="876300.000000" /> 
</g>
<g style="fill:#000000; fill-opacity:1.0; 
stroke:#000000; stroke-width:21200.000000; stroke-opacity:1; 
stroke-linecap:round; stroke-linejoin:round;">
</g>
<g style="fill:#000000; fill-opacity:1.0; 
stroke:#000000; stroke-width:1.000000; stroke-opacity:1; 
stroke-linecap:round; stroke-linejoin:round;">
<circle cx="93445000.000000" cy="13054000.000000" r="876300.000000" /> 
</g>
<g style="fill:#000000; fill-opacity:1.0; 
stroke:#000000; stroke-width:21200.000000; stroke-opacity:1; 
stroke-linecap:round; stroke-linejoin:round;">
</g>
<g style="fill:#000000; fill-opacity:1.0; 
stroke:#000000; stroke-width:1.000000; stroke-opacity:1; 
stroke-linecap:round; stroke-linejoin:round;">
<circle cx="93445000.000000" cy="10514000.000000" r="876300.000000" /> 
</g>
<g style="fill:#000000; fill-opacity:1.0; 
stroke:#000000; stroke-width:21200.000000; stroke-opacity:1; 
stroke-linecap:round; stroke-linejoin:round;">
</g>
<g style="fill:#000000; fill-opacity:1.0; 
stroke:#000000; stroke-width:1.000000; stroke-opacity:1; 
stroke-linecap:round; stroke-linejoin:round;">
<circle cx="93445000.000000" cy="7974000.000000" r="876300.000000" /> 
</g>
<g style="fill:#000000; fill-opacity:1.0; 
stroke:#000000; stroke-width:21200.000000; stroke-opacity:1; 
stroke-linecap:round; stroke-linejoin:round;">
</g>
<g style="fill:#000000; fill-opacity:1.0; 
stroke:#000000; stroke-width:1.000000; stroke-opacity:1; 
stroke-linecap:round; stroke-linejoin:round;">
<circle cx="93445000.000000" cy="5434000.000000" r="876300.000000" /> 
</g>
<g style="fill:#000000; fill-opacity:1.0; 
stroke:#000000; stroke-width:21200.000000; stroke-opacity:1; 
stroke-linecap:round; stroke-linejoin:round;">
</g>
<g style="fill:#000000; fill-opacity:1.0; 
stroke:#000000; stroke-width:1.000000; stroke-opacity:1; 
stroke-linecap:round; stroke-linejoin:round;">
<circle cx="80745000.000000" cy="33374000.000000" r="876300.000000" /> 
</g>
<g style="fill:#000000; fill-opacity:1.0; 
stroke:#000000; stroke-width:21200.000000; stroke-opacity:1; 
stroke-linecap:round; stroke-linejoin:round;">
</g>
<g style="fill:#000000; fill-opacity:1.0; 
stroke:#000000; stroke-width:1.000000; stroke-opacity:1; 
stroke-linecap:round; stroke-linejoin:round;">
<circle cx="83285000.000000" cy="33374000.000000" r="876300.000000" /> 
</g>
<g style="fill:#000000; fill-opacity:1.0; 
stroke:#000000; stroke-width:21200.000000; stroke-opacity:1; 
stroke-linecap:round; stroke-linejoin:round;">
</g>
<g style="fill:#000000; fill-opacity:1.0; 
stroke:#000000; stroke-width:1.000000; stroke-opacity:1; 
stroke-linecap:round; stroke-linejoin:round;">
<circle cx="85825000.000000" cy="33374000.000000" r="876300.000000" /> 
</g>
<g style="fill:#000000; fill-opacity:1.0; 
stroke:#000000; stroke-width:21200.000000; stroke-opacity:1; 
stroke-linecap:round; stroke-linejoin:round;">
</g>
<g style="fill:#000000; fill-opacity:1.0; 
stroke:#000000; stroke-width:1.000000; stroke-opacity:1; 
stroke-linecap:round; stroke-linejoin:round;">
<circle cx="88365000.000000" cy="33374000.000000" r="876300.000000" /> 
</g>
<g style="fill:#000000; fill-opacity:1.0; 
stroke:#000000; stroke-width:21200.000000; stroke-opacity:1; 
stroke-linecap:round; stroke-linejoin:round;">
</g>
<g style="fill:#000000; fill-opacity:1.0; 
stroke:#000000; stroke-width:1.000000; stroke-opacity:1; 
stroke-linecap:round; stroke-linejoin:round;">
<circle cx="90905000.000000" cy="33374000.000000" r="876300.000000" /> 
</g>
<g style="fill:#000000; fill-opacity:1.0; 
stroke:#000000; stroke-width:21200.000000; stroke-opacity:1; 
stroke-linecap:round; stroke-linejoin:round;">
</g>
<g >
</g>
<g >
</g>
<g >
</g>
<g >
</g>
<g >
</g>
<g >
</g>
<g >
</g>
<g >
</g>
<g >
</g>
<g >
</g>
<g >
</g>
<g >
</g>
<g >
</g>
<g >
</g>
<g >
</g>
<g >
</g>
<g >
</g>
<g >
</g>
<g >
</g>
<g >
</g>
<g >
</g>
<g >
</g>
<g >
</g>
<g >
</g>
<g >
</g>
<g >
</g>
<g >
</g>
<g >
</g>
<g >
</g>
<g >
</g>
<g >
</g>
<g >
</g>
<g >
</g>
<g >
</g>
<g >
</g>
<g >
</g>
<g >
</g>
<g >
</g>
<g >
</g>
<g >
</g>
<g >
</g>
<g >
</g>
<g >
</g>
<g >
</g>
<g >
</g>
<g >
</g>
<g >
</g>
<g >
</g>
<g >
</g>
<g >
</g>
<g >
</g>
<g >
</g>
<g >
</g>
<g >
</g>
<g >
</g>
<g >
</g>
<g >
</g>
<g >
</g>
<g >
</g>
</g>
<g style="fill:#000000; fill-opacity:1.0; 
stroke:#000000; stroke-width:21200.000000; stroke-opacity:1; 
stroke-linecap:round; stroke-linejoin:round;">
</g>
<g style="fill:#C2C200; fill-opacity:1.0; 
stroke:#C2C200; stroke-width:21200.000000; stroke-opacity:1; 
stroke-linecap:round; stroke-linejoin:round;">
</g>
<g style="fill:#C2C200; fill-opacity:1.0; 
stroke:#C2C200; stroke-width:200000.000000; stroke-opacity:1; 
stroke-linecap:round; stroke-linejoin:round;">
</g>
<g style="fill:#C2C200; fill-opacity:0.0; 
stroke:#C2C200; stroke-width:200000.000000; stroke-opacity:1; 
stroke-linecap:round; stroke-linejoin:round;">
<path d="M1687500 88619000
L83114968 88619000
" />
<path d="M75506250 5275250
L75506250 10831500
" />
<path d="M105668750 10831500
L105668750 5275250
" />
<path d="M84702468.000000 90206500.000000 A793750.000000 793750.000000 0.0 0 0 85496218.000000 91000250.000000" />
<path d="M189012500 12419000
L107256250 12419000
" />
<path d="M84702468.000000 90206500.000000 A1587500.000000 1587500.000000 0.0 0 0 83114968.000000 88619000.000000" />
<path d="M105668750.000000 91000250.000000 A793750.000000 793750.000000 0.0 0 0 106462500.000000 90206500.000000" />
<path d="M77093750.000000 3687750.000000 A1587500.000000 1587500.000000 0.0 0 0 75506250.000000 5275250.000000" />
<path d="M190600000 14006500
L190600000 87031500
" />
<path d="M105668750.000000 5275250.000000 A1587500.000000 1587500.000000 0.0 0 0 104081250.000000 3687750.000000" />
<path d="M108050000.000000 88619000.000000 A1587500.000000 1587500.000000 0.0 0 0 106462500.000000 90206500.000000" />
<path d="M73918750.000000 12419000.000000 A1587500.000000 1587500.000000 0.0 0 0 75506250.000000 10831500.000000" />
<path d="M73918750 12419000
L1687500 12419000
" />
<path d="M85496218 91000250
L105668750 91000250
" />
<path d="M100000 14006500
L100000 87031500
" />
<path d="M189012500.000000 88619000.000000 A1587500.000000 1587500.000000 0.0 0 0 190600000.000000 87031500.000000" />
<path d="M108050000 88619000
L189012500 88619000
" />
<path d="M100000.000000 87031500.000000 A1587500.000000 1587500.000000 0.0 0 0 1687500.000000 88619000.000000" />
<path d="M1687500.000000 12419000.000000 A1587500.000000 1587500.000000 0.0 0 0 100000.000000 14006500.000000" />
<path d="M104081250 3687750
L77093750 3687750
" />
<path d="M190600000.000000 14006500.000000 A1587500.000000 1587500.000000 0.0 0 0 189012500.000000 12419000.000000" />
<path d="M105668750.000000 10831500.000000 A1587500.000000 1587500.000000 0.0 0 0 107256250.000000 12419000.000000" />
<g >
</g>
<g >
</g>
<g >
</g>
<g >
</g>
<g >
</g>
<g >
</g>
<g >
</g>
<g >
</g>
<g >
</g>
<g >
</g>
<g >
</g>
<g >
</g>
<g >
</g>
<g >
</g>
<g >
</g>
<g >
</g>
<g >
</g>
<g >
</g>
<g >
</g>
<g >
</g>
<g >
</g>
<g >
</g>
<g >
</g>
<g >
</g>
<g >
</g>
<g >
</g>
<g >
</g>
<g >
</g>
<g >
</g>
<g >
</g>
<g >
</g>
<g >
</g>
<g >
</g>
<g >
</g>
<g >
</g>
<g >
</g>
<g >
</g>
<g >
</g>
<g >
</g>
<g >
</g>
<g >
</g>
<g >
</g>
<g >
</g>
<g >
</g>
<g >
</g>
<g >
</g>
<g >
</g>
<g >
</g>
<g >
</g>
<g >
</g>
<g >
</g>
<g >
</g>
<g >
</g>
<g >
</g>
<g >
</g>
<g >
</g>
<g >
</g>
<g >
</g>
<g >
</g>
<g >
</g>
</g> 
</svg>
