<?xml version="1.0" standalone="no"?>
 <!DOCTYPE svg PUBLIC "-//W3C//DTD SVG 1.1//EN" 
 "http://www.w3.org/Graphics/SVG/1.1/DTD/svg11.dtd"> 
<svg
  xmlns:svg="http://www.w3.org/2000/svg"
  xmlns="http://www.w3.org/2000/svg"
  xmlns:xlink="http://www.w3.org/1999/xlink"
  version="1.1"
  width="2.153920cm" height="6.007100cm" viewBox="0 0 21539200 60071000">
<title>SVG Picture created as daughterboard-brd.svg date 2022/04/02 06:23:36 </title>
  <desc>Picture generated by PCBNEW </desc>
<g style="fill:#000000; fill-opacity:1.000000;stroke:#000000; stroke-opacity:1.000000;
stroke-linecap:round; stroke-linejoin:round;"
 transform="translate(0 0) scale(1 1)">
</g>
<g style="fill:#000000; fill-opacity:0.0; 
stroke:#000000; stroke-width:0.000000; stroke-opacity:1; 
stroke-linecap:round; stroke-linejoin:round;">
</g>
<g style="fill:#C2C2C2; fill-opacity:0.0; 
stroke:#C2C2C2; stroke-width:0.000000; stroke-opacity:1; 
stroke-linecap:round; stroke-linejoin:round;">
</g>
<g style="fill:#C2C2C2; fill-opacity:0.0; 
stroke:#C2C2C2; stroke-width:120000.000000; stroke-opacity:1; 
stroke-linecap:round; stroke-linejoin:round;">
<path d="M16812000 38134500
L16812000 85500
" />
<path d="M4772000 38134500
L4772000 85500
" />
<path d="M4772000 85500
L16812000 85500
" />
<path d="M4772000 38134500
L16812000 38134500
" />
</g>
<g style="fill:#C2C2C2; fill-opacity:0.0; 
stroke:#C2C2C2; stroke-width:50000.000000; stroke-opacity:1; 
stroke-linecap:round; stroke-linejoin:round;">
<path d="M3692000 57967000
L17892000 57967000
" />
<path d="M3692000 57967000
L3692000 40467000
" />
<path d="M17892000 40467000
L17892000 57967000
" />
<path d="M17892000 40467000
L3692000 40467000
" />
<path d="M21467000 35777000
L21467000 32177000
" />
<path d="M21467000 32177000
L117000 32177000
" />
<path d="M117000 32177000
L117000 35777000
" />
<path d="M117000 35777000
L21467000 35777000
" />
<g >
</g>
<g >
</g>
<g >
</g>
<g >
</g>
<g >
</g>
<g >
</g>
<g >
</g>
</g>
<g style="fill:#000000; fill-opacity:0.0; 
stroke:#000000; stroke-width:50000.000000; stroke-opacity:1; 
stroke-linecap:round; stroke-linejoin:round;">
</g>
<g style="fill:#848484; fill-opacity:0.0; 
stroke:#848484; stroke-width:50000.000000; stroke-opacity:1; 
stroke-linecap:round; stroke-linejoin:round;">
</g>
<g style="fill:#848484; fill-opacity:0.0; 
stroke:#848484; stroke-width:150000.000000; stroke-opacity:1; 
stroke-linecap:round; stroke-linejoin:round;">
<g transform="rotate(-90.000000 9776000.000000 19110000.000000)">
<text x="9776000.000000" y="19610000.000000"
textLength="1714287.000000" font-size="1333333.000000" lengthAdjust="spacingAndGlyphs"
text-anchor="middle" opacity="0">J2</text>
</g>
<g class="stroked-text"><desc>J2</desc>
<path d="M9228380 19443333
L9942666 19443333
L10085523 19490952
L10180761 19586190
L10228380 19729047
L10228380 19824285
" />
<path d="M9323619 19014761
L9276000 18967142
L9228380 18871904
L9228380 18633809
L9276000 18538571
L9323619 18490952
L9418857 18443333
L9514095 18443333
L9656952 18490952
L10228380 19062380
L10228380 18443333
" />
</g><g transform="rotate(-90.000000 12570000.000000 19110000.000000)">
<text x="12570000.000000" y="19610000.000000"
textLength="3956905.000000" font-size="1333333.000000" lengthAdjust="spacingAndGlyphs"
text-anchor="middle" opacity="0">OLED</text>
</g>
<g class="stroked-text"><desc>OLED</desc>
<path d="M12022380 20562380
L12022380 20371904
L12070000 20276666
L12165238 20181428
L12355714 20133809
L12689047 20133809
L12879523 20181428
L12974761 20276666
L13022380 20371904
L13022380 20562380
L12974761 20657619
L12879523 20752857
L12689047 20800476
L12355714 20800476
L12165238 20752857
L12070000 20657619
L12022380 20562380
" />
<path d="M13022380 19229047
L13022380 19705238
L12022380 19705238
" />
<path d="M12498571 18895714
L12498571 18562380
" />
<path d="M13022380 18419523
L13022380 18895714
L12022380 18895714
L12022380 18419523
" />
<path d="M13022380 17990952
L12022380 17990952
L12022380 17752857
L12070000 17610000
L12165238 17514761
L12260476 17467142
L12450952 17419523
L12593809 17419523
L12784285 17467142
L12879523 17514761
L12974761 17610000
L13022380 17752857
L13022380 17990952
" />
</g><g transform="rotate(-90.000000 2892000.000000 49467000.000000)">
<text x="2892000.000000" y="49967000.000000"
textLength="17242619.000000" font-size="1333333.000000" lengthAdjust="spacingAndGlyphs"
text-anchor="middle" opacity="0">Rotary_Encoder_Switch</text>
</g>
<g class="stroked-text"><desc>Rotary_Encoder_Switch</desc>
<path d="M3344380 57181285
L2868190 57514619
" />
<path d="M3344380 57752714
L2344380 57752714
L2344380 57371761
L2392000 57276523
L2439619 57228904
L2534857 57181285
L2677714 57181285
L2772952 57228904
L2820571 57276523
L2868190 57371761
L2868190 57752714
" />
<path d="M3344380 56609857
L3296761 56705095
L3249142 56752714
L3153904 56800333
L2868190 56800333
L2772952 56752714
L2725333 56705095
L2677714 56609857
L2677714 56467000
L2725333 56371761
L2772952 56324142
L2868190 56276523
L3153904 56276523
L3249142 56324142
L3296761 56371761
L3344380 56467000
L3344380 56609857
" />
<path d="M2677714 55990809
L2677714 55609857
" />
<path d="M2344380 55847952
L3201523 55847952
L3296761 55800333
L3344380 55705095
L3344380 55609857
" />
<path d="M3344380 54847952
L2820571 54847952
L2725333 54895571
L2677714 54990809
L2677714 55181285
L2725333 55276523
" />
<path d="M3296761 54847952
L3344380 54943190
L3344380 55181285
L3296761 55276523
L3201523 55324142
L3106285 55324142
L3011047 55276523
L2963428 55181285
L2963428 54943190
L2915809 54847952
" />
<path d="M3344380 54371761
L2677714 54371761
" />
<path d="M2868190 54371761
L2772952 54324142
L2725333 54276523
L2677714 54181285
L2677714 54086047
" />
<path d="M2677714 53847952
L3344380 53609857
" />
<path d="M2677714 53371761
L3344380 53609857
L3582476 53705095
L3630095 53752714
L3677714 53847952
" />
<path d="M3439619 53228904
L3439619 52467000
" />
<path d="M2820571 52228904
L2820571 51895571
" />
<path d="M3344380 51752714
L3344380 52228904
L2344380 52228904
L2344380 51752714
" />
<path d="M2677714 51324142
L3344380 51324142
" />
<path d="M2772952 51324142
L2725333 51276523
L2677714 51181285
L2677714 51038428
L2725333 50943190
L2820571 50895571
L3344380 50895571
" />
<path d="M3296761 49990809
L3344380 50086047
L3344380 50276523
L3296761 50371761
L3249142 50419380
L3153904 50467000
L2868190 50467000
L2772952 50419380
L2725333 50371761
L2677714 50276523
L2677714 50086047
L2725333 49990809
" />
<path d="M3344380 49419380
L3296761 49514619
L3249142 49562238
L3153904 49609857
L2868190 49609857
L2772952 49562238
L2725333 49514619
L2677714 49419380
L2677714 49276523
L2725333 49181285
L2772952 49133666
L2868190 49086047
L3153904 49086047
L3249142 49133666
L3296761 49181285
L3344380 49276523
L3344380 49419380
" />
<path d="M3344380 48228904
L2344380 48228904
" />
<path d="M3296761 48228904
L3344380 48324142
L3344380 48514619
L3296761 48609857
L3249142 48657476
L3153904 48705095
L2868190 48705095
L2772952 48657476
L2725333 48609857
L2677714 48514619
L2677714 48324142
L2725333 48228904
" />
<path d="M3296761 47371761
L3344380 47467000
L3344380 47657476
L3296761 47752714
L3201523 47800333
L2820571 47800333
L2725333 47752714
L2677714 47657476
L2677714 47467000
L2725333 47371761
L2820571 47324142
L2915809 47324142
L3011047 47800333
" />
<path d="M3344380 46895571
L2677714 46895571
" />
<path d="M2868190 46895571
L2772952 46847952
L2725333 46800333
L2677714 46705095
L2677714 46609857
" />
<path d="M3439619 46514619
L3439619 45752714
" />
<path d="M3296761 45562238
L3344380 45419380
L3344380 45181285
L3296761 45086047
L3249142 45038428
L3153904 44990809
L3058666 44990809
L2963428 45038428
L2915809 45086047
L2868190 45181285
L2820571 45371761
L2772952 45467000
L2725333 45514619
L2630095 45562238
L2534857 45562238
L2439619 45514619
L2392000 45467000
L2344380 45371761
L2344380 45133666
L2392000 44990809
" />
<path d="M2677714 44657476
L3344380 44467000
L2868190 44276523
L3344380 44086047
L2677714 43895571
" />
<path d="M3344380 43514619
L2677714 43514619
" />
<path d="M2344380 43514619
L2392000 43562238
L2439619 43514619
L2392000 43467000
L2344380 43514619
L2439619 43514619
" />
<path d="M2677714 43181285
L2677714 42800333
" />
<path d="M2344380 43038428
L3201523 43038428
L3296761 42990809
L3344380 42895571
L3344380 42800333
" />
<path d="M3296761 42038428
L3344380 42133666
L3344380 42324142
L3296761 42419380
L3249142 42467000
L3153904 42514619
L2868190 42514619
L2772952 42467000
L2725333 42419380
L2677714 42324142
L2677714 42133666
L2725333 42038428
" />
<path d="M3344380 41609857
L2344380 41609857
" />
<path d="M3344380 41181285
L2820571 41181285
L2725333 41228904
L2677714 41324142
L2677714 41467000
L2725333 41562238
L2772952 41609857
" />
</g><g transform="rotate(-90.000000 6992000.000000 53067000.000000)">
<text x="6992000.000000" y="53567000.000000"
textLength="3242619.000000" font-size="1333333.000000" lengthAdjust="spacingAndGlyphs"
text-anchor="middle" opacity="0">SW1</text>
</g>
<g class="stroked-text"><desc>SW1</desc>
<path d="M7396761 54400333
L7444380 54257476
L7444380 54019380
L7396761 53924142
L7349142 53876523
L7253904 53828904
L7158666 53828904
L7063428 53876523
L7015809 53924142
L6968190 54019380
L6920571 54209857
L6872952 54305095
L6825333 54352714
L6730095 54400333
L6634857 54400333
L6539619 54352714
L6492000 54305095
L6444380 54209857
L6444380 53971761
L6492000 53828904
" />
<path d="M6444380 53495571
L7444380 53257476
L6730095 53067000
L7444380 52876523
L6444380 52638428
" />
<path d="M7444380 51733666
L7444380 52305095
" />
<path d="M7444380 52019380
L6444380 52019380
L6587238 52114619
L6682476 52209857
L6730095 52305095
" />
</g><text x="10648250.000000" y="36858250.000000"
textLength="15385476.000000" font-size="1333333.000000" lengthAdjust="spacingAndGlyphs"
text-anchor="middle" opacity="0">Conn_01x08_Female</text>
<g class="stroked-text"><desc>Conn_01x08_Female</desc>
<path d="M3862535 36715392
L3814916 36763011
L3672059 36810630
L3576821 36810630
L3433964 36763011
L3338726 36667773
L3291107 36572535
L3243488 36382059
L3243488 36239202
L3291107 36048726
L3338726 35953488
L3433964 35858250
L3576821 35810630
L3672059 35810630
L3814916 35858250
L3862535 35905869
" />
<path d="M4433964 36810630
L4338726 36763011
L4291107 36715392
L4243488 36620154
L4243488 36334440
L4291107 36239202
L4338726 36191583
L4433964 36143964
L4576821 36143964
L4672059 36191583
L4719678 36239202
L4767297 36334440
L4767297 36620154
L4719678 36715392
L4672059 36763011
L4576821 36810630
L4433964 36810630
" />
<path d="M5195869 36143964
L5195869 36810630
" />
<path d="M5195869 36239202
L5243488 36191583
L5338726 36143964
L5481583 36143964
L5576821 36191583
L5624440 36286821
L5624440 36810630
" />
<path d="M6100630 36143964
L6100630 36810630
" />
<path d="M6100630 36239202
L6148250 36191583
L6243488 36143964
L6386345 36143964
L6481583 36191583
L6529202 36286821
L6529202 36810630
" />
<path d="M6767297 36905869
L7529202 36905869
" />
<path d="M7957773 35810630
L8053011 35810630
L8148250 35858250
L8195869 35905869
L8243488 36001107
L8291107 36191583
L8291107 36429678
L8243488 36620154
L8195869 36715392
L8148250 36763011
L8053011 36810630
L7957773 36810630
L7862535 36763011
L7814916 36715392
L7767297 36620154
L7719678 36429678
L7719678 36191583
L7767297 36001107
L7814916 35905869
L7862535 35858250
L7957773 35810630
" />
<path d="M9243488 36810630
L8672059 36810630
" />
<path d="M8957773 36810630
L8957773 35810630
L8862535 35953488
L8767297 36048726
L8672059 36096345
" />
<path d="M9576821 36810630
L10100630 36143964
" />
<path d="M9576821 36143964
L10100630 36810630
" />
<path d="M10672059 35810630
L10767297 35810630
L10862535 35858250
L10910154 35905869
L10957773 36001107
L11005392 36191583
L11005392 36429678
L10957773 36620154
L10910154 36715392
L10862535 36763011
L10767297 36810630
L10672059 36810630
L10576821 36763011
L10529202 36715392
L10481583 36620154
L10433964 36429678
L10433964 36191583
L10481583 36001107
L10529202 35905869
L10576821 35858250
L10672059 35810630
" />
<path d="M11576821 36239202
L11481583 36191583
L11433964 36143964
L11386345 36048726
L11386345 36001107
L11433964 35905869
L11481583 35858250
L11576821 35810630
L11767297 35810630
L11862535 35858250
L11910154 35905869
L11957773 36001107
L11957773 36048726
L11910154 36143964
L11862535 36191583
L11767297 36239202
L11576821 36239202
L11481583 36286821
L11433964 36334440
L11386345 36429678
L11386345 36620154
L11433964 36715392
L11481583 36763011
L11576821 36810630
L11767297 36810630
L11862535 36763011
L11910154 36715392
L11957773 36620154
L11957773 36429678
L11910154 36334440
L11862535 36286821
L11767297 36239202
" />
<path d="M12148250 36905869
L12910154 36905869
" />
<path d="M13481583 36286821
L13148250 36286821
" />
<path d="M13148250 36810630
L13148250 35810630
L13624440 35810630
" />
<path d="M14386345 36763011
L14291107 36810630
L14100630 36810630
L14005392 36763011
L13957773 36667773
L13957773 36286821
L14005392 36191583
L14100630 36143964
L14291107 36143964
L14386345 36191583
L14433964 36286821
L14433964 36382059
L13957773 36477297
" />
<path d="M14862535 36810630
L14862535 36143964
" />
<path d="M14862535 36239202
L14910154 36191583
L15005392 36143964
L15148250 36143964
L15243488 36191583
L15291107 36286821
L15291107 36810630
" />
<path d="M15291107 36286821
L15338726 36191583
L15433964 36143964
L15576821 36143964
L15672059 36191583
L15719678 36286821
L15719678 36810630
" />
<path d="M16624440 36810630
L16624440 36286821
L16576821 36191583
L16481583 36143964
L16291107 36143964
L16195869 36191583
" />
<path d="M16624440 36763011
L16529202 36810630
L16291107 36810630
L16195869 36763011
L16148250 36667773
L16148250 36572535
L16195869 36477297
L16291107 36429678
L16529202 36429678
L16624440 36382059
" />
<path d="M17243488 36810630
L17148250 36763011
L17100630 36667773
L17100630 35810630
" />
<path d="M18005392 36763011
L17910154 36810630
L17719678 36810630
L17624440 36763011
L17576821 36667773
L17576821 36286821
L17624440 36191583
L17719678 36143964
L17910154 36143964
L18005392 36191583
L18053011 36286821
L18053011 36382059
L17576821 36477297
" />
</g><text x="10807000.000000" y="34477000.000000"
textLength="1909286.000000" font-size="1333333.000000" lengthAdjust="spacingAndGlyphs"
text-anchor="middle" opacity="0">J1</text>
<g class="stroked-text"><desc>J1</desc>
<path d="M10473666 33429380
L10473666 34143666
L10426047 34286523
L10330809 34381761
L10187952 34429380
L10092714 34429380
" />
<path d="M11473666 34429380
L10902238 34429380
" />
<path d="M11187952 34429380
L11187952 33429380
L11092714 33572238
L10997476 33667476
L10902238 33715095
" />
</g></g>
<g style="fill:#848484; fill-opacity:0.0; 
stroke:#848484; stroke-width:120000.000000; stroke-opacity:1; 
stroke-linecap:round; stroke-linejoin:round;">
<path d="M16592000 55467000
L4992000 55467000
" />
<path d="M15492000 43467000
L16592000 44467000
" />
<path d="M13792000 49467000
L7792000 49467000
" />
<path d="M4992000 55467000
L4992000 43467000
" />
<path d="M16592000 44467000
L16592000 55467000
" />
<path d="M10792000 46467000
L10792000 52467000
" />
<path d="M4992000 43467000
L15492000 43467000
" />
<circle cx="10792000.000000" cy="49467000.000000" r="3000000.000000" /> 
</g>
<g style="fill:#848484; fill-opacity:0.0; 
stroke:#848484; stroke-width:100000.000000; stroke-opacity:1; 
stroke-linecap:round; stroke-linejoin:round;">
<path d="M20967000 35247000
L1282000 35247000
" />
<path d="M647000 32707000
L20967000 32707000
" />
<path d="M1282000 35247000
L647000 34612000
" />
<path d="M647000 34612000
L647000 32707000
" />
<path d="M20967000 32707000
L20967000 35247000
" />
<g >
</g>
<g >
</g>
<g >
</g>
<g >
</g>
<g >
</g>
<g >
</g>
<g >
</g>
</g>
<g style="fill:#000000; fill-opacity:0.0; 
stroke:#000000; stroke-width:100000.000000; stroke-opacity:1; 
stroke-linecap:round; stroke-linejoin:round;">
</g>
<g style="fill:#C2C2C2; fill-opacity:0.0; 
stroke:#C2C2C2; stroke-width:100000.000000; stroke-opacity:1; 
stroke-linecap:round; stroke-linejoin:round;">
</g>
<g style="fill:#C2C2C2; fill-opacity:0.0; 
stroke:#C2C2C2; stroke-width:150000.000000; stroke-opacity:1; 
stroke-linecap:round; stroke-linejoin:round;">
<circle cx="10792000.000000" cy="49512000.000000" r="10500000.000000" /> 
</g>
<g style="fill:#C2C2C2; fill-opacity:0.0; 
stroke:#C2C2C2; stroke-width:120000.000000; stroke-opacity:1; 
stroke-linecap:round; stroke-linejoin:round;">
<path d="M1267000 38160000
L1267000 60000
" />
<path d="M1267000 60000
L20317000 60000
" />
<path d="M20317000 38160000
L1267000 38160000
" />
<path d="M20317000 60000
L20317000 38160000
" />
<g >
</g>
<g >
</g>
<g >
</g>
<g >
</g>
<g >
</g>
<g >
</g>
<g >
</g>
</g>
<g style="fill:#000000; fill-opacity:0.0; 
stroke:#000000; stroke-width:120000.000000; stroke-opacity:1; 
stroke-linecap:round; stroke-linejoin:round;">
</g>
<g style="fill:#C2C200; fill-opacity:0.0; 
stroke:#C2C200; stroke-width:120000.000000; stroke-opacity:1; 
stroke-linecap:round; stroke-linejoin:round;">
</g>
<g style="fill:#C2C200; fill-opacity:0.0; 
stroke:#C2C200; stroke-width:100000.000000; stroke-opacity:1; 
stroke-linecap:round; stroke-linejoin:round;">
<path d="M50000 33215000
L50000 49471000
" />
<path d="M13004000.000000 57980000.000000 A8508999.000000 8508999.000000 0.0 0 0 21513000.000000 49471000.000000" />
<path d="M21513000 33215000
L21513000 49471000
" />
<path d="M8559000 57980000
L13004000 57980000
" />
<path d="M50000.000000 49471000.000000 A8508999.000000 8508999.000000 0.0 0 0 8559000.000000 57980000.000000" />
<path d="M1066000.000000 32199000.000002 A1016002.000000 1016002.000000 0.0 0 0 50000.000002 33215000.000000" />
<path d="M21512999.999998 33215000.000000 A1016002.000000 1016002.000000 0.0 0 0 20497000.000000 32199000.000002" />
<path d="M1066000 32199000
L20497000 32199000
" />
<g >
</g>
<g >
</g>
<g >
</g>
<g >
</g>
<g >
</g>
<g >
</g>
<g >
</g>
</g> 
</svg>
