<?xml version="1.0" standalone="no"?>
 <!DOCTYPE svg PUBLIC "-//W3C//DTD SVG 1.1//EN" 
 "http://www.w3.org/Graphics/SVG/1.1/DTD/svg11.dtd"> 
<svg
  xmlns:svg="http://www.w3.org/2000/svg"
  xmlns="http://www.w3.org/2000/svg"
  xmlns:xlink="http://www.w3.org/1999/xlink"
  version="1.1"
  width="19.067780cm" height="7.637780cm" viewBox="0 0 190677800 76377800">
<title>SVG Picture created as plate-brd.svg date 2022/04/01 07:06:33 </title>
  <desc>Picture generated by PCBNEW </desc>
<g style="fill:#000000; fill-opacity:1.000000;stroke:#000000; stroke-opacity:1.000000;
stroke-linecap:round; stroke-linejoin:round;"
 transform="translate(0 0) scale(1 1)">
</g>
<g style="fill:#000000; fill-opacity:0.0; 
stroke:#000000; stroke-width:0.000000; stroke-opacity:1; 
stroke-linecap:round; stroke-linejoin:round;">
</g>
<g style="fill:#C2C200; fill-opacity:0.0; 
stroke:#C2C200; stroke-width:0.000000; stroke-opacity:1; 
stroke-linecap:round; stroke-linejoin:round;">
</g>
<g style="fill:#C2C200; fill-opacity:0.0; 
stroke:#C2C200; stroke-width:200000.000000; stroke-opacity:1; 
stroke-linecap:round; stroke-linejoin:round;">
<path d="M1687500 76300000
L189012500 76300000
" />
<path d="M190600000 1687500
L190600000 74712500
" />
<path d="M189012500 100000
L1687500 100000
" />
<path d="M100000 1687500
L100000 74712500
" />
<path d="M189012500.000000 76300000.000000 A1587500.000000 1587500.000000 0.0 0 0 190600000.000000 74712500.000000" />
<path d="M100000.000000 74712500.000000 A1587500.000000 1587500.000000 0.0 0 0 1687500.000000 76300000.000000" />
<path d="M1687500.000000 100000.000000 A1587500.000000 1587500.000000 0.0 0 0 100000.000000 1687500.000000" />
<path d="M190600000.000000 1687500.000000 A1587500.000000 1587500.000000 0.0 0 0 189012500.000000 100000.000000" />
</g>
<g style="fill:#C2C200; fill-opacity:0.0; 
stroke:#C2C200; stroke-width:10007.000000; stroke-opacity:1; 
stroke-linecap:round; stroke-linejoin:round;">
<path d="M178075000 53725000
L184075000 53725000
" />
<path d="M176168422 41225008
L176168422 54225007
" />
<path d="M184575000 40225000
L184575000 53225000
" />
<path d="M178075000 39725000
L184075000 39725000
" />
<path d="M153762500 40225000
L153762500 53225000
" />
<path d="M177575000 40225000
L177575000 53225000
" />
<path d="M154262500 39725000
L160262500 39725000
" />
<path d="M162668750 54725000
L175668750 54725000
" />
<path d="M162668750 40725000
L175668750 40725000
" />
<path d="M162168750 41225000
L162168750 54225000
" />
<path d="M154262500 53725000
L160262500 53725000
" />
<path d="M160762500 40225000
L160762500 53225000
" />
<path d="M154262500.000000 39725000.000001 A500001.000000 500001.000000 0.0 0 0 153762500.000001 40225000.000000" />
<path d="M162168750.000001 54225000.000000 A500001.000000 500001.000000 0.0 0 0 162668750.000000 54724999.999999" />
<path d="M176168749.999999 41225000.000000 A500001.000000 500001.000000 0.0 0 0 175668750.000000 40725000.000001" />
<path d="M177575000.000001 53225000.000000 A500001.000000 500001.000000 0.0 0 0 178075000.000000 53724999.999999" />
<path d="M153762500.000001 53225000.000000 A500001.000000 500001.000000 0.0 0 0 154262500.000000 53724999.999999" />
<path d="M184574999.999999 40225000.000000 A500001.000000 500001.000000 0.0 0 0 184075000.000000 39725000.000001" />
<path d="M160262500.000000 53724999.999999 A500001.000000 500001.000000 0.0 0 0 160762499.999999 53225000.000000" />
<path d="M162668750.000000 40725000.000001 A500001.000000 500001.000000 0.0 0 0 162168750.000001 41225000.000000" />
<path d="M175668422.000000 54725006.999999 A500001.000000 500001.000000 0.0 0 0 176168421.999999 54225007.000000" />
<path d="M160762499.999999 40225000.000000 A500001.000000 500001.000000 0.0 0 0 160262500.000000 39725000.000001" />
<path d="M184075000.000000 53724999.999999 A500001.000000 500001.000000 0.0 0 0 184574999.999999 53225000.000000" />
<path d="M178075000.000000 39725000.000001 A500001.000000 500001.000000 0.0 0 0 177575000.000001 40225000.000000" />
<path d="M180431250.000000 35675000.000000 A500000.000000 500000.000000 0.0 0 0 180931250.000000 35175000.000000" />
<path d="M166931250 22175000
L166931250 35165924
" />
<path d="M180931250.000000 22175000.000000 A500000.000000 500000.000000 0.0 0 0 180431250.000000 21675000.000000" />
<path d="M167431250.000000 21675000.000000 A500000.000000 500000.000000 0.0 0 0 166931250.000000 22175000.000000" />
<path d="M167431250 35665924
L180431250 35675000
" />
<path d="M166931250.000000 35165924.000000 A500000.000000 500000.000000 0.0 0 0 167431250.000000 35665924.000000" />
<path d="M167431250 21675000
L180431250 21675000
" />
<path d="M180931250 22175000
L180931250 35175000
" />
<path d="M23268750.000000 54725000.000000 A500000.000000 500000.000000 0.0 0 0 23768750.000000 54225000.000000" />
<path d="M9768750 41225000
L9768750 54215924
" />
<path d="M23768750.000000 41225000.000000 A500000.000000 500000.000000 0.0 0 0 23268750.000000 40725000.000000" />
<path d="M10268750.000000 40725000.000000 A500000.000000 500000.000000 0.0 0 0 9768750.000000 41225000.000000" />
<path d="M10268750 54715924
L23268750 54725000
" />
<path d="M9768750.000000 54215924.000000 A500000.000000 500000.000000 0.0 0 0 10268750.000000 54715924.000000" />
<path d="M10268750 40725000
L23268750 40725000
" />
<path d="M23768750 41225000
L23768750 54225000
" />
<path d="M18506250.000000 35675000.000000 A500000.000000 500000.000000 0.0 0 0 19006250.000000 35175000.000000" />
<path d="M5006250 22175000
L5006250 35165924
" />
<path d="M19006250.000000 22175000.000000 A500000.000000 500000.000000 0.0 0 0 18506250.000000 21675000.000000" />
<path d="M5506250.000000 21675000.000000 A500000.000000 500000.000000 0.0 0 0 5006250.000000 22175000.000000" />
<path d="M5506250 35665924
L18506250 35675000
" />
<path d="M5006250.000000 35165924.000000 A500000.000000 500000.000000 0.0 0 0 5506250.000000 35665924.000000" />
<path d="M5506250 21675000
L18506250 21675000
" />
<path d="M19006250 22175000
L19006250 35175000
" />
<path d="M25675000 72775000
L31675000 72775000
" />
<path d="M159025000 72775000
L165025000 72775000
" />
<path d="M165525000 59275000
L165525000 72275000
" />
<path d="M88850000 59775000
L101850000 59775000
" />
<path d="M102349672 60275008
L102349672 73275007
" />
<path d="M159025000 58775000
L165025000 58775000
" />
<path d="M88850000 73775000
L101850000 73775000
" />
<path d="M158525000 59275000
L158525000 72275000
" />
<path d="M25675000 58775000
L31675000 58775000
" />
<path d="M32175000 59275000
L32175000 72275000
" />
<path d="M25175000 59275000
L25175000 72275000
" />
<path d="M88350000 60275000
L88350000 73275000
" />
<path d="M165524999.999999 59275000.000000 A500001.000000 500001.000000 0.0 0 0 165025000.000000 58775000.000001" />
<path d="M101849672.000000 73775006.999999 A500001.000000 500001.000000 0.0 0 0 102349671.999999 73275007.000000" />
<path d="M88850000.000000 59775000.000001 A500001.000000 500001.000000 0.0 0 0 88350000.000001 60275000.000000" />
<path d="M159025000.000000 58775000.000001 A500001.000000 500001.000000 0.0 0 0 158525000.000001 59275000.000000" />
<path d="M165025000.000000 72774999.999999 A500001.000000 500001.000000 0.0 0 0 165524999.999999 72275000.000000" />
<path d="M31675000.000000 72774999.999999 A500001.000000 500001.000000 0.0 0 0 32174999.999999 72275000.000000" />
<path d="M102349999.999999 60275000.000000 A500001.000000 500001.000000 0.0 0 0 101850000.000000 59775000.000001" />
<path d="M88350000.000001 73275000.000000 A500001.000000 500001.000000 0.0 0 0 88850000.000000 73774999.999999" />
<path d="M158525000.000001 72275000.000000 A500001.000000 500001.000000 0.0 0 0 159025000.000000 72774999.999999" />
<path d="M32174999.999999 59275000.000000 A500001.000000 500001.000000 0.0 0 0 31675000.000000 58775000.000001" />
<path d="M25675000.000000 58775000.000001 A500001.000000 500001.000000 0.0 0 0 25175000.000001 59275000.000000" />
<path d="M25175000.000001 72275000.000000 A500001.000000 500001.000000 0.0 0 0 25675000.000000 72774999.999999" />
<path d="M131212500 41225000
L131212500 54215924
" />
<path d="M145212500 41225000
L145212500 54225000
" />
<path d="M131712500 40725000
L144712500 40725000
" />
<path d="M131712500 54715924
L144712500 54725000
" />
<path d="M144712500.000000 54724999.999999 A500001.000000 500001.000000 0.0 0 0 145212499.999999 54225000.000000" />
<path d="M131212500.000001 54215924.000000 A500001.000000 500001.000000 0.0 0 0 131712500.000000 54715923.999999" />
<path d="M145212499.999999 41225000.000000 A500001.000000 500001.000000 0.0 0 0 144712500.000000 40725000.000001" />
<path d="M131712500.000000 40725000.000001 A500001.000000 500001.000000 0.0 0 0 131212500.000001 41225000.000000" />
<path d="M107112500 41225000
L107112500 54225000
" />
<path d="M93612500 54715924
L106612500 54725000
" />
<path d="M93112500 41225000
L93112500 54215924
" />
<path d="M93612500 40725000
L106612500 40725000
" />
<path d="M93112500.000001 54215924.000000 A500001.000000 500001.000000 0.0 0 0 93612500.000000 54715923.999999" />
<path d="M93612500.000000 40725000.000001 A500001.000000 500001.000000 0.0 0 0 93112500.000001 41225000.000000" />
<path d="M107112499.999999 41225000.000000 A500001.000000 500001.000000 0.0 0 0 106612500.000000 40725000.000001" />
<path d="M106612500.000000 54724999.999999 A500001.000000 500001.000000 0.0 0 0 107112499.999999 54225000.000000" />
<path d="M112662500 54715924
L125662500 54725000
" />
<path d="M126162500 41225000
L126162500 54225000
" />
<path d="M112162500 41225000
L112162500 54215924
" />
<path d="M112662500 40725000
L125662500 40725000
" />
<path d="M112662500.000000 40725000.000001 A500001.000000 500001.000000 0.0 0 0 112162500.000001 41225000.000000" />
<path d="M125662500.000000 54724999.999999 A500001.000000 500001.000000 0.0 0 0 126162499.999999 54225000.000000" />
<path d="M112162500.000001 54215924.000000 A500001.000000 500001.000000 0.0 0 0 112662500.000000 54715923.999999" />
<path d="M126162499.999999 41225000.000000 A500001.000000 500001.000000 0.0 0 0 125662500.000000 40725000.000001" />
<path d="M35962500 41225000
L35962500 54215924
" />
<path d="M49962500 41225000
L49962500 54225000
" />
<path d="M36462500 40725000
L49462500 40725000
" />
<path d="M36462500 54715924
L49462500 54725000
" />
<path d="M49462500.000000 54724999.999999 A500001.000000 500001.000000 0.0 0 0 49962499.999999 54225000.000000" />
<path d="M35962500.000001 54215924.000000 A500001.000000 500001.000000 0.0 0 0 36462500.000000 54715923.999999" />
<path d="M49962499.999999 41225000.000000 A500001.000000 500001.000000 0.0 0 0 49462500.000000 40725000.000001" />
<path d="M36462500.000000 40725000.000001 A500001.000000 500001.000000 0.0 0 0 35962500.000001 41225000.000000" />
<path d="M55512500 40725000
L68512500 40725000
" />
<path d="M69012500 41225000
L69012500 54225000
" />
<path d="M55012500 41225000
L55012500 54215924
" />
<path d="M55512500 54715924
L68512500 54725000
" />
<path d="M68512500.000000 54724999.999999 A500001.000000 500001.000000 0.0 0 0 69012499.999999 54225000.000000" />
<path d="M69012499.999999 41225000.000000 A500001.000000 500001.000000 0.0 0 0 68512500.000000 40725000.000001" />
<path d="M55012500.000001 54215924.000000 A500001.000000 500001.000000 0.0 0 0 55512500.000000 54715923.999999" />
<path d="M55512500.000000 40725000.000001 A500001.000000 500001.000000 0.0 0 0 55012500.000001 41225000.000000" />
<path d="M74562500 40725000
L87562500 40725000
" />
<path d="M74562500 54715924
L87562500 54725000
" />
<path d="M88062500 41225000
L88062500 54225000
" />
<path d="M74062500 41225000
L74062500 54215924
" />
<path d="M87562500.000000 54724999.999999 A500001.000000 500001.000000 0.0 0 0 88062499.999999 54225000.000000" />
<path d="M88062499.999999 41225000.000000 A500001.000000 500001.000000 0.0 0 0 87562500.000000 40725000.000001" />
<path d="M74562500.000000 40725000.000001 A500001.000000 500001.000000 0.0 0 0 74062500.000001 41225000.000000" />
<path d="M74062500.000001 54215924.000000 A500001.000000 500001.000000 0.0 0 0 74562500.000000 54715923.999999" />
<path d="M141237500 21675000
L154237500 21675000
" />
<path d="M154737500 22175000
L154737500 35175000
" />
<path d="M140737500 22175000
L140737500 35165924
" />
<path d="M141237500 35665924
L154237500 35675000
" />
<path d="M154237500.000000 35674999.999999 A500001.000000 500001.000000 0.0 0 0 154737499.999999 35175000.000000" />
<path d="M154737499.999999 22175000.000000 A500001.000000 500001.000000 0.0 0 0 154237500.000000 21675000.000001" />
<path d="M140737500.000001 35165924.000000 A500001.000000 500001.000000 0.0 0 0 141237500.000000 35665923.999999" />
<path d="M141237500.000000 21675000.000001 A500001.000000 500001.000000 0.0 0 0 140737500.000001 22175000.000000" />
<path d="M121687500 22175000
L121687500 35165924
" />
<path d="M135687500 22175000
L135687500 35175000
" />
<path d="M122187500 21675000
L135187500 21675000
" />
<path d="M122187500 35665924
L135187500 35675000
" />
<path d="M135187500.000000 35674999.999999 A500001.000000 500001.000000 0.0 0 0 135687499.999999 35175000.000000" />
<path d="M121687500.000001 35165924.000000 A500001.000000 500001.000000 0.0 0 0 122187500.000000 35665923.999999" />
<path d="M135687499.999999 22175000.000000 A500001.000000 500001.000000 0.0 0 0 135187500.000000 21675000.000001" />
<path d="M122187500.000000 21675000.000001 A500001.000000 500001.000000 0.0 0 0 121687500.000001 22175000.000000" />
<path d="M97587500 22175000
L97587500 35175000
" />
<path d="M84087500 35665924
L97087500 35675000
" />
<path d="M83587500 22175000
L83587500 35165924
" />
<path d="M84087500 21675000
L97087500 21675000
" />
<path d="M83587500.000001 35165924.000000 A500001.000000 500001.000000 0.0 0 0 84087500.000000 35665923.999999" />
<path d="M84087500.000000 21675000.000001 A500001.000000 500001.000000 0.0 0 0 83587500.000001 22175000.000000" />
<path d="M97587499.999999 22175000.000000 A500001.000000 500001.000000 0.0 0 0 97087500.000000 21675000.000001" />
<path d="M97087500.000000 35674999.999999 A500001.000000 500001.000000 0.0 0 0 97587499.999999 35175000.000000" />
<path d="M103137500 35665924
L116137500 35675000
" />
<path d="M116637500 22175000
L116637500 35175000
" />
<path d="M102637500 22175000
L102637500 35165924
" />
<path d="M103137500 21675000
L116137500 21675000
" />
<path d="M103137500.000000 21675000.000001 A500001.000000 500001.000000 0.0 0 0 102637500.000001 22175000.000000" />
<path d="M116137500.000000 35674999.999999 A500001.000000 500001.000000 0.0 0 0 116637499.999999 35175000.000000" />
<path d="M102637500.000001 35165924.000000 A500001.000000 500001.000000 0.0 0 0 103137500.000000 35665923.999999" />
<path d="M116637499.999999 22175000.000000 A500001.000000 500001.000000 0.0 0 0 116137500.000000 21675000.000001" />
<path d="M26437500 22175000
L26437500 35165924
" />
<path d="M40437500 22175000
L40437500 35175000
" />
<path d="M26937500 21675000
L39937500 21675000
" />
<path d="M26937500 35665924
L39937500 35675000
" />
<path d="M39937500.000000 35674999.999999 A500001.000000 500001.000000 0.0 0 0 40437499.999999 35175000.000000" />
<path d="M26437500.000001 35165924.000000 A500001.000000 500001.000000 0.0 0 0 26937500.000000 35665923.999999" />
<path d="M40437499.999999 22175000.000000 A500001.000000 500001.000000 0.0 0 0 39937500.000000 21675000.000001" />
<path d="M26937500.000000 21675000.000001 A500001.000000 500001.000000 0.0 0 0 26437500.000001 22175000.000000" />
<path d="M45987500 21675000
L58987500 21675000
" />
<path d="M59487500 22175000
L59487500 35175000
" />
<path d="M45487500 22175000
L45487500 35165924
" />
<path d="M45987500 35665924
L58987500 35675000
" />
<path d="M58987500.000000 35674999.999999 A500001.000000 500001.000000 0.0 0 0 59487499.999999 35175000.000000" />
<path d="M59487499.999999 22175000.000000 A500001.000000 500001.000000 0.0 0 0 58987500.000000 21675000.000001" />
<path d="M45487500.000001 35165924.000000 A500001.000000 500001.000000 0.0 0 0 45987500.000000 35665923.999999" />
<path d="M45987500.000000 21675000.000001 A500001.000000 500001.000000 0.0 0 0 45487500.000001 22175000.000000" />
<path d="M65037500 21675000
L78037500 21675000
" />
<path d="M65037500 35665924
L78037500 35675000
" />
<path d="M78537500 22175000
L78537500 35175000
" />
<path d="M64537500 22175000
L64537500 35165924
" />
<path d="M78037500.000000 35674999.999999 A500001.000000 500001.000000 0.0 0 0 78537499.999999 35175000.000000" />
<path d="M78537499.999999 22175000.000000 A500001.000000 500001.000000 0.0 0 0 78037500.000000 21675000.000001" />
<path d="M65037500.000000 21675000.000001 A500001.000000 500001.000000 0.0 0 0 64537500.000001 22175000.000000" />
<path d="M64537500.000001 35165924.000000 A500001.000000 500001.000000 0.0 0 0 65037500.000000 35665923.999999" />
<path d="M117425000 16615924
L130425000 16625000
" />
<path d="M130925000 3125000
L130925000 16125000
" />
<path d="M116925000 3125000
L116925000 16115924
" />
<path d="M117425000 2625000
L130425000 2625000
" />
<path d="M117425000.000000 2625000.000001 A500001.000000 500001.000000 0.0 0 0 116925000.000001 3125000.000000" />
<path d="M130425000.000000 16624999.999999 A500001.000000 500001.000000 0.0 0 0 130924999.999999 16125000.000000" />
<path d="M116925000.000001 16115924.000000 A500001.000000 500001.000000 0.0 0 0 117425000.000000 16615923.999999" />
<path d="M130924999.999999 3125000.000000 A500001.000000 500001.000000 0.0 0 0 130425000.000000 2625000.000001" />
<path d="M135975000 3125000
L135975000 16115924
" />
<path d="M149975000 3125000
L149975000 16125000
" />
<path d="M136475000 2625000
L149475000 2625000
" />
<path d="M136475000 16615924
L149475000 16625000
" />
<path d="M149475000.000000 16624999.999999 A500001.000000 500001.000000 0.0 0 0 149974999.999999 16125000.000000" />
<path d="M135975000.000001 16115924.000000 A500001.000000 500001.000000 0.0 0 0 136475000.000000 16615923.999999" />
<path d="M149974999.999999 3125000.000000 A500001.000000 500001.000000 0.0 0 0 149475000.000000 2625000.000001" />
<path d="M136475000.000000 2625000.000001 A500001.000000 500001.000000 0.0 0 0 135975000.000001 3125000.000000" />
<path d="M155525000 2625000
L168525000 2625000
" />
<path d="M169025000 3125000
L169025000 16125000
" />
<path d="M155025000 3125000
L155025000 16115924
" />
<path d="M155525000 16615924
L168525000 16625000
" />
<path d="M168525000.000000 16624999.999999 A500001.000000 500001.000000 0.0 0 0 169024999.999999 16125000.000000" />
<path d="M169024999.999999 3125000.000000 A500001.000000 500001.000000 0.0 0 0 168525000.000000 2625000.000001" />
<path d="M155025000.000001 16115924.000000 A500001.000000 500001.000000 0.0 0 0 155525000.000000 16615923.999999" />
<path d="M155525000.000000 2625000.000001 A500001.000000 500001.000000 0.0 0 0 155025000.000001 3125000.000000" />
<path d="M174575000 2625000
L187575000 2625000
" />
<path d="M174575000 16615924
L187575000 16625000
" />
<path d="M188075000 3125000
L188075000 16125000
" />
<path d="M174075000 3125000
L174075000 16115924
" />
<path d="M187575000.000000 16624999.999999 A500001.000000 500001.000000 0.0 0 0 188074999.999999 16125000.000000" />
<path d="M188074999.999999 3125000.000000 A500001.000000 500001.000000 0.0 0 0 187575000.000000 2625000.000001" />
<path d="M174575000.000000 2625000.000001 A500001.000000 500001.000000 0.0 0 0 174075000.000001 3125000.000000" />
<path d="M174075000.000001 16115924.000000 A500001.000000 500001.000000 0.0 0 0 174575000.000000 16615923.999999" />
<path d="M111875000 3125000
L111875000 16125000
" />
<path d="M98375000 16615924
L111375000 16625000
" />
<path d="M97875000 3125000
L97875000 16115924
" />
<path d="M98375000 2625000
L111375000 2625000
" />
<path d="M97875000.000001 16115924.000000 A500001.000000 500001.000000 0.0 0 0 98375000.000000 16615923.999999" />
<path d="M98375000.000000 2625000.000001 A500001.000000 500001.000000 0.0 0 0 97875000.000001 3125000.000000" />
<path d="M111874999.999999 3125000.000000 A500001.000000 500001.000000 0.0 0 0 111375000.000000 2625000.000001" />
<path d="M111375000.000000 16624999.999999 A500001.000000 500001.000000 0.0 0 0 111874999.999999 16125000.000000" />
<path d="M92325000.000000 16625000.000000 A500000.000000 500000.000000 0.0 0 0 92825000.000000 16125000.000000" />
<path d="M78825000 3125000
L78825000 16115924
" />
<path d="M92825000.000000 3125000.000000 A500000.000000 500000.000000 0.0 0 0 92325000.000000 2625000.000000" />
<path d="M79325000.000000 2625000.000000 A500000.000000 500000.000000 0.0 0 0 78825000.000000 3125000.000000" />
<path d="M79325000 16615924
L92325000 16625000
" />
<path d="M78825000.000000 16115924.000000 A500000.000000 500000.000000 0.0 0 0 79325000.000000 16615924.000000" />
<path d="M79325000 2625000
L92325000 2625000
" />
<path d="M92825000 3125000
L92825000 16125000
" />
<path d="M73275000.000000 16625000.000000 A500000.000000 500000.000000 0.0 0 0 73775000.000000 16125000.000000" />
<path d="M59775000 3125000
L59775000 16115924
" />
<path d="M73775000.000000 3125000.000000 A500000.000000 500000.000000 0.0 0 0 73275000.000000 2625000.000000" />
<path d="M60275000.000000 2625000.000000 A500000.000000 500000.000000 0.0 0 0 59775000.000000 3125000.000000" />
<path d="M60275000 16615924
L73275000 16625000
" />
<path d="M59775000.000000 16115924.000000 A500000.000000 500000.000000 0.0 0 0 60275000.000000 16615924.000000" />
<path d="M60275000 2625000
L73275000 2625000
" />
<path d="M73775000 3125000
L73775000 16125000
" />
<path d="M54225000.000000 16625000.000000 A500000.000000 500000.000000 0.0 0 0 54725000.000000 16125000.000000" />
<path d="M40725000 3125000
L40725000 16115924
" />
<path d="M54725000.000000 3125000.000000 A500000.000000 500000.000000 0.0 0 0 54225000.000000 2625000.000000" />
<path d="M41225000.000000 2625000.000000 A500000.000000 500000.000000 0.0 0 0 40725000.000000 3125000.000000" />
<path d="M41225000 16615924
L54225000 16625000
" />
<path d="M40725000.000000 16115924.000000 A500000.000000 500000.000000 0.0 0 0 41225000.000000 16615924.000000" />
<path d="M41225000 2625000
L54225000 2625000
" />
<path d="M54725000 3125000
L54725000 16125000
" />
<path d="M35175000.000000 16625000.000000 A500000.000000 500000.000000 0.0 0 0 35675000.000000 16125000.000000" />
<path d="M21675000 3125000
L21675000 16115924
" />
<path d="M35675000.000000 3125000.000000 A500000.000000 500000.000000 0.0 0 0 35175000.000000 2625000.000000" />
<path d="M22175000.000000 2625000.000000 A500000.000000 500000.000000 0.0 0 0 21675000.000000 3125000.000000" />
<path d="M22175000 16615924
L35175000 16625000
" />
<path d="M21675000.000000 16115924.000000 A500000.000000 500000.000000 0.0 0 0 22175000.000000 16615924.000000" />
<path d="M22175000 2625000
L35175000 2625000
" />
<path d="M35675000 3125000
L35675000 16125000
" />
<path d="M16125000.000000 16625000.000000 A500000.000000 500000.000000 0.0 0 0 16625000.000000 16125000.000000" />
<path d="M2625000 3125000
L2625000 16115924
" />
<path d="M16625000.000000 3125000.000000 A500000.000000 500000.000000 0.0 0 0 16125000.000000 2625000.000000" />
<path d="M3125000.000000 2625000.000000 A500000.000000 500000.000000 0.0 0 0 2625000.000000 3125000.000000" />
<path d="M3125000 16615924
L16125000 16625000
" />
<path d="M2625000.000000 16115924.000000 A500000.000000 500000.000000 0.0 0 0 3125000.000000 16615924.000000" />
<path d="M3125000 2625000
L16125000 2625000
" />
<path d="M16625000 3125000
L16625000 16125000
" />
<g >
</g>
<g >
</g>
<g >
</g>
<g >
</g>
<g >
</g>
<g >
</g>
<g >
</g>
<g >
</g>
<g >
</g>
<g >
</g>
<g >
</g>
<g >
</g>
<g >
</g>
<g >
</g>
<g >
</g>
<g >
</g>
<g >
</g>
<g >
</g>
<g >
</g>
<g >
</g>
<g >
</g>
<g >
</g>
<g >
</g>
<g >
</g>
<g >
</g>
<g >
</g>
<g >
</g>
<g >
</g>
<g >
</g>
<g >
</g>
<g >
</g>
</g> 
</svg>
