G04 #@! TF.GenerationSoftware,KiCad,Pcbnew,(6.0.1-0)*
G04 #@! TF.CreationDate,2022-03-18T18:39:42-07:00*
G04 #@! TF.ProjectId,daughterboard,64617567-6874-4657-9262-6f6172642e6b,rev?*
G04 #@! TF.SameCoordinates,Original*
G04 #@! TF.FileFunction,Legend,Top*
G04 #@! TF.FilePolarity,Positive*
%FSLAX46Y46*%
G04 Gerber Fmt 4.6, Leading zero omitted, Abs format (unit mm)*
G04 Created by KiCad (PCBNEW (6.0.1-0)) date 2022-03-18 18:39:42*
%MOMM*%
%LPD*%
G01*
G04 APERTURE LIST*
%ADD10C,0.150000*%
%ADD11C,0.120000*%
%ADD12R,1.700000X1.700000*%
%ADD13O,1.700000X1.700000*%
%ADD14R,2.000000X2.000000*%
%ADD15C,2.000000*%
%ADD16R,2.000000X3.200000*%
G04 APERTURE END LIST*
D10*
X50604761Y-90990333D02*
X50652380Y-90847476D01*
X50652380Y-90609380D01*
X50604761Y-90514142D01*
X50557142Y-90466523D01*
X50461904Y-90418904D01*
X50366666Y-90418904D01*
X50271428Y-90466523D01*
X50223809Y-90514142D01*
X50176190Y-90609380D01*
X50128571Y-90799857D01*
X50080952Y-90895095D01*
X50033333Y-90942714D01*
X49938095Y-90990333D01*
X49842857Y-90990333D01*
X49747619Y-90942714D01*
X49700000Y-90895095D01*
X49652380Y-90799857D01*
X49652380Y-90561761D01*
X49700000Y-90418904D01*
X49652380Y-90085571D02*
X50652380Y-89847476D01*
X49938095Y-89657000D01*
X50652380Y-89466523D01*
X49652380Y-89228428D01*
X50652380Y-88323666D02*
X50652380Y-88895095D01*
X50652380Y-88609380D02*
X49652380Y-88609380D01*
X49795238Y-88704619D01*
X49890476Y-88799857D01*
X49938095Y-88895095D01*
X42522916Y-79716380D02*
X42522916Y-80430666D01*
X42475297Y-80573523D01*
X42380059Y-80668761D01*
X42237202Y-80716380D01*
X42141964Y-80716380D01*
X43522916Y-80716380D02*
X42951488Y-80716380D01*
X43237202Y-80716380D02*
X43237202Y-79716380D01*
X43141964Y-79859238D01*
X43046726Y-79954476D01*
X42951488Y-80002095D01*
D11*
X48900000Y-96357000D02*
X48900000Y-100457000D01*
X48900000Y-88257000D02*
X37100000Y-88257000D01*
X44300000Y-100457000D02*
X41700000Y-100457000D01*
X46800000Y-86857000D02*
X47100000Y-86557000D01*
X37100000Y-92357000D02*
X37100000Y-88257000D01*
X37100000Y-100457000D02*
X37100000Y-96357000D01*
X48900000Y-100457000D02*
X46500000Y-100457000D01*
X47100000Y-87157000D02*
X46800000Y-86857000D01*
X48900000Y-92357000D02*
X48900000Y-88257000D01*
X39500000Y-100457000D02*
X37100000Y-100457000D01*
X43000000Y-93857000D02*
X43000000Y-94857000D01*
X43500000Y-94357000D02*
X42500000Y-94357000D01*
X47100000Y-86557000D02*
X47100000Y-87157000D01*
X46000000Y-94357000D02*
G75*
G03*
X46000000Y-94357000I-3000000J0D01*
G01*
X35395000Y-77537000D02*
X53235000Y-77537000D01*
X32795000Y-80197000D02*
X32795000Y-78867000D01*
X34125000Y-80197000D02*
X32795000Y-80197000D01*
X53235000Y-80197000D02*
X53235000Y-77537000D01*
X35395000Y-80197000D02*
X53235000Y-80197000D01*
X35395000Y-80197000D02*
X35395000Y-77537000D01*
%LPC*%
D12*
X46810000Y-81754500D03*
D13*
X44270000Y-81754500D03*
X41730000Y-81754500D03*
X39190000Y-81754500D03*
D14*
X45500000Y-86857000D03*
D15*
X40500000Y-86857000D03*
X43000000Y-86857000D03*
D16*
X37400000Y-94357000D03*
X48600000Y-94357000D03*
D15*
X40500000Y-101357000D03*
X45500000Y-101357000D03*
D12*
X34125000Y-78867000D03*
D13*
X36665000Y-78867000D03*
X39205000Y-78867000D03*
X41745000Y-78867000D03*
X44285000Y-78867000D03*
X46825000Y-78867000D03*
X49365000Y-78867000D03*
X51905000Y-78867000D03*
M02*
