G04 #@! TF.GenerationSoftware,KiCad,Pcbnew,(6.0.1-0)*
G04 #@! TF.CreationDate,2022-03-18T18:39:42-07:00*
G04 #@! TF.ProjectId,daughterboard,64617567-6874-4657-9262-6f6172642e6b,rev?*
G04 #@! TF.SameCoordinates,Original*
G04 #@! TF.FileFunction,Copper,L1,Top*
G04 #@! TF.FilePolarity,Positive*
%FSLAX46Y46*%
G04 Gerber Fmt 4.6, Leading zero omitted, Abs format (unit mm)*
G04 Created by KiCad (PCBNEW (6.0.1-0)) date 2022-03-18 18:39:42*
%MOMM*%
%LPD*%
G01*
G04 APERTURE LIST*
G04 #@! TA.AperFunction,ComponentPad*
%ADD10R,1.700000X1.700000*%
G04 #@! TD*
G04 #@! TA.AperFunction,ComponentPad*
%ADD11O,1.700000X1.700000*%
G04 #@! TD*
G04 #@! TA.AperFunction,ComponentPad*
%ADD12R,2.000000X2.000000*%
G04 #@! TD*
G04 #@! TA.AperFunction,ComponentPad*
%ADD13C,2.000000*%
G04 #@! TD*
G04 #@! TA.AperFunction,ComponentPad*
%ADD14R,2.000000X3.200000*%
G04 #@! TD*
G04 #@! TA.AperFunction,ViaPad*
%ADD15C,0.800000*%
G04 #@! TD*
G04 #@! TA.AperFunction,Conductor*
%ADD16C,0.250000*%
G04 #@! TD*
G04 #@! TA.AperFunction,Conductor*
%ADD17C,0.381000*%
G04 #@! TD*
G04 APERTURE END LIST*
D10*
X46810000Y-81754500D03*
D11*
X44270000Y-81754500D03*
X41730000Y-81754500D03*
X39190000Y-81754500D03*
D12*
X45500000Y-86857000D03*
D13*
X40500000Y-86857000D03*
X43000000Y-86857000D03*
D14*
X37400000Y-94357000D03*
X48600000Y-94357000D03*
D13*
X40500000Y-101357000D03*
X45500000Y-101357000D03*
D10*
X34125000Y-78867000D03*
D11*
X36665000Y-78867000D03*
X39205000Y-78867000D03*
X41745000Y-78867000D03*
X44285000Y-78867000D03*
X46825000Y-78867000D03*
X49365000Y-78867000D03*
X51905000Y-78867000D03*
D15*
X48768000Y-100330000D03*
X37211000Y-100330000D03*
D16*
X36665000Y-83022000D02*
X40500000Y-86857000D01*
X36665000Y-78867000D02*
X36665000Y-83022000D01*
X49365000Y-78867000D02*
X49365000Y-82992000D01*
X49365000Y-82992000D02*
X45500000Y-86857000D01*
D17*
X46825000Y-78867000D02*
X46825000Y-81739500D01*
X46825000Y-81739500D02*
X46810000Y-81754500D01*
D16*
X34125000Y-94982000D02*
X40500000Y-101357000D01*
X34125000Y-78867000D02*
X34125000Y-94982000D01*
X51905000Y-78867000D02*
X51905000Y-94952000D01*
X51905000Y-94952000D02*
X45500000Y-101357000D01*
D17*
X44285000Y-78867000D02*
X44285000Y-81739500D01*
X44285000Y-81739500D02*
X44270000Y-81754500D01*
D16*
X41745000Y-78867000D02*
X41745000Y-81739500D01*
X41745000Y-81739500D02*
X41730000Y-81754500D01*
X39205000Y-81739500D02*
X39190000Y-81754500D01*
X39205000Y-78867000D02*
X39205000Y-81739500D01*
G04 #@! TA.AperFunction,Conductor*
G36*
X48176751Y-79541678D02*
G01*
X48204579Y-79573511D01*
X48264987Y-79672088D01*
X48411250Y-79840938D01*
X48583126Y-79983632D01*
X48603568Y-79995577D01*
X48669070Y-80033853D01*
X48717794Y-80085491D01*
X48731500Y-80142641D01*
X48731500Y-82677405D01*
X48711498Y-82745526D01*
X48694595Y-82766500D01*
X46149500Y-85311595D01*
X46087188Y-85345621D01*
X46060405Y-85348500D01*
X44451866Y-85348500D01*
X44389684Y-85355255D01*
X44253295Y-85406385D01*
X44136739Y-85493739D01*
X44131358Y-85500919D01*
X44131357Y-85500920D01*
X44055974Y-85601503D01*
X43999115Y-85644018D01*
X43928296Y-85649044D01*
X43889983Y-85631824D01*
X43889121Y-85633230D01*
X43690958Y-85511795D01*
X43682163Y-85507313D01*
X43472012Y-85420266D01*
X43462627Y-85417217D01*
X43241446Y-85364115D01*
X43231699Y-85362572D01*
X43004930Y-85344725D01*
X42995070Y-85344725D01*
X42768301Y-85362572D01*
X42758554Y-85364115D01*
X42537373Y-85417217D01*
X42527988Y-85420266D01*
X42317837Y-85507313D01*
X42309042Y-85511795D01*
X42141555Y-85614432D01*
X42132093Y-85624890D01*
X42135876Y-85633666D01*
X43270115Y-86767905D01*
X43304141Y-86830217D01*
X43299076Y-86901032D01*
X43270115Y-86946095D01*
X42138920Y-88077290D01*
X42132160Y-88089670D01*
X42137887Y-88097320D01*
X42309042Y-88202205D01*
X42317837Y-88206687D01*
X42527988Y-88293734D01*
X42537373Y-88296783D01*
X42758554Y-88349885D01*
X42768301Y-88351428D01*
X42995070Y-88369275D01*
X43004930Y-88369275D01*
X43231699Y-88351428D01*
X43241446Y-88349885D01*
X43462627Y-88296783D01*
X43472012Y-88293734D01*
X43682163Y-88206687D01*
X43690958Y-88202205D01*
X43889121Y-88080770D01*
X43890396Y-88082851D01*
X43947739Y-88062280D01*
X44016918Y-88078242D01*
X44055974Y-88112497D01*
X44131357Y-88213080D01*
X44136739Y-88220261D01*
X44253295Y-88307615D01*
X44389684Y-88358745D01*
X44451866Y-88365500D01*
X46548134Y-88365500D01*
X46610316Y-88358745D01*
X46746705Y-88307615D01*
X46863261Y-88220261D01*
X46950615Y-88103705D01*
X47001745Y-87967316D01*
X47008500Y-87905134D01*
X47008500Y-86296594D01*
X47028502Y-86228473D01*
X47045405Y-86207499D01*
X49757247Y-83495657D01*
X49765537Y-83488113D01*
X49772018Y-83484000D01*
X49818659Y-83434332D01*
X49821413Y-83431491D01*
X49841134Y-83411770D01*
X49843612Y-83408575D01*
X49851318Y-83399553D01*
X49853775Y-83396937D01*
X49881586Y-83367321D01*
X49891346Y-83349568D01*
X49902199Y-83333045D01*
X49909753Y-83323306D01*
X49914613Y-83317041D01*
X49932176Y-83276457D01*
X49937383Y-83265827D01*
X49958695Y-83227060D01*
X49960666Y-83219383D01*
X49960668Y-83219378D01*
X49963732Y-83207442D01*
X49970138Y-83188730D01*
X49970381Y-83188170D01*
X49978181Y-83170145D01*
X49981236Y-83150861D01*
X49985097Y-83126481D01*
X49987504Y-83114860D01*
X49996528Y-83079711D01*
X49996528Y-83079710D01*
X49998500Y-83072030D01*
X49998500Y-83051769D01*
X50000051Y-83032058D01*
X50001144Y-83025161D01*
X50003219Y-83012057D01*
X49999059Y-82968046D01*
X49998500Y-82956189D01*
X49998500Y-80147427D01*
X50018502Y-80079306D01*
X50059618Y-80039550D01*
X50062994Y-80037896D01*
X50244860Y-79908173D01*
X50403096Y-79750489D01*
X50457102Y-79675332D01*
X50533453Y-79569077D01*
X50534776Y-79570028D01*
X50581645Y-79526857D01*
X50651580Y-79514625D01*
X50717026Y-79542144D01*
X50744875Y-79573994D01*
X50804987Y-79672088D01*
X50951250Y-79840938D01*
X51123126Y-79983632D01*
X51143568Y-79995577D01*
X51209070Y-80033853D01*
X51257794Y-80085491D01*
X51271500Y-80142641D01*
X51271500Y-94637406D01*
X51251498Y-94705527D01*
X51234595Y-94726501D01*
X50323595Y-95637501D01*
X50261283Y-95671527D01*
X50190468Y-95666462D01*
X50133632Y-95623915D01*
X50108821Y-95557395D01*
X50108500Y-95548406D01*
X50108500Y-92708866D01*
X50101745Y-92646684D01*
X50050615Y-92510295D01*
X49963261Y-92393739D01*
X49846705Y-92306385D01*
X49710316Y-92255255D01*
X49648134Y-92248500D01*
X47551866Y-92248500D01*
X47489684Y-92255255D01*
X47353295Y-92306385D01*
X47236739Y-92393739D01*
X47149385Y-92510295D01*
X47098255Y-92646684D01*
X47091500Y-92708866D01*
X47091500Y-96005134D01*
X47098255Y-96067316D01*
X47149385Y-96203705D01*
X47236739Y-96320261D01*
X47353295Y-96407615D01*
X47489684Y-96458745D01*
X47551866Y-96465500D01*
X49191406Y-96465500D01*
X49259527Y-96485502D01*
X49306020Y-96539158D01*
X49316124Y-96609432D01*
X49286630Y-96674012D01*
X49280501Y-96680595D01*
X46078459Y-99882636D01*
X46016147Y-99916662D01*
X45959951Y-99916060D01*
X45907104Y-99903373D01*
X45741524Y-99863620D01*
X45741518Y-99863619D01*
X45736711Y-99862465D01*
X45500000Y-99843835D01*
X45263289Y-99862465D01*
X45258482Y-99863619D01*
X45258476Y-99863620D01*
X45112609Y-99898640D01*
X45032406Y-99917895D01*
X45027835Y-99919788D01*
X45027833Y-99919789D01*
X44817611Y-100006865D01*
X44817607Y-100006867D01*
X44813037Y-100008760D01*
X44808817Y-100011346D01*
X44614798Y-100130241D01*
X44614792Y-100130245D01*
X44610584Y-100132824D01*
X44430031Y-100287031D01*
X44275824Y-100467584D01*
X44273245Y-100471792D01*
X44273241Y-100471798D01*
X44233525Y-100536609D01*
X44151760Y-100670037D01*
X44149867Y-100674607D01*
X44149865Y-100674611D01*
X44062789Y-100884833D01*
X44060895Y-100889406D01*
X44005465Y-101120289D01*
X43986835Y-101357000D01*
X44005465Y-101593711D01*
X44006619Y-101598518D01*
X44006620Y-101598524D01*
X44031267Y-101701185D01*
X44060895Y-101824594D01*
X44062788Y-101829165D01*
X44062789Y-101829167D01*
X44127568Y-101985557D01*
X44151760Y-102043963D01*
X44154346Y-102048183D01*
X44229097Y-102170165D01*
X44247635Y-102238698D01*
X44226179Y-102306375D01*
X44171540Y-102351708D01*
X44121664Y-102362000D01*
X41878336Y-102362000D01*
X41810215Y-102341998D01*
X41763722Y-102288342D01*
X41753618Y-102218068D01*
X41770903Y-102170165D01*
X41845654Y-102048183D01*
X41848240Y-102043963D01*
X41872433Y-101985557D01*
X41937211Y-101829167D01*
X41937212Y-101829165D01*
X41939105Y-101824594D01*
X41968733Y-101701185D01*
X41993380Y-101598524D01*
X41993381Y-101598518D01*
X41994535Y-101593711D01*
X42013165Y-101357000D01*
X41994535Y-101120289D01*
X41939105Y-100889406D01*
X41937211Y-100884833D01*
X41850135Y-100674611D01*
X41850133Y-100674607D01*
X41848240Y-100670037D01*
X41766475Y-100536609D01*
X41726759Y-100471798D01*
X41726755Y-100471792D01*
X41724176Y-100467584D01*
X41569969Y-100287031D01*
X41389416Y-100132824D01*
X41385208Y-100130245D01*
X41385202Y-100130241D01*
X41191183Y-100011346D01*
X41186963Y-100008760D01*
X41182393Y-100006867D01*
X41182389Y-100006865D01*
X40972167Y-99919789D01*
X40972165Y-99919788D01*
X40967594Y-99917895D01*
X40887391Y-99898640D01*
X40741524Y-99863620D01*
X40741518Y-99863619D01*
X40736711Y-99862465D01*
X40500000Y-99843835D01*
X40263289Y-99862465D01*
X40258482Y-99863619D01*
X40258476Y-99863620D01*
X40092896Y-99903373D01*
X40040049Y-99916060D01*
X39969142Y-99912513D01*
X39921541Y-99882636D01*
X36719500Y-96680595D01*
X36685474Y-96618283D01*
X36690539Y-96547468D01*
X36733086Y-96490632D01*
X36799606Y-96465821D01*
X36808595Y-96465500D01*
X38448134Y-96465500D01*
X38510316Y-96458745D01*
X38646705Y-96407615D01*
X38763261Y-96320261D01*
X38850615Y-96203705D01*
X38901745Y-96067316D01*
X38908500Y-96005134D01*
X38908500Y-92708866D01*
X38901745Y-92646684D01*
X38850615Y-92510295D01*
X38763261Y-92393739D01*
X38646705Y-92306385D01*
X38510316Y-92255255D01*
X38448134Y-92248500D01*
X36351866Y-92248500D01*
X36289684Y-92255255D01*
X36153295Y-92306385D01*
X36036739Y-92393739D01*
X35949385Y-92510295D01*
X35898255Y-92646684D01*
X35891500Y-92708866D01*
X35891500Y-95548405D01*
X35871498Y-95616526D01*
X35817842Y-95663019D01*
X35747568Y-95673123D01*
X35682988Y-95643629D01*
X35676405Y-95637500D01*
X34795405Y-94756500D01*
X34761379Y-94694188D01*
X34758500Y-94667405D01*
X34758500Y-80351500D01*
X34778502Y-80283379D01*
X34832158Y-80236886D01*
X34884500Y-80225500D01*
X35023134Y-80225500D01*
X35085316Y-80218745D01*
X35221705Y-80167615D01*
X35338261Y-80080261D01*
X35425615Y-79963705D01*
X35447799Y-79904529D01*
X35469598Y-79846382D01*
X35512240Y-79789618D01*
X35578802Y-79764918D01*
X35648150Y-79780126D01*
X35682817Y-79808114D01*
X35711250Y-79840938D01*
X35883126Y-79983632D01*
X35903568Y-79995577D01*
X35969070Y-80033853D01*
X36017794Y-80085491D01*
X36031500Y-80142641D01*
X36031500Y-82943233D01*
X36030973Y-82954416D01*
X36029298Y-82961909D01*
X36029547Y-82969835D01*
X36029547Y-82969836D01*
X36031438Y-83029986D01*
X36031500Y-83033945D01*
X36031500Y-83061856D01*
X36031997Y-83065790D01*
X36031997Y-83065791D01*
X36032005Y-83065856D01*
X36032938Y-83077693D01*
X36034327Y-83121889D01*
X36039978Y-83141339D01*
X36043987Y-83160700D01*
X36046526Y-83180797D01*
X36049445Y-83188168D01*
X36049445Y-83188170D01*
X36062804Y-83221912D01*
X36066649Y-83233142D01*
X36078982Y-83275593D01*
X36083015Y-83282412D01*
X36083017Y-83282417D01*
X36089293Y-83293028D01*
X36097988Y-83310776D01*
X36105448Y-83329617D01*
X36110110Y-83336033D01*
X36110110Y-83336034D01*
X36131436Y-83365387D01*
X36137952Y-83375307D01*
X36154854Y-83403886D01*
X36160458Y-83413362D01*
X36174779Y-83427683D01*
X36187619Y-83442716D01*
X36199528Y-83459107D01*
X36205634Y-83464158D01*
X36233605Y-83487298D01*
X36242384Y-83495288D01*
X39025636Y-86278541D01*
X39059662Y-86340853D01*
X39059060Y-86397049D01*
X39005465Y-86620289D01*
X38986835Y-86857000D01*
X39005465Y-87093711D01*
X39060895Y-87324594D01*
X39151760Y-87543963D01*
X39154346Y-87548183D01*
X39273241Y-87742202D01*
X39273245Y-87742208D01*
X39275824Y-87746416D01*
X39430031Y-87926969D01*
X39610584Y-88081176D01*
X39614792Y-88083755D01*
X39614798Y-88083759D01*
X39808084Y-88202205D01*
X39813037Y-88205240D01*
X39817607Y-88207133D01*
X39817611Y-88207135D01*
X40027833Y-88294211D01*
X40032406Y-88296105D01*
X40080349Y-88307615D01*
X40258476Y-88350380D01*
X40258482Y-88350381D01*
X40263289Y-88351535D01*
X40500000Y-88370165D01*
X40736711Y-88351535D01*
X40741518Y-88350381D01*
X40741524Y-88350380D01*
X40919651Y-88307615D01*
X40967594Y-88296105D01*
X40972167Y-88294211D01*
X41182389Y-88207135D01*
X41182393Y-88207133D01*
X41186963Y-88205240D01*
X41191916Y-88202205D01*
X41385202Y-88083759D01*
X41385208Y-88083755D01*
X41389416Y-88081176D01*
X41569969Y-87926969D01*
X41708753Y-87764474D01*
X41754686Y-87730598D01*
X41776668Y-87721122D01*
X42627978Y-86869812D01*
X42635592Y-86855868D01*
X42635461Y-86854035D01*
X42631210Y-86847420D01*
X41779710Y-85995920D01*
X41741352Y-85974974D01*
X41705928Y-85946218D01*
X41573177Y-85790787D01*
X41569969Y-85787031D01*
X41389416Y-85632824D01*
X41385208Y-85630245D01*
X41385202Y-85630241D01*
X41191183Y-85511346D01*
X41186963Y-85508760D01*
X41182393Y-85506867D01*
X41182389Y-85506865D01*
X40972167Y-85419789D01*
X40972165Y-85419788D01*
X40967594Y-85417895D01*
X40887391Y-85398640D01*
X40741524Y-85363620D01*
X40741518Y-85363619D01*
X40736711Y-85362465D01*
X40500000Y-85343835D01*
X40263289Y-85362465D01*
X40258482Y-85363619D01*
X40258476Y-85363620D01*
X40040049Y-85416060D01*
X39969141Y-85412513D01*
X39921540Y-85382636D01*
X37335405Y-82796500D01*
X37301379Y-82734188D01*
X37298500Y-82707405D01*
X37298500Y-80147427D01*
X37318502Y-80079306D01*
X37359618Y-80039550D01*
X37362994Y-80037896D01*
X37544860Y-79908173D01*
X37703096Y-79750489D01*
X37757102Y-79675332D01*
X37833453Y-79569077D01*
X37834776Y-79570028D01*
X37881645Y-79526857D01*
X37951580Y-79514625D01*
X38017026Y-79542144D01*
X38044875Y-79573994D01*
X38104987Y-79672088D01*
X38251250Y-79840938D01*
X38423126Y-79983632D01*
X38443568Y-79995577D01*
X38509070Y-80033853D01*
X38557794Y-80085491D01*
X38571500Y-80142641D01*
X38571500Y-80468383D01*
X38551498Y-80536504D01*
X38503682Y-80580145D01*
X38463607Y-80601007D01*
X38284965Y-80735135D01*
X38130629Y-80896638D01*
X38004743Y-81081180D01*
X37910688Y-81283805D01*
X37850989Y-81499070D01*
X37827251Y-81721195D01*
X37840110Y-81944215D01*
X37841247Y-81949261D01*
X37841248Y-81949267D01*
X37855606Y-82012975D01*
X37889222Y-82162139D01*
X37973266Y-82369116D01*
X38024942Y-82453444D01*
X38087291Y-82555188D01*
X38089987Y-82559588D01*
X38236250Y-82728438D01*
X38408126Y-82871132D01*
X38601000Y-82983838D01*
X38809692Y-83063530D01*
X38814760Y-83064561D01*
X38814763Y-83064562D01*
X38922017Y-83086383D01*
X39028597Y-83108067D01*
X39033772Y-83108257D01*
X39033774Y-83108257D01*
X39246673Y-83116064D01*
X39246677Y-83116064D01*
X39251837Y-83116253D01*
X39256957Y-83115597D01*
X39256959Y-83115597D01*
X39468288Y-83088525D01*
X39468289Y-83088525D01*
X39473416Y-83087868D01*
X39478366Y-83086383D01*
X39682429Y-83025161D01*
X39682434Y-83025159D01*
X39687384Y-83023674D01*
X39887994Y-82925396D01*
X40069860Y-82795673D01*
X40228096Y-82637989D01*
X40287594Y-82555189D01*
X40358453Y-82456577D01*
X40359776Y-82457528D01*
X40406645Y-82414357D01*
X40476580Y-82402125D01*
X40542026Y-82429644D01*
X40569875Y-82461494D01*
X40629987Y-82559588D01*
X40776250Y-82728438D01*
X40948126Y-82871132D01*
X41141000Y-82983838D01*
X41349692Y-83063530D01*
X41354760Y-83064561D01*
X41354763Y-83064562D01*
X41462017Y-83086383D01*
X41568597Y-83108067D01*
X41573772Y-83108257D01*
X41573774Y-83108257D01*
X41786673Y-83116064D01*
X41786677Y-83116064D01*
X41791837Y-83116253D01*
X41796957Y-83115597D01*
X41796959Y-83115597D01*
X42008288Y-83088525D01*
X42008289Y-83088525D01*
X42013416Y-83087868D01*
X42018366Y-83086383D01*
X42222429Y-83025161D01*
X42222434Y-83025159D01*
X42227384Y-83023674D01*
X42427994Y-82925396D01*
X42609860Y-82795673D01*
X42768096Y-82637989D01*
X42827594Y-82555189D01*
X42898453Y-82456577D01*
X42899776Y-82457528D01*
X42946645Y-82414357D01*
X43016580Y-82402125D01*
X43082026Y-82429644D01*
X43109875Y-82461494D01*
X43169987Y-82559588D01*
X43316250Y-82728438D01*
X43488126Y-82871132D01*
X43681000Y-82983838D01*
X43889692Y-83063530D01*
X43894760Y-83064561D01*
X43894763Y-83064562D01*
X44002017Y-83086383D01*
X44108597Y-83108067D01*
X44113772Y-83108257D01*
X44113774Y-83108257D01*
X44326673Y-83116064D01*
X44326677Y-83116064D01*
X44331837Y-83116253D01*
X44336957Y-83115597D01*
X44336959Y-83115597D01*
X44548288Y-83088525D01*
X44548289Y-83088525D01*
X44553416Y-83087868D01*
X44558366Y-83086383D01*
X44762429Y-83025161D01*
X44762434Y-83025159D01*
X44767384Y-83023674D01*
X44967994Y-82925396D01*
X45149860Y-82795673D01*
X45217331Y-82728438D01*
X45258479Y-82687433D01*
X45320851Y-82653517D01*
X45391658Y-82658705D01*
X45448419Y-82701351D01*
X45465401Y-82732454D01*
X45506676Y-82842554D01*
X45515214Y-82858149D01*
X45591715Y-82960224D01*
X45604276Y-82972785D01*
X45706351Y-83049286D01*
X45721946Y-83057824D01*
X45842394Y-83102978D01*
X45857649Y-83106605D01*
X45908514Y-83112131D01*
X45915328Y-83112500D01*
X46537885Y-83112500D01*
X46553124Y-83108025D01*
X46554329Y-83106635D01*
X46556000Y-83098952D01*
X46556000Y-83094384D01*
X47064000Y-83094384D01*
X47068475Y-83109623D01*
X47069865Y-83110828D01*
X47077548Y-83112499D01*
X47704669Y-83112499D01*
X47711490Y-83112129D01*
X47762352Y-83106605D01*
X47777604Y-83102979D01*
X47898054Y-83057824D01*
X47913649Y-83049286D01*
X48015724Y-82972785D01*
X48028285Y-82960224D01*
X48104786Y-82858149D01*
X48113324Y-82842554D01*
X48158478Y-82722106D01*
X48162105Y-82706851D01*
X48167631Y-82655986D01*
X48168000Y-82649172D01*
X48168000Y-82026615D01*
X48163525Y-82011376D01*
X48162135Y-82010171D01*
X48154452Y-82008500D01*
X47082115Y-82008500D01*
X47066876Y-82012975D01*
X47065671Y-82014365D01*
X47064000Y-82022048D01*
X47064000Y-83094384D01*
X46556000Y-83094384D01*
X46556000Y-81626500D01*
X46576002Y-81558379D01*
X46629658Y-81511886D01*
X46682000Y-81500500D01*
X48149884Y-81500500D01*
X48165123Y-81496025D01*
X48166328Y-81494635D01*
X48167999Y-81486952D01*
X48167999Y-80859831D01*
X48167629Y-80853010D01*
X48162105Y-80802148D01*
X48158479Y-80786896D01*
X48113324Y-80666446D01*
X48104786Y-80650851D01*
X48028285Y-80548776D01*
X48015724Y-80536215D01*
X47913649Y-80459714D01*
X47898054Y-80451176D01*
X47777606Y-80406022D01*
X47762351Y-80402395D01*
X47711486Y-80396869D01*
X47704672Y-80396500D01*
X47311387Y-80396500D01*
X47243266Y-80376498D01*
X47196773Y-80322842D01*
X47186669Y-80252568D01*
X47216163Y-80187988D01*
X47275180Y-80149814D01*
X47317252Y-80137192D01*
X47326842Y-80133433D01*
X47518095Y-80039739D01*
X47526945Y-80034464D01*
X47700328Y-79910792D01*
X47708200Y-79904139D01*
X47859052Y-79753812D01*
X47865730Y-79745965D01*
X47993022Y-79568819D01*
X47994279Y-79569722D01*
X48041373Y-79526362D01*
X48111311Y-79514145D01*
X48176751Y-79541678D01*
G37*
G04 #@! TD.AperFunction*
G04 #@! TA.AperFunction,Conductor*
G36*
X32967564Y-80122100D02*
G01*
X33028295Y-80167615D01*
X33164684Y-80218745D01*
X33226866Y-80225500D01*
X33365500Y-80225500D01*
X33433621Y-80245502D01*
X33480114Y-80299158D01*
X33491500Y-80351500D01*
X33491500Y-94903233D01*
X33490973Y-94914416D01*
X33489298Y-94921909D01*
X33489547Y-94929835D01*
X33489547Y-94929836D01*
X33491438Y-94989986D01*
X33491500Y-94993945D01*
X33491500Y-95021856D01*
X33491997Y-95025790D01*
X33491997Y-95025791D01*
X33492005Y-95025856D01*
X33492938Y-95037693D01*
X33494327Y-95081889D01*
X33499978Y-95101339D01*
X33503987Y-95120700D01*
X33506526Y-95140797D01*
X33509445Y-95148168D01*
X33509445Y-95148170D01*
X33522804Y-95181912D01*
X33526649Y-95193142D01*
X33536771Y-95227983D01*
X33538982Y-95235593D01*
X33543015Y-95242412D01*
X33543017Y-95242417D01*
X33549293Y-95253028D01*
X33557988Y-95270776D01*
X33565448Y-95289617D01*
X33570110Y-95296033D01*
X33570110Y-95296034D01*
X33591436Y-95325387D01*
X33597952Y-95335307D01*
X33620458Y-95373362D01*
X33634779Y-95387683D01*
X33647619Y-95402716D01*
X33659528Y-95419107D01*
X33665634Y-95424158D01*
X33693605Y-95447298D01*
X33702384Y-95455288D01*
X39025636Y-100778540D01*
X39059662Y-100840852D01*
X39059060Y-100897049D01*
X39058934Y-100897576D01*
X39005465Y-101120289D01*
X38986835Y-101357000D01*
X39005465Y-101593711D01*
X39006619Y-101598518D01*
X39006620Y-101598524D01*
X39031267Y-101701185D01*
X39060895Y-101824594D01*
X39062788Y-101829165D01*
X39062789Y-101829167D01*
X39127568Y-101985557D01*
X39135157Y-102056147D01*
X39103378Y-102119634D01*
X39042320Y-102155861D01*
X38981327Y-102156192D01*
X38612542Y-102066321D01*
X38604258Y-102064000D01*
X38091734Y-101901333D01*
X38083627Y-101898452D01*
X37884133Y-101819782D01*
X37583381Y-101701181D01*
X37575510Y-101697762D01*
X37089909Y-101466820D01*
X37082270Y-101462862D01*
X36885227Y-101352070D01*
X36613558Y-101199318D01*
X36606212Y-101194851D01*
X36213630Y-100937356D01*
X36156574Y-100899933D01*
X36149546Y-100894972D01*
X36058779Y-100826141D01*
X35721094Y-100570066D01*
X35714427Y-100564643D01*
X35682277Y-100536609D01*
X35309125Y-100211238D01*
X35302838Y-100205365D01*
X34922635Y-99825162D01*
X34916762Y-99818875D01*
X34563357Y-99413573D01*
X34557928Y-99406899D01*
X34397192Y-99194936D01*
X34233027Y-98978452D01*
X34228066Y-98971425D01*
X33933149Y-98521788D01*
X33928679Y-98514437D01*
X33665138Y-98045730D01*
X33661180Y-98038091D01*
X33430243Y-97552500D01*
X33426815Y-97544609D01*
X33229548Y-97044373D01*
X33226667Y-97036266D01*
X33064000Y-96523742D01*
X33061679Y-96515458D01*
X33012361Y-96313081D01*
X32934366Y-95993028D01*
X32932618Y-95984619D01*
X32841252Y-95454701D01*
X32840081Y-95446178D01*
X32785094Y-94911303D01*
X32784506Y-94902720D01*
X32767516Y-94405364D01*
X32768942Y-94381681D01*
X32769805Y-94376140D01*
X32771186Y-94367270D01*
X32769547Y-94354730D01*
X32767064Y-94335749D01*
X32766000Y-94319411D01*
X32766000Y-80222926D01*
X32786002Y-80154805D01*
X32839658Y-80108312D01*
X32909932Y-80098208D01*
X32967564Y-80122100D01*
G37*
G04 #@! TD.AperFunction*
G04 #@! TA.AperFunction,Conductor*
G36*
X53174340Y-79675332D02*
G01*
X53209574Y-79736968D01*
X53213000Y-79766149D01*
X53213000Y-94311672D01*
X53211500Y-94331056D01*
X53207814Y-94354730D01*
X53208978Y-94363631D01*
X53208978Y-94363637D01*
X53210751Y-94377192D01*
X53211742Y-94397831D01*
X53194494Y-94902720D01*
X53193906Y-94911303D01*
X53138919Y-95446178D01*
X53137748Y-95454701D01*
X53046382Y-95984619D01*
X53044634Y-95993028D01*
X52966639Y-96313081D01*
X52917321Y-96515458D01*
X52915000Y-96523742D01*
X52752333Y-97036266D01*
X52749452Y-97044373D01*
X52552185Y-97544609D01*
X52548757Y-97552500D01*
X52317820Y-98038091D01*
X52313862Y-98045730D01*
X52050321Y-98514437D01*
X52045851Y-98521788D01*
X51750934Y-98971425D01*
X51745973Y-98978452D01*
X51581809Y-99194936D01*
X51421072Y-99406899D01*
X51415643Y-99413573D01*
X51062238Y-99818875D01*
X51056365Y-99825162D01*
X50676162Y-100205365D01*
X50669875Y-100211238D01*
X50296724Y-100536609D01*
X50264573Y-100564643D01*
X50257906Y-100570066D01*
X49920221Y-100826141D01*
X49829454Y-100894972D01*
X49822426Y-100899933D01*
X49765371Y-100937356D01*
X49372788Y-101194851D01*
X49365442Y-101199318D01*
X49093773Y-101352070D01*
X48896730Y-101462862D01*
X48889091Y-101466820D01*
X48403490Y-101697762D01*
X48395619Y-101701181D01*
X48094867Y-101819782D01*
X47895373Y-101898452D01*
X47887266Y-101901333D01*
X47374742Y-102064000D01*
X47366458Y-102066321D01*
X47021030Y-102150500D01*
X46950112Y-102147196D01*
X46892237Y-102106074D01*
X46865782Y-102040190D01*
X46874790Y-101979865D01*
X46937211Y-101829167D01*
X46937212Y-101829165D01*
X46939105Y-101824594D01*
X46968733Y-101701185D01*
X46993380Y-101598524D01*
X46993381Y-101598518D01*
X46994535Y-101593711D01*
X47013165Y-101357000D01*
X46994535Y-101120289D01*
X46941067Y-100897576D01*
X46940940Y-100897049D01*
X46944487Y-100826141D01*
X46974364Y-100778540D01*
X52297253Y-95455652D01*
X52305539Y-95448112D01*
X52312018Y-95444000D01*
X52358644Y-95394348D01*
X52361398Y-95391507D01*
X52381135Y-95371770D01*
X52383615Y-95368573D01*
X52391320Y-95359551D01*
X52416159Y-95333100D01*
X52421586Y-95327321D01*
X52425405Y-95320375D01*
X52425407Y-95320372D01*
X52431348Y-95309566D01*
X52442199Y-95293047D01*
X52449758Y-95283301D01*
X52454614Y-95277041D01*
X52457759Y-95269772D01*
X52457762Y-95269768D01*
X52472174Y-95236463D01*
X52477391Y-95225813D01*
X52498695Y-95187060D01*
X52503733Y-95167437D01*
X52510137Y-95148734D01*
X52515033Y-95137420D01*
X52515033Y-95137419D01*
X52518181Y-95130145D01*
X52519420Y-95122322D01*
X52519423Y-95122312D01*
X52525099Y-95086476D01*
X52527505Y-95074856D01*
X52536528Y-95039711D01*
X52536528Y-95039710D01*
X52538500Y-95032030D01*
X52538500Y-95011776D01*
X52540051Y-94992065D01*
X52541980Y-94979886D01*
X52543220Y-94972057D01*
X52539059Y-94928038D01*
X52538500Y-94916181D01*
X52538500Y-80147427D01*
X52558502Y-80079306D01*
X52599618Y-80039550D01*
X52602994Y-80037896D01*
X52784860Y-79908173D01*
X52943096Y-79750489D01*
X52946112Y-79746292D01*
X52946119Y-79746284D01*
X52984678Y-79692623D01*
X53040672Y-79648975D01*
X53111376Y-79642529D01*
X53174340Y-79675332D01*
G37*
G04 #@! TD.AperFunction*
M02*
