G04 #@! TF.GenerationSoftware,KiCad,Pcbnew,(6.0.1-0)*
G04 #@! TF.CreationDate,2022-03-18T18:39:42-07:00*
G04 #@! TF.ProjectId,daughterboard,64617567-6874-4657-9262-6f6172642e6b,rev?*
G04 #@! TF.SameCoordinates,Original*
G04 #@! TF.FileFunction,Legend,Bot*
G04 #@! TF.FilePolarity,Positive*
%FSLAX46Y46*%
G04 Gerber Fmt 4.6, Leading zero omitted, Abs format (unit mm)*
G04 Created by KiCad (PCBNEW (6.0.1-0)) date 2022-03-18 18:39:42*
%MOMM*%
%LPD*%
G01*
G04 APERTURE LIST*
%ADD10C,0.150000*%
%ADD11R,1.700000X1.700000*%
%ADD12O,1.700000X1.700000*%
%ADD13R,2.000000X2.000000*%
%ADD14C,2.000000*%
%ADD15R,2.000000X3.200000*%
G04 APERTURE END LIST*
D10*
X46310000Y-83875595D02*
X46262380Y-83780357D01*
X46262380Y-83637500D01*
X46310000Y-83494642D01*
X46405238Y-83399404D01*
X46500476Y-83351785D01*
X46690952Y-83304166D01*
X46833809Y-83304166D01*
X47024285Y-83351785D01*
X47119523Y-83399404D01*
X47214761Y-83494642D01*
X47262380Y-83637500D01*
X47262380Y-83732738D01*
X47214761Y-83875595D01*
X47167142Y-83923214D01*
X46833809Y-83923214D01*
X46833809Y-83732738D01*
X47262380Y-84351785D02*
X46262380Y-84351785D01*
X47262380Y-84923214D01*
X46262380Y-84923214D01*
X47262380Y-85399404D02*
X46262380Y-85399404D01*
X46262380Y-85637500D01*
X46310000Y-85780357D01*
X46405238Y-85875595D01*
X46500476Y-85923214D01*
X46690952Y-85970833D01*
X46833809Y-85970833D01*
X47024285Y-85923214D01*
X47119523Y-85875595D01*
X47214761Y-85780357D01*
X47262380Y-85637500D01*
X47262380Y-85399404D01*
X42134761Y-83447023D02*
X42182380Y-83589880D01*
X42182380Y-83827976D01*
X42134761Y-83923214D01*
X42087142Y-83970833D01*
X41991904Y-84018452D01*
X41896666Y-84018452D01*
X41801428Y-83970833D01*
X41753809Y-83923214D01*
X41706190Y-83827976D01*
X41658571Y-83637500D01*
X41610952Y-83542261D01*
X41563333Y-83494642D01*
X41468095Y-83447023D01*
X41372857Y-83447023D01*
X41277619Y-83494642D01*
X41230000Y-83542261D01*
X41182380Y-83637500D01*
X41182380Y-83875595D01*
X41230000Y-84018452D01*
X42087142Y-85018452D02*
X42134761Y-84970833D01*
X42182380Y-84827976D01*
X42182380Y-84732738D01*
X42134761Y-84589880D01*
X42039523Y-84494642D01*
X41944285Y-84447023D01*
X41753809Y-84399404D01*
X41610952Y-84399404D01*
X41420476Y-84447023D01*
X41325238Y-84494642D01*
X41230000Y-84589880D01*
X41182380Y-84732738D01*
X41182380Y-84827976D01*
X41230000Y-84970833D01*
X41277619Y-85018452D01*
X42182380Y-85923214D02*
X42182380Y-85447023D01*
X41182380Y-85447023D01*
X43722380Y-83304166D02*
X44722380Y-83637500D01*
X43722380Y-83970833D01*
X44627142Y-84875595D02*
X44674761Y-84827976D01*
X44722380Y-84685119D01*
X44722380Y-84589880D01*
X44674761Y-84447023D01*
X44579523Y-84351785D01*
X44484285Y-84304166D01*
X44293809Y-84256547D01*
X44150952Y-84256547D01*
X43960476Y-84304166D01*
X43865238Y-84351785D01*
X43770000Y-84447023D01*
X43722380Y-84589880D01*
X43722380Y-84685119D01*
X43770000Y-84827976D01*
X43817619Y-84875595D01*
X44627142Y-85875595D02*
X44674761Y-85827976D01*
X44722380Y-85685119D01*
X44722380Y-85589880D01*
X44674761Y-85447023D01*
X44579523Y-85351785D01*
X44484285Y-85304166D01*
X44293809Y-85256547D01*
X44150952Y-85256547D01*
X43960476Y-85304166D01*
X43865238Y-85351785D01*
X43770000Y-85447023D01*
X43722380Y-85589880D01*
X43722380Y-85685119D01*
X43770000Y-85827976D01*
X43817619Y-85875595D01*
X39594761Y-83423214D02*
X39642380Y-83566071D01*
X39642380Y-83804166D01*
X39594761Y-83899404D01*
X39547142Y-83947023D01*
X39451904Y-83994642D01*
X39356666Y-83994642D01*
X39261428Y-83947023D01*
X39213809Y-83899404D01*
X39166190Y-83804166D01*
X39118571Y-83613690D01*
X39070952Y-83518452D01*
X39023333Y-83470833D01*
X38928095Y-83423214D01*
X38832857Y-83423214D01*
X38737619Y-83470833D01*
X38690000Y-83518452D01*
X38642380Y-83613690D01*
X38642380Y-83851785D01*
X38690000Y-83994642D01*
X39642380Y-84423214D02*
X38642380Y-84423214D01*
X38642380Y-84661309D01*
X38690000Y-84804166D01*
X38785238Y-84899404D01*
X38880476Y-84947023D01*
X39070952Y-84994642D01*
X39213809Y-84994642D01*
X39404285Y-84947023D01*
X39499523Y-84899404D01*
X39594761Y-84804166D01*
X39642380Y-84661309D01*
X39642380Y-84423214D01*
X39356666Y-85375595D02*
X39356666Y-85851785D01*
X39642380Y-85280357D02*
X38642380Y-85613690D01*
X39642380Y-85947023D01*
G36*
X41831611Y-98051381D02*
G01*
X44020389Y-98051381D01*
X44020389Y-98916711D01*
X40966280Y-98916711D01*
X40966280Y-99349376D01*
X40533615Y-99349376D01*
X40533615Y-98484046D01*
X40966280Y-98484046D01*
X40966280Y-98051381D01*
X41398946Y-98051381D01*
X41398946Y-97186050D01*
X41831611Y-97186050D01*
X41831611Y-98051381D01*
G37*
G36*
X41831611Y-96320719D02*
G01*
X44020389Y-96320719D01*
X44020389Y-97186050D01*
X41831611Y-97186050D01*
X41831611Y-96753385D01*
X41398946Y-96753385D01*
X41398946Y-95888054D01*
X41831611Y-95888054D01*
X41831611Y-96320719D01*
G37*
G36*
X41831611Y-93699276D02*
G01*
X45318384Y-93699276D01*
X45318384Y-94131942D01*
X44885719Y-94131942D01*
X44885719Y-94590058D01*
X44453054Y-94590058D01*
X44453054Y-95455389D01*
X44020389Y-95455389D01*
X44020389Y-94590058D01*
X41831611Y-94590058D01*
X41831611Y-95455389D01*
X41398946Y-95455389D01*
X41398946Y-92833946D01*
X41831611Y-92833946D01*
X41831611Y-93699276D01*
G37*
G36*
X44885719Y-89805288D02*
G01*
X45318384Y-89805288D01*
X45318384Y-91968615D01*
X44885719Y-91968615D01*
X44885719Y-92401280D01*
X41831611Y-92401280D01*
X41831611Y-91968615D01*
X41398946Y-91968615D01*
X41398946Y-91535950D01*
X41831611Y-91535950D01*
X42264276Y-91535950D01*
X42264276Y-91103284D01*
X42696942Y-91103284D01*
X42696942Y-91535950D01*
X44885719Y-91535950D01*
X44885719Y-90237954D01*
X44453054Y-90237954D01*
X44453054Y-90670619D01*
X44020389Y-90670619D01*
X44020389Y-90237954D01*
X41831611Y-90237954D01*
X41831611Y-91535950D01*
X41398946Y-91535950D01*
X41398946Y-89805288D01*
X41831611Y-89805288D01*
X41831611Y-89372623D01*
X44885719Y-89372623D01*
X44885719Y-89805288D01*
G37*
G36*
X44020389Y-91103284D02*
G01*
X42696942Y-91103284D01*
X42696942Y-90670619D01*
X44020389Y-90670619D01*
X44020389Y-91103284D01*
G37*
%LPC*%
D11*
X46810000Y-81754500D03*
D12*
X44270000Y-81754500D03*
X41730000Y-81754500D03*
X39190000Y-81754500D03*
D13*
X45500000Y-86857000D03*
D14*
X40500000Y-86857000D03*
X43000000Y-86857000D03*
D15*
X37400000Y-94357000D03*
X48600000Y-94357000D03*
D14*
X40500000Y-101357000D03*
X45500000Y-101357000D03*
D11*
X34125000Y-78867000D03*
D12*
X36665000Y-78867000D03*
X39205000Y-78867000D03*
X41745000Y-78867000D03*
X44285000Y-78867000D03*
X46825000Y-78867000D03*
X49365000Y-78867000D03*
X51905000Y-78867000D03*
M02*
