M48
; DRILL file {KiCad (6.0.1-0)} date Friday, March 18, 2022 at 06:41:36 PM
; FORMAT={-:-/ absolute / metric / decimal}
; #@! TF.CreationDate,2022-03-18T18:41:36-07:00
; #@! TF.GenerationSoftware,Kicad,Pcbnew,(6.0.1-0)
; #@! TF.FileFunction,NonPlated,1,2,NPTH
FMAT,2
METRIC
; #@! TA.AperFunction,NonPlated,NPTH,ComponentDrill
T1C1.200
; #@! TA.AperFunction,NonPlated,NPTH,ComponentDrill
T2C1.750
; #@! TA.AperFunction,NonPlated,NPTH,ComponentDrill
T3C3.000
; #@! TA.AperFunction,NonPlated,NPTH,ComponentDrill
T4C3.048
; #@! TA.AperFunction,NonPlated,NPTH,ComponentDrill
T5C3.988
%
G90
G05
T1
X162.6Y-32.634
T2
X67.151Y-49.212
X69.532Y-68.263
X69.532Y-106.362
X74.295Y-87.312
X77.311Y-49.212
X79.692Y-68.263
X79.692Y-106.362
X84.455Y-87.312
X86.201Y-49.212
X90.964Y-68.263
X96.361Y-49.212
X100.489Y-87.312
X101.124Y-68.263
X105.251Y-49.212
X110.014Y-68.263
X110.649Y-87.312
X115.411Y-49.212
X119.539Y-87.312
X120.174Y-68.263
X124.301Y-49.212
X126.682Y-106.362
X129.064Y-68.263
X129.699Y-87.312
X134.461Y-49.212
X136.843Y-106.362
X138.589Y-87.312
X139.224Y-68.263
X148.114Y-68.263
X148.431Y-44.133
X148.431Y-54.292
X148.749Y-87.312
X152.876Y-106.362
X157.639Y-87.312
X158.274Y-68.263
X162.401Y-49.212
X163.036Y-106.362
X167.164Y-68.263
X167.799Y-87.312
X172.561Y-49.212
X174.308Y-106.362
X176.689Y-87.312
X177.324Y-68.263
X181.451Y-49.212
X184.468Y-106.362
X186.214Y-68.263
X186.849Y-87.312
X191.611Y-49.212
X195.739Y-87.312
X196.374Y-68.263
X200.501Y-49.212
X205.264Y-68.263
X205.899Y-87.312
X210.661Y-49.212
X215.424Y-68.263
X219.551Y-49.212
X219.869Y-82.233
X219.869Y-92.392
X229.711Y-49.212
X231.457Y-68.263
X231.775Y-82.233
X231.775Y-92.392
X238.601Y-49.212
X238.601Y-106.362
X241.3Y-82.233
X241.3Y-92.392
X241.617Y-68.263
X248.761Y-49.212
X248.761Y-106.362
T3
X68.421Y-46.672
X70.802Y-65.722
X70.802Y-103.822
X74.771Y-44.133
X75.565Y-84.772
X77.153Y-63.182
X77.153Y-101.282
X81.915Y-82.233
X87.471Y-46.672
X92.234Y-65.722
X93.821Y-44.133
X98.584Y-63.182
X101.759Y-84.772
X106.521Y-46.672
X108.109Y-82.233
X111.284Y-65.722
X112.871Y-44.133
X117.634Y-63.182
X120.809Y-84.772
X125.571Y-46.672
X127.159Y-82.233
X127.953Y-103.822
X131.604Y-73.343
X131.921Y-44.133
X134.302Y-101.282
X137.954Y-70.802
X139.859Y-84.772
X143.351Y-46.672
X145.891Y-53.023
X146.209Y-82.233
X150.654Y-73.343
X154.146Y-103.822
X157.004Y-70.802
X158.909Y-84.772
X160.496Y-101.282
X163.671Y-46.672
X165.259Y-82.233
X168.434Y-65.722
X170.021Y-44.133
X174.784Y-63.182
X175.577Y-103.822
X177.959Y-84.772
X181.927Y-101.282
X182.721Y-46.672
X184.309Y-82.233
X187.484Y-65.722
X189.071Y-44.133
X193.834Y-63.182
X197.009Y-84.772
X201.771Y-46.672
X203.359Y-82.233
X206.534Y-65.722
X208.121Y-44.133
X212.884Y-63.182
X214.789Y-84.772
X217.329Y-91.123
X220.821Y-46.672
X226.695Y-84.772
X227.171Y-44.133
X229.235Y-91.123
X232.727Y-65.722
X236.22Y-84.772
X238.76Y-91.123
X239.077Y-63.182
X239.871Y-46.672
X239.871Y-103.822
X246.221Y-44.133
X246.221Y-101.282
T4
X91.281Y-113.347
X107.956Y-113.347
X119.825Y-113.347
X143.701Y-113.347
X167.45Y-113.347
X191.326Y-113.347
X207.956Y-113.347
X219.837Y-94.297
X224.631Y-113.347
X243.713Y-94.297
T5
X72.231Y-49.212
X74.612Y-68.263
X74.612Y-106.362
X79.375Y-87.312
X91.281Y-49.212
X91.281Y-98.108
X96.044Y-68.263
X105.569Y-87.312
X107.956Y-98.108
X110.331Y-49.212
X115.094Y-68.263
X119.825Y-98.108
X124.619Y-87.312
X129.381Y-49.212
X131.762Y-106.362
X134.144Y-68.263
X143.669Y-87.312
X143.701Y-98.108
X148.431Y-49.212
X153.194Y-68.263
X157.956Y-106.362
X162.719Y-87.312
X167.45Y-98.108
X167.481Y-49.212
X172.244Y-68.263
X179.387Y-106.362
X181.769Y-87.312
X186.531Y-49.212
X191.294Y-68.263
X191.326Y-98.108
X200.819Y-87.312
X205.581Y-49.212
X207.956Y-98.108
X210.344Y-68.263
X219.837Y-79.057
X219.869Y-87.312
X224.631Y-49.212
X224.631Y-98.108
X231.775Y-87.312
X236.537Y-68.263
X241.3Y-87.312
X243.681Y-49.212
X243.681Y-106.362
X243.713Y-79.057
T0
M30
