G04 #@! TF.GenerationSoftware,KiCad,Pcbnew,(6.0.1-0)*
G04 #@! TF.CreationDate,2022-03-18T18:41:34-07:00*
G04 #@! TF.ProjectId,micro10,6d696372-6f31-4302-9e6b-696361645f70,1*
G04 #@! TF.SameCoordinates,Original*
G04 #@! TF.FileFunction,Soldermask,Top*
G04 #@! TF.FilePolarity,Negative*
%FSLAX46Y46*%
G04 Gerber Fmt 4.6, Leading zero omitted, Abs format (unit mm)*
G04 Created by KiCad (PCBNEW (6.0.1-0)) date 2022-03-18 18:41:34*
%MOMM*%
%LPD*%
G01*
G04 APERTURE LIST*
%ADD10R,1.752600X1.752600*%
%ADD11C,1.752600*%
%ADD12C,3.987800*%
%ADD13C,1.750000*%
%ADD14C,3.000000*%
%ADD15C,3.048000*%
%ADD16R,1.700000X1.700000*%
%ADD17O,1.700000X1.700000*%
%ADD18C,1.200000*%
%ADD19C,2.100000*%
G04 APERTURE END LIST*
D10*
X140811250Y-35242500D03*
D11*
X140811250Y-37782500D03*
X140811250Y-40322500D03*
X140811250Y-42862500D03*
X140811250Y-45402500D03*
X140811250Y-47942500D03*
X140811250Y-50482500D03*
X140811250Y-53022500D03*
X140811250Y-55562500D03*
X140811250Y-58102500D03*
X140811250Y-60642500D03*
X140811250Y-63182500D03*
X156051250Y-63182500D03*
X156051250Y-60642500D03*
X156051250Y-58102500D03*
X156051250Y-55562500D03*
X156051250Y-53022500D03*
X156051250Y-50482500D03*
X156051250Y-47942500D03*
X156051250Y-45402500D03*
X156051250Y-42862500D03*
X156051250Y-40322500D03*
X156051250Y-37782500D03*
X156051250Y-35242500D03*
X143351250Y-63182500D03*
X145891250Y-63182500D03*
X148431250Y-63182500D03*
X150971250Y-63182500D03*
X153511250Y-63182500D03*
D12*
X74612500Y-106362500D03*
D13*
X69532500Y-106362500D03*
D14*
X70802500Y-103822500D03*
X77152500Y-101282500D03*
D13*
X79692500Y-106362500D03*
X196373750Y-68262500D03*
D14*
X193833750Y-63182500D03*
X187483750Y-65722500D03*
D12*
X191293750Y-68262500D03*
D13*
X186213750Y-68262500D03*
X152876250Y-106362500D03*
D12*
X91281250Y-98107500D03*
X157956250Y-106362500D03*
D14*
X160496250Y-101282500D03*
D15*
X224631250Y-113347500D03*
D14*
X154146250Y-103822500D03*
D13*
X163036250Y-106362500D03*
D15*
X91281250Y-113347500D03*
D12*
X224631250Y-98107500D03*
D13*
X148113750Y-68262500D03*
X158273750Y-68262500D03*
D14*
X150653750Y-73342500D03*
X157003750Y-70802500D03*
D12*
X153193750Y-68262500D03*
D13*
X148431250Y-44132500D03*
D14*
X145891250Y-53022500D03*
D12*
X148431250Y-49212500D03*
D13*
X148431250Y-54292500D03*
D14*
X143351250Y-46672500D03*
D16*
X149081250Y-116681250D03*
D17*
X151621250Y-116681250D03*
X154161250Y-116681250D03*
X156701250Y-116681250D03*
X159241250Y-116681250D03*
X161781250Y-116681250D03*
X164321250Y-116681250D03*
X166861250Y-116681250D03*
D13*
X241617500Y-68262500D03*
D14*
X232727500Y-65722500D03*
D12*
X236537500Y-68262500D03*
D13*
X231457500Y-68262500D03*
D14*
X239077500Y-63182500D03*
X111283750Y-65722500D03*
X117633750Y-63182500D03*
D12*
X115093750Y-68262500D03*
D13*
X110013750Y-68262500D03*
X120173750Y-68262500D03*
D14*
X170021250Y-44132500D03*
D12*
X167481250Y-49212500D03*
D14*
X163671250Y-46672500D03*
D13*
X162401250Y-49212500D03*
X172561250Y-49212500D03*
X238601250Y-106362500D03*
D14*
X239871250Y-103822500D03*
X246221250Y-101282500D03*
D13*
X248761250Y-106362500D03*
D12*
X243681250Y-106362500D03*
D13*
X136842500Y-106362500D03*
D15*
X119824500Y-113347500D03*
D12*
X119824500Y-98107500D03*
D15*
X143700500Y-113347500D03*
D13*
X126682500Y-106362500D03*
D14*
X127952500Y-103822500D03*
D12*
X143700500Y-98107500D03*
X131762500Y-106362500D03*
D14*
X134302500Y-101282500D03*
D12*
X124618750Y-87312500D03*
D13*
X119538750Y-87312500D03*
D14*
X120808750Y-84772500D03*
D13*
X129698750Y-87312500D03*
D14*
X127158750Y-82232500D03*
X168433750Y-65722500D03*
D12*
X172243750Y-68262500D03*
D14*
X174783750Y-63182500D03*
D13*
X177323750Y-68262500D03*
X167163750Y-68262500D03*
D14*
X131603750Y-73342500D03*
D12*
X134143750Y-68262500D03*
D14*
X137953750Y-70802500D03*
D13*
X139223750Y-68262500D03*
X129063750Y-68262500D03*
D14*
X101758750Y-84772500D03*
D13*
X100488750Y-87312500D03*
D12*
X105568750Y-87312500D03*
D13*
X110648750Y-87312500D03*
D14*
X108108750Y-82232500D03*
D13*
X205898750Y-87312500D03*
X195738750Y-87312500D03*
D14*
X197008750Y-84772500D03*
X203358750Y-82232500D03*
D12*
X200818750Y-87312500D03*
D14*
X229235000Y-91122500D03*
D13*
X231775000Y-82232500D03*
D12*
X231775000Y-87312500D03*
D14*
X226695000Y-84772500D03*
D13*
X231775000Y-92392500D03*
D12*
X219837000Y-79057500D03*
D15*
X243713000Y-94297500D03*
D12*
X243713000Y-79057500D03*
D15*
X219837000Y-94297500D03*
D14*
X220821250Y-46672500D03*
X227171250Y-44132500D03*
D12*
X224631250Y-49212500D03*
D13*
X229711250Y-49212500D03*
X219551250Y-49212500D03*
D12*
X72231250Y-49212500D03*
D14*
X74771250Y-44132500D03*
D13*
X67151250Y-49212500D03*
D14*
X68421250Y-46672500D03*
D13*
X77311250Y-49212500D03*
D14*
X189071250Y-44132500D03*
D13*
X181451250Y-49212500D03*
D12*
X186531250Y-49212500D03*
D14*
X182721250Y-46672500D03*
D13*
X191611250Y-49212500D03*
D14*
X181927500Y-101282500D03*
X175577500Y-103822500D03*
D13*
X174307500Y-106362500D03*
D12*
X191325500Y-98107500D03*
X179387500Y-106362500D03*
D15*
X167449500Y-113347500D03*
X191325500Y-113347500D03*
D12*
X167449500Y-98107500D03*
D13*
X184467500Y-106362500D03*
X215423750Y-68262500D03*
D14*
X206533750Y-65722500D03*
X212883750Y-63182500D03*
D12*
X210343750Y-68262500D03*
D13*
X205263750Y-68262500D03*
D14*
X217328750Y-91122500D03*
D12*
X219868750Y-87312500D03*
D14*
X214788750Y-84772500D03*
D13*
X219868750Y-92392500D03*
X219868750Y-82232500D03*
X200501250Y-49212500D03*
D14*
X208121250Y-44132500D03*
X201771250Y-46672500D03*
D12*
X205581250Y-49212500D03*
D13*
X210661250Y-49212500D03*
D14*
X177958750Y-84772500D03*
D13*
X186848750Y-87312500D03*
D14*
X184308750Y-82232500D03*
D13*
X176688750Y-87312500D03*
D12*
X181768750Y-87312500D03*
D13*
X167798750Y-87312500D03*
D14*
X158908750Y-84772500D03*
D12*
X162718750Y-87312500D03*
D14*
X165258750Y-82232500D03*
D13*
X157638750Y-87312500D03*
D14*
X93821250Y-44132500D03*
D12*
X91281250Y-49212500D03*
D14*
X87471250Y-46672500D03*
D13*
X96361250Y-49212500D03*
X86201250Y-49212500D03*
D12*
X129381250Y-49212500D03*
D13*
X124301250Y-49212500D03*
D14*
X125571250Y-46672500D03*
X131921250Y-44132500D03*
D13*
X134461250Y-49212500D03*
D14*
X146208750Y-82232500D03*
D13*
X148748750Y-87312500D03*
D12*
X143668750Y-87312500D03*
D13*
X138588750Y-87312500D03*
D14*
X139858750Y-84772500D03*
D12*
X74612500Y-68262500D03*
D13*
X79692500Y-68262500D03*
D14*
X70802500Y-65722500D03*
X77152500Y-63182500D03*
D13*
X69532500Y-68262500D03*
D12*
X79375000Y-87312500D03*
D14*
X75565000Y-84772500D03*
D13*
X74295000Y-87312500D03*
X84455000Y-87312500D03*
D14*
X81915000Y-82232500D03*
D13*
X238601250Y-49212500D03*
D14*
X246221250Y-44132500D03*
X239871250Y-46672500D03*
D13*
X248761250Y-49212500D03*
D12*
X243681250Y-49212500D03*
D15*
X207956150Y-113347500D03*
X107956350Y-113347500D03*
D12*
X107956350Y-98107500D03*
X207956150Y-98107500D03*
D14*
X238760000Y-91122500D03*
X236220000Y-84772500D03*
D13*
X241300000Y-82232500D03*
D12*
X241300000Y-87312500D03*
D13*
X241300000Y-92392500D03*
D14*
X92233750Y-65722500D03*
D13*
X90963750Y-68262500D03*
X101123750Y-68262500D03*
D14*
X98583750Y-63182500D03*
D12*
X96043750Y-68262500D03*
D14*
X106521250Y-46672500D03*
D12*
X110331250Y-49212500D03*
D14*
X112871250Y-44132500D03*
D13*
X105251250Y-49212500D03*
X115411250Y-49212500D03*
D18*
X162600000Y-32633750D03*
D19*
X166100000Y-36333750D03*
X159090000Y-36333750D03*
D13*
X165100000Y-33843750D03*
X160100000Y-33843750D03*
M02*
