G04 #@! TF.GenerationSoftware,KiCad,Pcbnew,(6.0.1-0)*
G04 #@! TF.CreationDate,2022-03-18T18:41:34-07:00*
G04 #@! TF.ProjectId,micro10,6d696372-6f31-4302-9e6b-696361645f70,1*
G04 #@! TF.SameCoordinates,Original*
G04 #@! TF.FileFunction,Paste,Bot*
G04 #@! TF.FilePolarity,Positive*
%FSLAX46Y46*%
G04 Gerber Fmt 4.6, Leading zero omitted, Abs format (unit mm)*
G04 Created by KiCad (PCBNEW (6.0.1-0)) date 2022-03-18 18:41:34*
%MOMM*%
%LPD*%
G01*
G04 APERTURE LIST*
%ADD10R,2.550000X2.500000*%
%ADD11R,2.500000X2.550000*%
%ADD12R,0.800000X1.900000*%
G04 APERTURE END LIST*
D10*
X67527500Y-103822500D03*
X80454500Y-101282500D03*
X184208750Y-65722500D03*
X197135750Y-63182500D03*
X150871250Y-103822500D03*
X163798250Y-101282500D03*
X160278750Y-70802500D03*
X147351750Y-73342500D03*
D11*
X145891250Y-56297500D03*
X143351250Y-43370500D03*
D10*
X229452500Y-65722500D03*
X242379500Y-63182500D03*
X108008750Y-65722500D03*
X120935750Y-63182500D03*
X160396250Y-46672500D03*
X173323250Y-44132500D03*
X236596250Y-103822500D03*
X249523250Y-101282500D03*
X124677500Y-103822500D03*
X137604500Y-101282500D03*
X117533750Y-84772500D03*
X130460750Y-82232500D03*
X165158750Y-65722500D03*
X178085750Y-63182500D03*
X141228750Y-70802500D03*
X128301750Y-73342500D03*
X98483750Y-84772500D03*
X111410750Y-82232500D03*
X193733750Y-84772500D03*
X206660750Y-82232500D03*
D11*
X229235000Y-94397500D03*
X226695000Y-81470500D03*
D10*
X217546250Y-46672500D03*
X230473250Y-44132500D03*
X65146250Y-46672500D03*
X78073250Y-44132500D03*
X179446250Y-46672500D03*
X192373250Y-44132500D03*
X172302500Y-103822500D03*
X185229500Y-101282500D03*
X203258750Y-65722500D03*
X216185750Y-63182500D03*
D11*
X217328750Y-94397500D03*
X214788750Y-81470500D03*
D10*
X198496250Y-46672500D03*
X211423250Y-44132500D03*
X174683750Y-84772500D03*
X187610750Y-82232500D03*
X155633750Y-84772500D03*
X168560750Y-82232500D03*
X84196250Y-46672500D03*
X97123250Y-44132500D03*
X122296250Y-46672500D03*
X135223250Y-44132500D03*
X136583750Y-84772500D03*
X149510750Y-82232500D03*
X67527500Y-65722500D03*
X80454500Y-63182500D03*
X72290000Y-84772500D03*
X85217000Y-82232500D03*
X236596250Y-46672500D03*
X249523250Y-44132500D03*
D11*
X238760000Y-94397500D03*
X236220000Y-81470500D03*
D10*
X88958750Y-65722500D03*
X101885750Y-63182500D03*
X103246250Y-46672500D03*
X116173250Y-44132500D03*
D12*
X80806250Y-51681250D03*
X82706250Y-51681250D03*
X81756250Y-54681250D03*
X195106250Y-51681250D03*
X197006250Y-51681250D03*
X196056250Y-54681250D03*
X246543750Y-89693750D03*
X248443750Y-89693750D03*
X247493750Y-92693750D03*
X158593750Y-51681250D03*
X160493750Y-51681250D03*
X159543750Y-54681250D03*
X133193750Y-89781250D03*
X135093750Y-89781250D03*
X134143750Y-92781250D03*
X199868750Y-70731250D03*
X201768750Y-70731250D03*
X200818750Y-73731250D03*
X171293750Y-89781250D03*
X173193750Y-89781250D03*
X172243750Y-92781250D03*
X95093750Y-89781250D03*
X96993750Y-89781250D03*
X96043750Y-92781250D03*
X123668750Y-70731250D03*
X125568750Y-70731250D03*
X124618750Y-73731250D03*
X233206250Y-51681250D03*
X235106250Y-51681250D03*
X234156250Y-54681250D03*
X141925000Y-105743750D03*
X143825000Y-105743750D03*
X142875000Y-108743750D03*
X118906250Y-51681250D03*
X120806250Y-51681250D03*
X119856250Y-54681250D03*
X163356250Y-70731250D03*
X165256250Y-70731250D03*
X164306250Y-73731250D03*
X85568750Y-105743750D03*
X87468750Y-105743750D03*
X86518750Y-108743750D03*
X85568750Y-70731250D03*
X87468750Y-70731250D03*
X86518750Y-73731250D03*
X189550000Y-105743750D03*
X191450000Y-105743750D03*
X190500000Y-108743750D03*
X209393750Y-89781250D03*
X211293750Y-89781250D03*
X210343750Y-92781250D03*
M02*
