M48
; DRILL file {KiCad (6.0.1-0)} date Friday, March 18, 2022 at 06:41:36 PM
; FORMAT={-:-/ absolute / metric / decimal}
; #@! TF.CreationDate,2022-03-18T18:41:36-07:00
; #@! TF.GenerationSoftware,Kicad,Pcbnew,(6.0.1-0)
; #@! TF.FileFunction,Plated,1,2,PTH
FMAT,2
METRIC
; #@! TA.AperFunction,Plated,PTH,ViaDrill
T1C0.400
; #@! TA.AperFunction,Plated,PTH,ComponentDrill
T2C0.990
; #@! TA.AperFunction,Plated,PTH,ComponentDrill
T3C1.000
; #@! TA.AperFunction,Plated,PTH,ComponentDrill
T4C1.092
; #@! TA.AperFunction,Plated,PTH,ComponentDrill
T5C1.300
%
G90
G05
T1
X64.643Y-41.529
X65.087Y-46.831
X67.469Y-65.881
X67.469Y-103.981
X72.231Y-84.931
X81.661Y-43.688
X84.138Y-46.831
X88.9Y-65.881
X90.297Y-43.942
X98.425Y-84.931
X100.838Y-51.308
X103.188Y-46.831
X107.95Y-65.881
X117.475Y-84.931
X122.237Y-46.831
X124.619Y-103.981
X131.699Y-53.213
X133.35Y-63.5
X134.112Y-73.66
X134.112Y-76.835
X135.255Y-87.376
X136.525Y-84.931
X139.7Y-88.773
X141.287Y-70.644
X142.621Y-81.661
X143.891Y-50.292
X144.653Y-66.548
X146.05Y-56.356
X146.558Y-107.061
X148.844Y-59.817
X150.812Y-103.981
X151.13Y-53.975
X153.289Y-89.789
X155.575Y-84.931
X155.579Y-100.207
X158.369Y-115.316
X160.338Y-46.831
X160.338Y-70.644
X162.01Y-109.686
X164.465Y-50.292
X165.1Y-65.881
X166.37Y-44.323
X166.624Y-108.043
X166.878Y-32.385
X167.64Y-56.642
X172.244Y-103.981
X174.625Y-84.931
X176.403Y-50.8
X179.387Y-46.831
X184.15Y-65.881
X193.675Y-84.931
X198.438Y-46.831
X203.2Y-65.881
X208.915Y-52.324
X215.138Y-52.197
X217.487Y-46.831
X217.487Y-94.456
X229.394Y-65.881
X229.394Y-94.456
X234.061Y-48.895
X236.537Y-46.831
X236.537Y-103.981
X238.919Y-94.456
X243.713Y-90.551
T2
X160.1Y-33.844
X165.1Y-33.844
T3
X149.081Y-116.681
X151.621Y-116.681
X154.161Y-116.681
X156.701Y-116.681
X159.241Y-116.681
X161.781Y-116.681
X164.321Y-116.681
X166.861Y-116.681
T4
X140.811Y-35.242
X140.811Y-37.782
X140.811Y-40.322
X140.811Y-42.862
X140.811Y-45.402
X140.811Y-47.942
X140.811Y-50.482
X140.811Y-53.023
X140.811Y-55.562
X140.811Y-58.102
X140.811Y-60.642
X140.811Y-63.182
X143.351Y-63.182
X145.891Y-63.182
X148.431Y-63.182
X150.971Y-63.182
X153.511Y-63.182
X156.051Y-35.242
X156.051Y-37.782
X156.051Y-40.322
X156.051Y-42.862
X156.051Y-45.402
X156.051Y-47.942
X156.051Y-50.482
X156.051Y-53.023
X156.051Y-55.562
X156.051Y-58.102
X156.051Y-60.642
X156.051Y-63.182
T5
X159.09Y-36.334
X166.1Y-36.334
T0
M30
