G04 #@! TF.GenerationSoftware,KiCad,Pcbnew,(6.0.1-0)*
G04 #@! TF.CreationDate,2022-03-18T18:41:34-07:00*
G04 #@! TF.ProjectId,micro10,6d696372-6f31-4302-9e6b-696361645f70,1*
G04 #@! TF.SameCoordinates,Original*
G04 #@! TF.FileFunction,Legend,Top*
G04 #@! TF.FilePolarity,Positive*
%FSLAX46Y46*%
G04 Gerber Fmt 4.6, Leading zero omitted, Abs format (unit mm)*
G04 Created by KiCad (PCBNEW (6.0.1-0)) date 2022-03-18 18:41:34*
%MOMM*%
%LPD*%
G01*
G04 APERTURE LIST*
%ADD10C,0.300000*%
%ADD11C,0.150000*%
%ADD12C,0.120000*%
%ADD13R,1.752600X1.752600*%
%ADD14C,1.752600*%
%ADD15C,3.987800*%
%ADD16C,1.750000*%
%ADD17C,3.000000*%
%ADD18C,3.048000*%
%ADD19R,1.700000X1.700000*%
%ADD20O,1.700000X1.700000*%
%ADD21C,1.200000*%
%ADD22C,2.100000*%
G04 APERTURE END LIST*
D10*
X210963571Y-111549571D02*
X210963571Y-110049571D01*
X210963571Y-110621000D02*
X211106428Y-110549571D01*
X211392142Y-110549571D01*
X211535000Y-110621000D01*
X211606428Y-110692428D01*
X211677857Y-110835285D01*
X211677857Y-111263857D01*
X211606428Y-111406714D01*
X211535000Y-111478142D01*
X211392142Y-111549571D01*
X211106428Y-111549571D01*
X210963571Y-111478142D01*
X212177857Y-110549571D02*
X212535000Y-111549571D01*
X212892142Y-110549571D02*
X212535000Y-111549571D01*
X212392142Y-111906714D01*
X212320714Y-111978142D01*
X212177857Y-112049571D01*
X215249285Y-111549571D02*
X215249285Y-110049571D01*
X215249285Y-111478142D02*
X215106428Y-111549571D01*
X214820714Y-111549571D01*
X214677857Y-111478142D01*
X214606428Y-111406714D01*
X214535000Y-111263857D01*
X214535000Y-110835285D01*
X214606428Y-110692428D01*
X214677857Y-110621000D01*
X214820714Y-110549571D01*
X215106428Y-110549571D01*
X215249285Y-110621000D01*
X216606428Y-111478142D02*
X216463571Y-111549571D01*
X216177857Y-111549571D01*
X216035000Y-111478142D01*
X215963571Y-111406714D01*
X215892142Y-111263857D01*
X215892142Y-110835285D01*
X215963571Y-110692428D01*
X216035000Y-110621000D01*
X216177857Y-110549571D01*
X216463571Y-110549571D01*
X216606428Y-110621000D01*
X217249285Y-110549571D02*
X217249285Y-112049571D01*
X217249285Y-110621000D02*
X217392142Y-110549571D01*
X217677857Y-110549571D01*
X217820714Y-110621000D01*
X217892142Y-110692428D01*
X217963571Y-110835285D01*
X217963571Y-111263857D01*
X217892142Y-111406714D01*
X217820714Y-111478142D01*
X217677857Y-111549571D01*
X217392142Y-111549571D01*
X217249285Y-111478142D01*
X219177857Y-111478142D02*
X219035000Y-111549571D01*
X218749285Y-111549571D01*
X218606428Y-111478142D01*
X218535000Y-111335285D01*
X218535000Y-110763857D01*
X218606428Y-110621000D01*
X218749285Y-110549571D01*
X219035000Y-110549571D01*
X219177857Y-110621000D01*
X219249285Y-110763857D01*
X219249285Y-110906714D01*
X218535000Y-111049571D01*
X220535000Y-111549571D02*
X220535000Y-110049571D01*
X220535000Y-111478142D02*
X220392142Y-111549571D01*
X220106428Y-111549571D01*
X219963571Y-111478142D01*
X219892142Y-111406714D01*
X219820714Y-111263857D01*
X219820714Y-110835285D01*
X219892142Y-110692428D01*
X219963571Y-110621000D01*
X220106428Y-110549571D01*
X220392142Y-110549571D01*
X220535000Y-110621000D01*
X221249285Y-111549571D02*
X221249285Y-110549571D01*
X221249285Y-110049571D02*
X221177857Y-110121000D01*
X221249285Y-110192428D01*
X221320714Y-110121000D01*
X221249285Y-110049571D01*
X221249285Y-110192428D01*
X221749285Y-110549571D02*
X222320714Y-110549571D01*
X221963571Y-110049571D02*
X221963571Y-111335285D01*
X222035000Y-111478142D01*
X222177857Y-111549571D01*
X222320714Y-111549571D01*
D11*
X157479166Y-113752380D02*
X157479166Y-114466666D01*
X157431547Y-114609523D01*
X157336309Y-114704761D01*
X157193452Y-114752380D01*
X157098214Y-114752380D01*
X158479166Y-114752380D02*
X157907738Y-114752380D01*
X158193452Y-114752380D02*
X158193452Y-113752380D01*
X158098214Y-113895238D01*
X158002976Y-113990476D01*
X157907738Y-114038095D01*
G36*
X208994741Y-108182876D02*
G01*
X210701662Y-108182876D01*
X210701662Y-109048207D01*
X208994741Y-109048207D01*
X208994741Y-109888087D01*
X208128542Y-109888087D01*
X208128542Y-110753417D01*
X206421622Y-110753417D01*
X206421622Y-109888087D01*
X207287820Y-109888087D01*
X207287820Y-103907125D01*
X208994741Y-103907125D01*
X208994741Y-108182876D01*
G37*
G36*
X212434059Y-108182876D02*
G01*
X213274781Y-108182876D01*
X213274781Y-109048207D01*
X211567860Y-109048207D01*
X211567860Y-108182876D01*
X210701662Y-108182876D01*
X210701662Y-103907125D01*
X212434059Y-103907125D01*
X212434059Y-108182876D01*
G37*
G36*
X217554821Y-108182876D02*
G01*
X219287218Y-108182876D01*
X219287218Y-109048207D01*
X214140980Y-109048207D01*
X214140980Y-108182876D01*
X215847900Y-108182876D01*
X215847900Y-103907125D01*
X214140980Y-103907125D01*
X214140980Y-103041794D01*
X215847900Y-103041794D01*
X215847900Y-102201914D01*
X216714099Y-102201914D01*
X216714099Y-101336584D01*
X217554821Y-101336584D01*
X217554821Y-108182876D01*
G37*
G36*
X220127940Y-102201914D02*
G01*
X220994139Y-102201914D01*
X220994139Y-101336584D01*
X225274179Y-101336584D01*
X225274179Y-102201914D01*
X226140378Y-102201914D01*
X226140378Y-108182876D01*
X225274179Y-108182876D01*
X225274179Y-109048207D01*
X220994139Y-109048207D01*
X220994139Y-108182876D01*
X221860338Y-108182876D01*
X224433457Y-108182876D01*
X224433457Y-103907125D01*
X223567258Y-103907125D01*
X223567258Y-103041794D01*
X224433457Y-103041794D01*
X224433457Y-102201914D01*
X221860338Y-102201914D01*
X221860338Y-106477666D01*
X222701060Y-106477666D01*
X222701060Y-107317545D01*
X221860338Y-107317545D01*
X221860338Y-108182876D01*
X220994139Y-108182876D01*
X220127940Y-108182876D01*
X220127940Y-102201914D01*
G37*
G36*
X223567258Y-106477666D02*
G01*
X222701060Y-106477666D01*
X222701060Y-103907125D01*
X223567258Y-103907125D01*
X223567258Y-106477666D01*
G37*
X153162818Y-40251860D02*
X153162818Y-40351860D01*
X153162818Y-40351860D02*
X153062818Y-40351860D01*
X153062818Y-40351860D02*
X153062818Y-40251860D01*
X153062818Y-40251860D02*
X153162818Y-40251860D01*
G36*
X153162818Y-40351860D02*
G01*
X153062818Y-40351860D01*
X153062818Y-40251860D01*
X153162818Y-40251860D01*
X153162818Y-40351860D01*
G37*
X153162818Y-40351860D02*
X153062818Y-40351860D01*
X153062818Y-40251860D01*
X153162818Y-40251860D01*
X153162818Y-40351860D01*
X153362818Y-39851860D02*
X153362818Y-39951860D01*
X153362818Y-39951860D02*
X152862818Y-39951860D01*
X152862818Y-39951860D02*
X152862818Y-39851860D01*
X152862818Y-39851860D02*
X153362818Y-39851860D01*
G36*
X153362818Y-39951860D02*
G01*
X152862818Y-39951860D01*
X152862818Y-39851860D01*
X153362818Y-39851860D01*
X153362818Y-39951860D01*
G37*
X153362818Y-39951860D02*
X152862818Y-39951860D01*
X152862818Y-39851860D01*
X153362818Y-39851860D01*
X153362818Y-39951860D01*
X152962818Y-39851860D02*
X152962818Y-40651860D01*
X152962818Y-40651860D02*
X152862818Y-40651860D01*
X152862818Y-40651860D02*
X152862818Y-39851860D01*
X152862818Y-39851860D02*
X152962818Y-39851860D01*
G36*
X152962818Y-40651860D02*
G01*
X152862818Y-40651860D01*
X152862818Y-39851860D01*
X152962818Y-39851860D01*
X152962818Y-40651860D01*
G37*
X152962818Y-40651860D02*
X152862818Y-40651860D01*
X152862818Y-39851860D01*
X152962818Y-39851860D01*
X152962818Y-40651860D01*
X153362818Y-39851860D02*
X153362818Y-40151860D01*
X153362818Y-40151860D02*
X153262818Y-40151860D01*
X153262818Y-40151860D02*
X153262818Y-39851860D01*
X153262818Y-39851860D02*
X153362818Y-39851860D01*
G36*
X153362818Y-40151860D02*
G01*
X153262818Y-40151860D01*
X153262818Y-39851860D01*
X153362818Y-39851860D01*
X153362818Y-40151860D01*
G37*
X153362818Y-40151860D02*
X153262818Y-40151860D01*
X153262818Y-39851860D01*
X153362818Y-39851860D01*
X153362818Y-40151860D01*
X153362818Y-40451860D02*
X153362818Y-40651860D01*
X153362818Y-40651860D02*
X153262818Y-40651860D01*
X153262818Y-40651860D02*
X153262818Y-40451860D01*
X153262818Y-40451860D02*
X153362818Y-40451860D01*
G36*
X153362818Y-40651860D02*
G01*
X153262818Y-40651860D01*
X153262818Y-40451860D01*
X153362818Y-40451860D01*
X153362818Y-40651860D01*
G37*
X153362818Y-40651860D02*
X153262818Y-40651860D01*
X153262818Y-40451860D01*
X153362818Y-40451860D01*
X153362818Y-40651860D01*
D12*
X150351250Y-115351250D02*
X168191250Y-115351250D01*
X147751250Y-118011250D02*
X147751250Y-116681250D01*
X149081250Y-118011250D02*
X147751250Y-118011250D01*
X168191250Y-118011250D02*
X168191250Y-115351250D01*
X150351250Y-118011250D02*
X168191250Y-118011250D01*
X150351250Y-118011250D02*
X150351250Y-115351250D01*
D13*
X140811250Y-35242500D03*
D14*
X140811250Y-37782500D03*
X140811250Y-40322500D03*
X140811250Y-42862500D03*
X140811250Y-45402500D03*
X140811250Y-47942500D03*
X140811250Y-50482500D03*
X140811250Y-53022500D03*
X140811250Y-55562500D03*
X140811250Y-58102500D03*
X140811250Y-60642500D03*
X140811250Y-63182500D03*
X156051250Y-63182500D03*
X156051250Y-60642500D03*
X156051250Y-58102500D03*
X156051250Y-55562500D03*
X156051250Y-53022500D03*
X156051250Y-50482500D03*
X156051250Y-47942500D03*
X156051250Y-45402500D03*
X156051250Y-42862500D03*
X156051250Y-40322500D03*
X156051250Y-37782500D03*
X156051250Y-35242500D03*
X143351250Y-63182500D03*
X145891250Y-63182500D03*
X148431250Y-63182500D03*
X150971250Y-63182500D03*
X153511250Y-63182500D03*
%LPC*%
D13*
X140811250Y-35242500D03*
D14*
X140811250Y-37782500D03*
X140811250Y-40322500D03*
X140811250Y-42862500D03*
X140811250Y-45402500D03*
X140811250Y-47942500D03*
X140811250Y-50482500D03*
X140811250Y-53022500D03*
X140811250Y-55562500D03*
X140811250Y-58102500D03*
X140811250Y-60642500D03*
X140811250Y-63182500D03*
X156051250Y-63182500D03*
X156051250Y-60642500D03*
X156051250Y-58102500D03*
X156051250Y-55562500D03*
X156051250Y-53022500D03*
X156051250Y-50482500D03*
X156051250Y-47942500D03*
X156051250Y-45402500D03*
X156051250Y-42862500D03*
X156051250Y-40322500D03*
X156051250Y-37782500D03*
X156051250Y-35242500D03*
X143351250Y-63182500D03*
X145891250Y-63182500D03*
X148431250Y-63182500D03*
X150971250Y-63182500D03*
X153511250Y-63182500D03*
D15*
X74612500Y-106362500D03*
D16*
X69532500Y-106362500D03*
D17*
X70802500Y-103822500D03*
X77152500Y-101282500D03*
D16*
X79692500Y-106362500D03*
X196373750Y-68262500D03*
D17*
X193833750Y-63182500D03*
X187483750Y-65722500D03*
D15*
X191293750Y-68262500D03*
D16*
X186213750Y-68262500D03*
X152876250Y-106362500D03*
D15*
X91281250Y-98107500D03*
X157956250Y-106362500D03*
D17*
X160496250Y-101282500D03*
D18*
X224631250Y-113347500D03*
D17*
X154146250Y-103822500D03*
D16*
X163036250Y-106362500D03*
D18*
X91281250Y-113347500D03*
D15*
X224631250Y-98107500D03*
D16*
X148113750Y-68262500D03*
X158273750Y-68262500D03*
D17*
X150653750Y-73342500D03*
X157003750Y-70802500D03*
D15*
X153193750Y-68262500D03*
D16*
X148431250Y-44132500D03*
D17*
X145891250Y-53022500D03*
D15*
X148431250Y-49212500D03*
D16*
X148431250Y-54292500D03*
D17*
X143351250Y-46672500D03*
D19*
X149081250Y-116681250D03*
D20*
X151621250Y-116681250D03*
X154161250Y-116681250D03*
X156701250Y-116681250D03*
X159241250Y-116681250D03*
X161781250Y-116681250D03*
X164321250Y-116681250D03*
X166861250Y-116681250D03*
D16*
X241617500Y-68262500D03*
D17*
X232727500Y-65722500D03*
D15*
X236537500Y-68262500D03*
D16*
X231457500Y-68262500D03*
D17*
X239077500Y-63182500D03*
X111283750Y-65722500D03*
X117633750Y-63182500D03*
D15*
X115093750Y-68262500D03*
D16*
X110013750Y-68262500D03*
X120173750Y-68262500D03*
D17*
X170021250Y-44132500D03*
D15*
X167481250Y-49212500D03*
D17*
X163671250Y-46672500D03*
D16*
X162401250Y-49212500D03*
X172561250Y-49212500D03*
X238601250Y-106362500D03*
D17*
X239871250Y-103822500D03*
X246221250Y-101282500D03*
D16*
X248761250Y-106362500D03*
D15*
X243681250Y-106362500D03*
D16*
X136842500Y-106362500D03*
D18*
X119824500Y-113347500D03*
D15*
X119824500Y-98107500D03*
D18*
X143700500Y-113347500D03*
D16*
X126682500Y-106362500D03*
D17*
X127952500Y-103822500D03*
D15*
X143700500Y-98107500D03*
X131762500Y-106362500D03*
D17*
X134302500Y-101282500D03*
D15*
X124618750Y-87312500D03*
D16*
X119538750Y-87312500D03*
D17*
X120808750Y-84772500D03*
D16*
X129698750Y-87312500D03*
D17*
X127158750Y-82232500D03*
X168433750Y-65722500D03*
D15*
X172243750Y-68262500D03*
D17*
X174783750Y-63182500D03*
D16*
X177323750Y-68262500D03*
X167163750Y-68262500D03*
D17*
X131603750Y-73342500D03*
D15*
X134143750Y-68262500D03*
D17*
X137953750Y-70802500D03*
D16*
X139223750Y-68262500D03*
X129063750Y-68262500D03*
D17*
X101758750Y-84772500D03*
D16*
X100488750Y-87312500D03*
D15*
X105568750Y-87312500D03*
D16*
X110648750Y-87312500D03*
D17*
X108108750Y-82232500D03*
D16*
X205898750Y-87312500D03*
X195738750Y-87312500D03*
D17*
X197008750Y-84772500D03*
X203358750Y-82232500D03*
D15*
X200818750Y-87312500D03*
D17*
X229235000Y-91122500D03*
D16*
X231775000Y-82232500D03*
D15*
X231775000Y-87312500D03*
D17*
X226695000Y-84772500D03*
D16*
X231775000Y-92392500D03*
D15*
X219837000Y-79057500D03*
D18*
X243713000Y-94297500D03*
D15*
X243713000Y-79057500D03*
D18*
X219837000Y-94297500D03*
D17*
X220821250Y-46672500D03*
X227171250Y-44132500D03*
D15*
X224631250Y-49212500D03*
D16*
X229711250Y-49212500D03*
X219551250Y-49212500D03*
D15*
X72231250Y-49212500D03*
D17*
X74771250Y-44132500D03*
D16*
X67151250Y-49212500D03*
D17*
X68421250Y-46672500D03*
D16*
X77311250Y-49212500D03*
D17*
X189071250Y-44132500D03*
D16*
X181451250Y-49212500D03*
D15*
X186531250Y-49212500D03*
D17*
X182721250Y-46672500D03*
D16*
X191611250Y-49212500D03*
D17*
X181927500Y-101282500D03*
X175577500Y-103822500D03*
D16*
X174307500Y-106362500D03*
D15*
X191325500Y-98107500D03*
X179387500Y-106362500D03*
D18*
X167449500Y-113347500D03*
X191325500Y-113347500D03*
D15*
X167449500Y-98107500D03*
D16*
X184467500Y-106362500D03*
X215423750Y-68262500D03*
D17*
X206533750Y-65722500D03*
X212883750Y-63182500D03*
D15*
X210343750Y-68262500D03*
D16*
X205263750Y-68262500D03*
D17*
X217328750Y-91122500D03*
D15*
X219868750Y-87312500D03*
D17*
X214788750Y-84772500D03*
D16*
X219868750Y-92392500D03*
X219868750Y-82232500D03*
X200501250Y-49212500D03*
D17*
X208121250Y-44132500D03*
X201771250Y-46672500D03*
D15*
X205581250Y-49212500D03*
D16*
X210661250Y-49212500D03*
D17*
X177958750Y-84772500D03*
D16*
X186848750Y-87312500D03*
D17*
X184308750Y-82232500D03*
D16*
X176688750Y-87312500D03*
D15*
X181768750Y-87312500D03*
D16*
X167798750Y-87312500D03*
D17*
X158908750Y-84772500D03*
D15*
X162718750Y-87312500D03*
D17*
X165258750Y-82232500D03*
D16*
X157638750Y-87312500D03*
D17*
X93821250Y-44132500D03*
D15*
X91281250Y-49212500D03*
D17*
X87471250Y-46672500D03*
D16*
X96361250Y-49212500D03*
X86201250Y-49212500D03*
D15*
X129381250Y-49212500D03*
D16*
X124301250Y-49212500D03*
D17*
X125571250Y-46672500D03*
X131921250Y-44132500D03*
D16*
X134461250Y-49212500D03*
D17*
X146208750Y-82232500D03*
D16*
X148748750Y-87312500D03*
D15*
X143668750Y-87312500D03*
D16*
X138588750Y-87312500D03*
D17*
X139858750Y-84772500D03*
D15*
X74612500Y-68262500D03*
D16*
X79692500Y-68262500D03*
D17*
X70802500Y-65722500D03*
X77152500Y-63182500D03*
D16*
X69532500Y-68262500D03*
D15*
X79375000Y-87312500D03*
D17*
X75565000Y-84772500D03*
D16*
X74295000Y-87312500D03*
X84455000Y-87312500D03*
D17*
X81915000Y-82232500D03*
D16*
X238601250Y-49212500D03*
D17*
X246221250Y-44132500D03*
X239871250Y-46672500D03*
D16*
X248761250Y-49212500D03*
D15*
X243681250Y-49212500D03*
D18*
X207956150Y-113347500D03*
X107956350Y-113347500D03*
D15*
X107956350Y-98107500D03*
X207956150Y-98107500D03*
D17*
X238760000Y-91122500D03*
X236220000Y-84772500D03*
D16*
X241300000Y-82232500D03*
D15*
X241300000Y-87312500D03*
D16*
X241300000Y-92392500D03*
D17*
X92233750Y-65722500D03*
D16*
X90963750Y-68262500D03*
X101123750Y-68262500D03*
D17*
X98583750Y-63182500D03*
D15*
X96043750Y-68262500D03*
D17*
X106521250Y-46672500D03*
D15*
X110331250Y-49212500D03*
D17*
X112871250Y-44132500D03*
D16*
X105251250Y-49212500D03*
X115411250Y-49212500D03*
D21*
X162600000Y-32633750D03*
D22*
X166100000Y-36333750D03*
X159090000Y-36333750D03*
D16*
X165100000Y-33843750D03*
X160100000Y-33843750D03*
M02*
