G04 #@! TF.GenerationSoftware,KiCad,Pcbnew,(6.0.1-0)*
G04 #@! TF.CreationDate,2022-03-18T18:41:34-07:00*
G04 #@! TF.ProjectId,micro10,6d696372-6f31-4302-9e6b-696361645f70,1*
G04 #@! TF.SameCoordinates,Original*
G04 #@! TF.FileFunction,Profile,NP*
%FSLAX46Y46*%
G04 Gerber Fmt 4.6, Leading zero omitted, Abs format (unit mm)*
G04 Created by KiCad (PCBNEW (6.0.1-0)) date 2022-03-18 18:41:34*
%MOMM*%
%LPD*%
G01*
G04 APERTURE LIST*
G04 #@! TA.AperFunction,Profile*
%ADD10C,0.200000*%
G04 #@! TD*
G04 APERTURE END LIST*
D10*
X64293750Y-115887500D02*
X145721218Y-115887500D01*
X138112500Y-32543750D02*
X138112500Y-38100000D01*
X168275000Y-38100000D02*
X168275000Y-32543750D01*
X147308718Y-117475000D02*
G75*
G03*
X148102468Y-118268750I793750J0D01*
G01*
X251618750Y-39687500D02*
X169862500Y-39687500D01*
X147308718Y-117475000D02*
G75*
G03*
X145721218Y-115887500I-1587500J0D01*
G01*
X168275000Y-118268750D02*
G75*
G03*
X169068750Y-117475000I0J793750D01*
G01*
X139700000Y-30956250D02*
G75*
G03*
X138112500Y-32543750I0J-1587500D01*
G01*
X253206250Y-41275000D02*
X253206250Y-114300000D01*
X168275000Y-32543750D02*
G75*
G03*
X166687500Y-30956250I-1587500J0D01*
G01*
X170656250Y-115887500D02*
G75*
G03*
X169068750Y-117475000I0J-1587500D01*
G01*
X136525000Y-39687500D02*
G75*
G03*
X138112500Y-38100000I0J1587500D01*
G01*
X136525000Y-39687500D02*
X64293750Y-39687500D01*
X148102468Y-118268750D02*
X168275000Y-118268750D01*
X62706250Y-41275000D02*
X62706250Y-114300000D01*
X251618750Y-115887500D02*
G75*
G03*
X253206250Y-114300000I0J1587500D01*
G01*
X170656250Y-115887500D02*
X251618750Y-115887500D01*
X62706250Y-114300000D02*
G75*
G03*
X64293750Y-115887500I1587500J0D01*
G01*
X64293750Y-39687500D02*
G75*
G03*
X62706250Y-41275000I0J-1587500D01*
G01*
X166687500Y-30956250D02*
X139700000Y-30956250D01*
X253206250Y-41275000D02*
G75*
G03*
X251618750Y-39687500I-1587500J0D01*
G01*
X168275000Y-38100000D02*
G75*
G03*
X169862500Y-39687500I1587500J0D01*
G01*
M02*
